<?xml version="1.0" encoding="utf-8"?>
<!-- Generator: Adobe Illustrator 21.0.0, SVG Export Plug-In . SVG Version: 6.00 Build 0)  -->
<svg version="1.1" id="Layer_1" xmlns="http://www.w3.org/2000/svg" xmlns:xlink="http://www.w3.org/1999/xlink" x="0px" y="0px"
	 viewBox="0 0 1000 600" style="enable-background:new 0 0 1000 600;" xml:space="preserve">
<style type="text/css">
	.st0{fill-rule:evenodd;clip-rule:evenodd;fill:none;}
	.st1{fill-rule:evenodd;clip-rule:evenodd;fill:#020202;}
</style>
<g>
	<polygon class="st0" points="0.7,175.1 999,175.1 999,425 0.7,425 0.7,175.1 0.7,175.1 	"/>
</g>
<path class="st1" d="M1.7,337.6h54c24.7,0,49.9,5.4,49.9,32.2c0,10.2-5.6,20.2-16.8,23.4v0.9c13.9,4.5,22.7,13.7,22.7,27.5
	c0,23.9-24.4,32-46.7,32H1.7V337.6L1.7,337.6z M49,382.3c6.8,0,14.4-0.6,14.4-8.6c0-8.6-8.6-8-15.4-8h-3.2v16.6H49L49,382.3z
	 M44.7,425.9H50c7.6,0,18.6-0.2,18.6-9.7c0-9.7-11.8-9.5-19.3-9.5h-4.6V425.9L44.7,425.9z"/>
<polygon class="st1" points="119,337.6 212.6,337.6 212.6,369.3 169.9,369.3 169.9,380.4 208.9,380.4 208.9,410.6 169.9,410.6 
	169.9,422 214.1,422 214.1,453.6 119,453.6 119,337.6 "/>
<path class="st1" d="M278.4,337.6l17.4,30.3h1.7c1.7-3.7,3.1-7.4,5.2-10.9l11.2-19.4h64l-53.6,66v50h-55.7v-50l-54.6-66H278.4
	L278.4,337.6z"/>
<path class="st1" d="M538.9,395.9c0,37.2-41.7,59.5-93,59.5c-51.3,0-93-22.3-93-59.5c0-36.5,41.9-60.2,93-60.2
	C496.9,335.8,538.9,359.5,538.9,395.9L538.9,395.9z M414.4,396.6c0,13.2,12.9,22.3,31.5,22.3c18.5,0,31.4-9.1,31.4-22.3
	c0-12.3-12-22.6-31.4-22.6C426.4,373.9,414.4,384.3,414.4,396.6L414.4,396.6z"/>
<path class="st1" d="M737.2,337.6h96.6c87.6,0,154.7,17.1,154.7,59.7c0,34.5-54.7,56.3-131.2,56.3H737.2V337.6L737.2,337.6z
	 M832.1,418.9h5.9c31.5,0,55.7-6.5,55.7-21.7c0-16.3-21.1-23.2-55.7-23.2h-5.9V418.9L832.1,418.9z"/>
<path class="st1" d="M967.9,338.9c0-8.6,6.9-15.4,15.5-15.4c8.7,0,15.5,6.9,15.5,15.4c0,8.6-6.9,15.4-15.5,15.4
	C974.8,354.3,967.9,347.5,967.9,338.9L967.9,338.9z M996.6,338.9c0-7.3-6.1-13.1-13.2-13.1c-7.1,0-13.2,5.8-13.2,13.1
	c0,7.3,6.1,13.1,13.2,13.1C990.6,352,996.6,346.2,996.6,338.9L996.6,338.9z M990.8,347.3H988l-5.1-7.8h-2.9v7.8h-2.4v-16.9h7.4
	c3,0,6,0.8,6,4.5c0,3.3-2.3,4.6-5.3,4.6L990.8,347.3L990.8,347.3z M982.9,337.1c2.1,0,5.8,0.4,5.8-2.3c0-1.7-2.3-2.1-4.1-2.1h-4.5
	v4.4H982.9L982.9,337.1z"/>
<polygon class="st1" points="609.2,337.7 546.5,337.7 546.5,453.7 608.9,453.7 608.9,394.7 664.3,453.7 726.7,453.7 726.7,337.7 
	664.3,337.7 664.3,397.8 609.2,337.7 "/>
<path class="st1" d="M1.4,150.9h18.7c28.9,0,56.2,7.5,56.2,42.2c0,11.2-6.1,24.2-16.5,29.1v0.4c18.1,3.3,30.8,21,30.8,38.9
	c0,30.8-26.3,43-53.4,43H1.4V150.9L1.4,150.9z M20.6,219h4.9c18.1,0,33-3.7,33-25.7c0-21.6-14.7-25.3-32.6-25.3h-5.3V219L20.6,219z
	 M20.6,287.4h14.7c17.7,0,36.3-5.3,36.3-27.1c0-21.6-22-26.1-39.1-26.1H20.6V287.4L20.6,287.4z"/>
<polygon class="st1" points="101.8,150.9 184.4,150.9 184.4,168.5 121,168.5 121,211.4 182.5,211.4 182.5,229 121,229 121,287 
	184.4,287 184.4,304.5 101.8,304.5 101.8,150.9 "/>
<path class="st1" d="M202.3,150.9h31.8c47.1,0,86.2,24.9,86.2,76c0,52.4-38.3,77.6-86.8,77.6h-31.2V150.9L202.3,150.9z M221.4,287
	h6.7c39.1,0,72.9-14.7,72.9-59.3c0-44.8-33.8-59.3-72.9-59.3h-6.7V287L221.4,287z"/>
<path class="st1" d="M374.1,150.9h18.7c28.9,0,56.2,7.5,56.2,42.2c0,11.2-6.1,24.2-16.5,29.1v0.4c18.1,3.3,30.8,21,30.8,38.9
	c0,30.8-26.3,43-53.4,43h-35.9V150.9L374.1,150.9z M393.3,219h4.9c18.1,0,33-3.7,33-25.7c0-21.6-14.7-25.3-32.6-25.3h-5.3V219
	L393.3,219z M393.3,287.4H408c17.7,0,36.3-5.3,36.3-27.1c0-21.6-22-26.1-39.1-26.1h-11.8V287.4L393.3,287.4z"/>
<path class="st1" d="M500.5,266l-17.5,38.5h-20.6l73.3-160.1L609,304.5h-20.6L570.9,266H500.5L500.5,266z M535.7,186.4l-27.3,62.1
	H563L535.7,186.4L535.7,186.4z"/>
<polygon class="st1" points="642.9,304.5 623.7,304.5 623.7,168.5 587.2,168.5 587.2,150.9 679.3,150.9 679.3,168.5 642.9,168.5 
	642.9,304.5 "/>
<polygon class="st1" points="782,212.9 782,150.9 801.1,150.9 801.1,304.5 782,304.5 782,230.8 708.8,230.8 708.8,304.5 
	689.7,304.5 689.7,150.9 708.8,150.9 708.8,212.9 782,212.9 "/>
<path class="st1" d="M944.3,283.8c-11.6,13.7-27.9,24-46,24c-25.7,0-47.1-18.7-47.1-45.2c0-19.6,12.2-30.2,26.9-40.7l9.6-6.9
	c-8.8-9.2-16.9-20.6-16.9-33.6c0-21.2,15.3-33.6,35.4-33.6c18.7,0,35.5,11.8,35.5,32c0,17.3-15.1,28.9-27.9,38.3l32,38.7l17.9-20.8
	l12.2,12.6l-18.8,22l27.5,34H961L944.3,283.8L944.3,283.8z M897,230c-10.6,7.3-27.9,17.7-27.9,32.4c0,14.7,13.8,28.3,28.5,28.3
	c14.3,0,25.7-10.8,35.2-20.4l-34-41.6L897,230L897,230z M905.4,203.1c7.7-6.1,18.3-12.4,18.3-23.6c0-10.8-7.7-16.7-17.9-16.7
	c-9.2,0-17.1,6.5-17.1,16.3c0,7.7,4.7,13.5,9.2,19.2l5.1,6.5L905.4,203.1L905.4,203.1z"/>
</svg>
