<?xml version="1.0" encoding="utf-8"?>
<!-- Generator: Adobe Illustrator 20.1.0, SVG Export Plug-In . SVG Version: 6.00 Build 0)  -->
<svg version="1.1" id="Layer_1" xmlns="http://www.w3.org/2000/svg" xmlns:xlink="http://www.w3.org/1999/xlink" x="0px" y="0px"
	 viewBox="0 0 180 250" style="enable-background:new 0 0 180 250;" xml:space="preserve">
<style type="text/css">
	.st0{fill-rule:evenodd;clip-rule:evenodd;fill:#99DBF9;}
	.st1{fill-rule:evenodd;clip-rule:evenodd;fill:#FFFFFF;}
	.st2{fill-rule:evenodd;clip-rule:evenodd;fill:#F9F6F2;}
	.st3{fill-rule:evenodd;clip-rule:evenodd;fill:#EDE5D6;}
	.st4{fill-rule:evenodd;clip-rule:evenodd;fill:#DCD2C2;}
</style>
<g>
	<ellipse class="st0" cx="88.7" cy="136" rx="73" ry="103.9"/>
	<g>
		<path class="st1" d="M127.1,113.2V66.9c0-7.4-6-13.4-13.4-13.4H65.6c-7.4,0-13.4,6-13.4,13.4v46.4H127.1z"/>
		<path class="st2" d="M143.1,149.8v-46.4c0-7.4-6-13.4-13.4-13.4H49.5c-7.4,0-13.4,6-13.4,13.4v46.4H143.1z"/>
		<path class="st3" d="M157.8,189.9v-46.4c0-7.4-6-13.4-13.4-13.4H34.8c-7.4,0-13.4,6-13.4,13.4v46.4H157.8z"/>
		<g>
			<path class="st1" d="M43.8,148c2.4-1.6,3.5-4,2.6-5.7c-0.9-1.6-3.4-1.8-5.9-0.7c-0.2-2.8-1.7-5.1-3.6-5.1c-1.8,0-3.3,2.1-3.6,4.7
				c-2.5-1.3-5.2-1-6.2,0.6c-0.9,1.6,0.1,3.9,2.3,5.5c-2.4,1.6-3.5,4-2.6,5.7c0.9,1.6,3.4,1.8,5.9,0.7c0.2,2.8,1.7,5.1,3.6,5.1
				c1.8,0,3.3-2.1,3.6-4.7c2.5,1.3,5.2,1,6.2-0.6C47,151.9,46,149.5,43.8,148z M36.6,147.7C36.6,147.7,36.6,147.7,36.6,147.7
				C36.6,147.7,36.6,147.6,36.6,147.7C36.6,147.6,36.6,147.6,36.6,147.7C36.6,147.7,36.6,147.7,36.6,147.7
				C36.6,147.7,36.6,147.7,36.6,147.7C36.6,147.7,36.6,147.7,36.6,147.7z"/>
			<path class="st1" d="M70.3,148c2.4-1.6,3.5-4,2.6-5.7c-0.9-1.6-3.4-1.8-5.9-0.7c-0.2-2.8-1.7-5.1-3.6-5.1c-1.8,0-3.3,2.1-3.6,4.7
				c-2.5-1.3-5.2-1-6.2,0.6c-0.9,1.6,0.1,3.9,2.3,5.5c-2.4,1.6-3.5,4-2.6,5.7c0.9,1.6,3.4,1.8,5.9,0.7c0.2,2.8,1.7,5.1,3.6,5.1
				c1.8,0,3.3-2.1,3.6-4.7c2.5,1.3,5.2,1,6.2-0.6C73.5,151.9,72.5,149.5,70.3,148z M63.1,147.7C63.1,147.7,63.1,147.7,63.1,147.7
				C63.1,147.7,63.1,147.6,63.1,147.7C63.1,147.6,63.1,147.6,63.1,147.7C63.1,147.7,63.1,147.7,63.1,147.7
				C63.1,147.7,63.1,147.7,63.1,147.7C63.1,147.7,63.1,147.7,63.1,147.7z"/>
			<path class="st1" d="M96.8,148c2.4-1.6,3.5-4,2.6-5.7c-0.9-1.6-3.4-1.8-5.9-0.7c-0.2-2.8-1.7-5.1-3.6-5.1c-1.8,0-3.3,2.1-3.6,4.7
				c-2.5-1.3-5.2-1-6.2,0.6c-0.9,1.6,0.1,3.9,2.3,5.5c-2.4,1.6-3.5,4-2.6,5.7c0.9,1.6,3.4,1.8,5.9,0.7c0.2,2.8,1.7,5.1,3.6,5.1
				c1.8,0,3.3-2.1,3.6-4.7c2.5,1.3,5.2,1,6.2-0.6C100.1,151.9,99,149.5,96.8,148z M89.6,147.7C89.6,147.7,89.6,147.7,89.6,147.7
				C89.6,147.7,89.6,147.6,89.6,147.7C89.6,147.6,89.6,147.6,89.6,147.7C89.7,147.7,89.7,147.7,89.6,147.7
				C89.7,147.7,89.6,147.7,89.6,147.7C89.6,147.7,89.6,147.7,89.6,147.7z"/>
			<path class="st1" d="M123.3,148c2.4-1.6,3.5-4,2.6-5.7c-0.9-1.6-3.4-1.8-5.9-0.7c-0.2-2.8-1.7-5.1-3.6-5.1
				c-1.8,0-3.3,2.1-3.6,4.7c-2.5-1.3-5.2-1-6.2,0.6c-0.9,1.6,0.1,3.9,2.3,5.5c-2.4,1.6-3.5,4-2.6,5.7c0.9,1.6,3.4,1.8,5.9,0.7
				c0.2,2.8,1.7,5.1,3.6,5.1c1.8,0,3.3-2.1,3.6-4.7c2.5,1.3,5.2,1,6.2-0.6C126.6,151.9,125.5,149.5,123.3,148z M116.1,147.7
				C116.1,147.7,116.1,147.7,116.1,147.7C116.1,147.7,116.1,147.6,116.1,147.7C116.1,147.6,116.2,147.6,116.1,147.7
				C116.2,147.7,116.2,147.7,116.1,147.7C116.2,147.7,116.2,147.7,116.1,147.7C116.2,147.7,116.1,147.7,116.1,147.7z"/>
			<path class="st1" d="M149.8,148c2.4-1.6,3.5-4,2.6-5.7c-0.9-1.6-3.4-1.8-5.9-0.7c-0.2-2.8-1.7-5.1-3.6-5.1
				c-1.8,0-3.3,2.1-3.6,4.7c-2.5-1.3-5.2-1-6.2,0.6c-0.9,1.6,0.1,3.9,2.3,5.5c-2.4,1.6-3.5,4-2.6,5.7c0.9,1.6,3.4,1.8,5.9,0.7
				c0.2,2.8,1.7,5.1,3.6,5.1c1.8,0,3.3-2.1,3.6-4.7c2.5,1.3,5.2,1,6.2-0.6C153.1,151.9,152,149.5,149.8,148z M142.6,147.7
				C142.6,147.7,142.6,147.7,142.6,147.7C142.6,147.7,142.6,147.6,142.6,147.7C142.7,147.6,142.7,147.6,142.6,147.7
				C142.7,147.7,142.7,147.7,142.6,147.7C142.7,147.7,142.7,147.7,142.6,147.7C142.7,147.7,142.7,147.7,142.6,147.7z"/>
		</g>
		<g>
			<path class="st3" d="M54.8,106.8c1.8-1.2,2.7-3,2-4.3c-0.7-1.2-2.6-1.4-4.5-0.6c-0.1-2.2-1.3-3.8-2.7-3.8c-1.4,0-2.5,1.6-2.7,3.6
				c-1.9-1-4-0.8-4.7,0.5c-0.7,1.2,0.1,3,1.8,4.2c-1.8,1.2-2.7,3-2,4.3c0.7,1.2,2.6,1.4,4.5,0.5c0.1,2.2,1.3,3.8,2.7,3.8
				c1.4,0,2.5-1.6,2.7-3.6c1.9,1,4,0.8,4.7-0.5C57.3,109.8,56.5,108,54.8,106.8z M49.3,106.6C49.3,106.6,49.3,106.6,49.3,106.6
				C49.3,106.6,49.3,106.6,49.3,106.6C49.4,106.6,49.4,106.6,49.3,106.6C49.4,106.6,49.4,106.6,49.3,106.6
				C49.4,106.6,49.4,106.6,49.3,106.6C49.4,106.6,49.4,106.6,49.3,106.6z"/>
			<path class="st3" d="M75,106.8c1.8-1.2,2.7-3,2-4.3c-0.7-1.2-2.6-1.4-4.5-0.6c-0.1-2.2-1.3-3.8-2.7-3.8c-1.4,0-2.5,1.6-2.7,3.6
				c-1.9-1-4-0.8-4.7,0.5c-0.7,1.2,0.1,3,1.8,4.2c-1.8,1.2-2.7,3-2,4.3c0.7,1.2,2.6,1.4,4.5,0.5c0.1,2.2,1.3,3.8,2.7,3.8
				c1.4,0,2.5-1.6,2.7-3.6c1.9,1,4,0.8,4.7-0.5C77.4,109.8,76.6,108,75,106.8z M69.5,106.6C69.5,106.6,69.5,106.6,69.5,106.6
				C69.5,106.6,69.5,106.6,69.5,106.6C69.5,106.6,69.5,106.6,69.5,106.6C69.5,106.6,69.5,106.6,69.5,106.6
				C69.5,106.6,69.5,106.6,69.5,106.6C69.5,106.6,69.5,106.6,69.5,106.6z"/>
			<path class="st3" d="M95.1,106.8c1.8-1.2,2.7-3,2-4.3c-0.7-1.2-2.6-1.4-4.5-0.6c-0.1-2.2-1.3-3.8-2.7-3.8c-1.4,0-2.5,1.6-2.7,3.6
				c-1.9-1-4-0.8-4.7,0.5c-0.7,1.2,0.1,3,1.8,4.2c-1.8,1.2-2.7,3-2,4.3c0.7,1.2,2.6,1.4,4.5,0.5c0.1,2.2,1.3,3.8,2.7,3.8
				c1.4,0,2.5-1.6,2.7-3.6c1.9,1,4,0.8,4.7-0.5C97.5,109.8,96.8,108,95.1,106.8z M89.6,106.6C89.6,106.6,89.6,106.6,89.6,106.6
				C89.6,106.6,89.6,106.6,89.6,106.6C89.6,106.6,89.6,106.6,89.6,106.6C89.6,106.6,89.7,106.6,89.6,106.6
				C89.7,106.6,89.6,106.6,89.6,106.6C89.6,106.6,89.6,106.6,89.6,106.6z"/>
			<path class="st3" d="M115.2,106.8c1.8-1.2,2.7-3,2-4.3c-0.7-1.2-2.6-1.4-4.5-0.6c-0.1-2.2-1.3-3.8-2.7-3.8
				c-1.4,0-2.5,1.6-2.7,3.6c-1.9-1-4-0.8-4.7,0.5c-0.7,1.2,0.1,3,1.8,4.2c-1.8,1.2-2.7,3-2,4.3c0.7,1.2,2.6,1.4,4.5,0.5
				c0.1,2.2,1.3,3.8,2.7,3.8c1.4,0,2.5-1.6,2.7-3.6c1.9,1,4,0.8,4.7-0.5C117.7,109.8,116.9,108,115.2,106.8z M109.8,106.6
				C109.8,106.6,109.8,106.6,109.8,106.6C109.8,106.6,109.8,106.6,109.8,106.6C109.8,106.6,109.8,106.6,109.8,106.6
				C109.8,106.6,109.8,106.6,109.8,106.6C109.8,106.6,109.8,106.6,109.8,106.6C109.8,106.6,109.8,106.6,109.8,106.6z"/>
			<path class="st3" d="M135.4,106.8c1.8-1.2,2.7-3,2-4.3c-0.7-1.2-2.6-1.4-4.5-0.6c-0.1-2.2-1.3-3.8-2.7-3.8
				c-1.4,0-2.5,1.6-2.7,3.6c-1.9-1-4-0.8-4.7,0.5c-0.7,1.2,0.1,3,1.8,4.2c-1.8,1.2-2.7,3-2,4.3c0.7,1.2,2.6,1.4,4.5,0.5
				c0.1,2.2,1.3,3.8,2.7,3.8c1.4,0,2.5-1.6,2.7-3.6c1.9,1,4,0.8,4.7-0.5C137.8,109.8,137,108,135.4,106.8z M129.9,106.6
				C129.9,106.6,129.9,106.6,129.9,106.6C129.9,106.6,129.9,106.6,129.9,106.6C129.9,106.6,129.9,106.6,129.9,106.6
				C129.9,106.6,129.9,106.6,129.9,106.6C129.9,106.6,129.9,106.6,129.9,106.6C129.9,106.6,129.9,106.6,129.9,106.6z"/>
		</g>
		<g>
			<path class="st3" d="M96.1,60.4c-2.6-4.4-5.3,0.3-6.5,3.3c-1.2-3.1-3.9-7.7-6.5-3.3c-2.3,3.9,3.2,20.2,6.6,26.3
				C93,80.6,98.4,64.3,96.1,60.4z"/>
		</g>
		<path class="st1" d="M103.6,57.4l4.4,0l-1.8-1.5c0,0-1.1-10.3-1.9-16.3l0,0l-0.7-6.9l0.2-1.6c0.4,3.8,0.9,8.4,0.9,8.4l0.2,0v2.7
			c0,0,1-1.2,1.3-2.8l0.1,0c1.2-11.4-1.7-14.8-1.7-14.8l0,0l0,0l0,0l0,0l0-0.1c0,0-0.3-0.1-0.6-0.3l-0.9-0.6l-1.9-1l0.1-0.4
			c1.7-0.7,2.9-2.3,2.9-4.3c0-0.4-0.1-0.7-0.1-1c0.1,0,0.1,0,0.2,0c0,0,1.3-5.6-4.9-5.8c-7.2-0.2-4.5,6.4-4.2,7.2
			c0.2,1.9,1.4,3.4,3.2,4l0,0.1l-0.5-0.2l0.1,0.4l-1.9,0.9l-1.6,0.9c0,0-1.5,1.4-2.2,3.9h0c-0.2-0.5-0.5-0.9-1-1.2
			c-0.2-1.4-0.5-2.9-0.8-4.4c0.7-0.6,1.3-1.5,1.5-2.5c0.1,0,0.2,0.1,0.3,0.1c0.4,0,0.6-0.3,0.6-0.6c0-0.3-0.2-0.6-0.6-0.6
			c0.2-0.9,0.4-2.9-1-4.2c0,0,0.1,0,0.1-0.1c0.1-0.2,0-0.4-0.3-0.6c0.3-0.2,0.4-0.5,0.3-0.7c-0.1-0.2-0.4-0.2-0.7-0.1
			c0-0.3-0.2-0.5-0.4-0.6c0-0.1,0-0.2,0-0.4c0-1.6-1.3-2.8-2.8-2.8c-1.6,0-2.8,1.3-2.8,2.8c0,0.1,0,0.2,0,0.4
			c-0.2,0.1-0.3,0.3-0.3,0.5c-0.3-0.1-0.6-0.1-0.7,0.1c-0.1,0.1,0,0.3,0.1,0.4c-1.6,1.4-5.8,6.2-5.9,18.3c0,0,1.7,1,6,1.2
			c0.1,0.5,0.2,0.9,0.4,1.4c-0.6,0.2-1.1,0.4-1.2,0.5c-3.1,2.1-4.2,5.2-4.8,8.8c-0.4,2.5-1,5-2.1,7.3c-0.9,1.9-2.7,5.2-4.9,5.8h10.1
			c0,0,0,0.1,0,0.1h12.8c4.3-16.2-3.5-22.2-4.8-23.1v-0.9h-0.1l0-0.2c0.4-0.1,0.9-0.1,1.4-0.2c0.4,0.5,1,1,1.7,1.4
			c0.9,2.8,2.9,3.1,3.4,3.1L95.6,40l0.2-0.1c0.1,3.2,0.5,10,1.6,16.1l-1.7,1.5l4.4,0l-0.2-1.4c0,0-0.6-10.4,0.2-15.4l3.7,15.4h0
			L103.6,57.4z M100.8,22.5L100.8,22.5c0.1-0.1,0.3-0.1,0.4-0.2L100.8,22.5z M92,31.1c0,0.3,0,0.5,0,0.8c-0.1-0.3-0.2-0.6-0.3-0.8
			H92z M90.3,14.3C90.3,14.3,90.3,14.3,90.3,14.3C90.3,14.3,90.3,14.3,90.3,14.3C90.3,14.3,90.3,14.3,90.3,14.3
			C90.3,14.3,90.3,14.3,90.3,14.3C90.3,14.3,90.3,14.3,90.3,14.3C90.3,14.3,90.3,14.3,90.3,14.3z M85.3,33.5c0.3,0,0.5,0,0.8,0v0.8
			c-0.2,0-0.3,0.1-0.6,0.2C85.4,34.2,85.3,33.8,85.3,33.5z M95.4,35.5C95.5,35.5,95.5,35.5,95.4,35.5c0.1,0-0.1-0.8-1.3-1.4
			c-0.2-0.3-0.3-0.7-0.3-1c0-1.2,0.9-3.1,1.5-4.3l0.2,0.9v0.2l0,0l0.6,3l-0.2,2.9C95.8,35.7,95.6,35.6,95.4,35.5z"/>
		<path class="st4" d="M168.5,194.3c0,2.5-2,4.5-4.5,4.5H15.2c-2.5,0-4.5-2-4.5-4.5l0,0c0-2.5,2-4.5,4.5-4.5h148.9
			C166.5,189.9,168.5,191.9,168.5,194.3L168.5,194.3z"/>
	</g>
</g>
</svg>
