<?xml version="1.0" encoding="utf-8"?>
<!-- Generator: Adobe Illustrator 20.1.0, SVG Export Plug-In . SVG Version: 6.00 Build 0)  -->
<svg version="1.1" id="Layer_1" xmlns="http://www.w3.org/2000/svg" xmlns:xlink="http://www.w3.org/1999/xlink" x="0px" y="0px"
	 viewBox="0 0 180 250" style="enable-background:new 0 0 180 250;" xml:space="preserve">
<style type="text/css">
	.st0{fill-rule:evenodd;clip-rule:evenodd;fill:#99DBF9;}
	.st1{fill:#F2C69E;}
	.st2{fill-rule:evenodd;clip-rule:evenodd;fill:#524F4D;}
	.st3{fill-rule:evenodd;clip-rule:evenodd;fill:#333333;}
	.st4{opacity:0.4;fill-rule:evenodd;clip-rule:evenodd;fill:#FFFFFF;}
	.st5{fill-rule:evenodd;clip-rule:evenodd;fill:#5B3D28;}
	.st6{fill-rule:evenodd;clip-rule:evenodd;fill:#FFFFFF;}
	.st7{fill-rule:evenodd;clip-rule:evenodd;fill:#EDE5D6;}
	.st8{fill:#EDE5D6;}
</style>
<g>
	<ellipse class="st0" cx="97.7" cy="125" rx="73" ry="103.9"/>
	<g>
		<path class="st1" d="M151.2,152.5v12.8c0,0,5.1-6.2,5.8-13.6L151.2,152.5z"/>
		<path class="st2" d="M146.5,222.9h10.1c0,0-7.8-76.2-10.5-84.8c-2.7-8.6-17.9-7.4-17.9-7.4l-15.8,16.3c0,0,0.6,40.8,6.8,75.8h10.9
			c0,0-2.3-43.8,0.8-64.8L146.5,222.9z"/>
		<path class="st3" d="M150,91.2l-4.7,15.5c1.9,15.6,5.1,47.5,5.1,47.5l6.8-0.6C162.1,105.5,150.2,91.3,150,91.2z"/>
		<g>
			<path class="st4" d="M52.2,228.8c3.4-14.4,21.3-97.2,21.4-97.2c0.2-0.6-13.7,4.2-14.7,4.9c-13.2,8.7-17.8,22-20.1,37
				c-1.6,10.6-4.1,21.2-8.8,30.9c-3.8,7.9-11.5,22-20.7,24.5H52.2z"/>
			<path class="st4" d="M79.2,45.1l-14.3-0.6c0,0-27.1,15.5-27.7,79.1c0,0,14.6,8.8,54.3,2.9C103.6,124.7,80.2,44.1,79.2,45.1z"/>
			<ellipse class="st1" cx="78.1" cy="69.3" rx="19" ry="19.3"/>
			<path class="st5" d="M78.5,45.1L78.5,45.1C78.4,45.1,78.4,45.1,78.5,45.1C78.4,45.1,78.4,45.1,78.5,45.1L78.5,45.1
				C49,46.2,59.2,70.4,59.2,70.4s13.4-3.5,19.2-10.9c5.9,7.4,19.2,10.9,19.2,10.9S105.3,46.5,78.5,45.1z"/>
			<circle class="st5" cx="78.1" cy="40.7" r="12"/>
			<g>
				<path class="st6" d="M93.1,47.7c1.2-0.8,1.7-1.9,1.3-2.7c-0.4-0.8-1.7-0.9-2.9-0.4c-0.1-1.4-0.8-2.5-1.7-2.5
					c-0.9,0-1.6,1-1.7,2.3c-1.2-0.6-2.5-0.5-3,0.3c-0.4,0.8,0.1,1.9,1.1,2.7c-1.2,0.8-1.7,1.9-1.3,2.7c0.4,0.8,1.7,0.9,2.9,0.4
					c0.1,1.4,0.8,2.5,1.7,2.5c0.9,0,1.6-1,1.7-2.3c1.2,0.6,2.5,0.5,3-0.3C94.6,49.6,94.1,48.5,93.1,47.7z M89.6,47.6
					C89.6,47.6,89.6,47.6,89.6,47.6C89.6,47.5,89.6,47.5,89.6,47.6C89.6,47.5,89.6,47.5,89.6,47.6C89.6,47.5,89.6,47.5,89.6,47.6
					C89.6,47.6,89.6,47.6,89.6,47.6C89.6,47.6,89.6,47.6,89.6,47.6z"/>
				<path class="st6" d="M81.5,47.7c1.2-0.8,1.7-1.9,1.3-2.7c-0.4-0.8-1.7-0.9-2.9-0.4c-0.1-1.4-0.8-2.5-1.7-2.5
					c-0.9,0-1.6,1-1.7,2.3c-1.2-0.6-2.5-0.5-3,0.3c-0.4,0.8,0.1,1.9,1.1,2.7c-1.2,0.8-1.7,1.9-1.3,2.7c0.4,0.8,1.7,0.9,2.9,0.4
					c0.1,1.4,0.8,2.5,1.7,2.5c0.9,0,1.6-1,1.7-2.3c1.2,0.6,2.5,0.5,3-0.3C83.1,49.6,82.6,48.5,81.5,47.7z M78.1,47.6
					C78.1,47.6,78.1,47.6,78.1,47.6C78.1,47.5,78.1,47.5,78.1,47.6C78.1,47.5,78.1,47.5,78.1,47.6C78.1,47.5,78.1,47.5,78.1,47.6
					C78.1,47.6,78.1,47.6,78.1,47.6C78.1,47.6,78.1,47.6,78.1,47.6z"/>
				<path class="st6" d="M70,47.7c1.2-0.8,1.7-1.9,1.3-2.7c-0.4-0.8-1.7-0.9-2.9-0.4c-0.1-1.4-0.8-2.5-1.7-2.5c-0.9,0-1.6,1-1.7,2.3
					c-1.2-0.6-2.5-0.5-3,0.3c-0.4,0.8,0.1,1.9,1.1,2.7c-1.2,0.8-1.7,1.9-1.3,2.7c0.4,0.8,1.7,0.9,2.9,0.4c0.1,1.4,0.8,2.5,1.7,2.5
					c0.9,0,1.6-1,1.7-2.3c1.2,0.6,2.5,0.5,3-0.3C71.6,49.6,71.1,48.5,70,47.7z M66.5,47.6C66.5,47.6,66.5,47.6,66.5,47.6
					C66.5,47.5,66.5,47.5,66.5,47.6C66.5,47.5,66.5,47.5,66.5,47.6C66.5,47.5,66.5,47.5,66.5,47.6C66.5,47.6,66.5,47.6,66.5,47.6
					C66.5,47.6,66.5,47.6,66.5,47.6z"/>
			</g>
			<g>
				<circle class="st6" cx="58.4" cy="71.2" r="2.7"/>
				<circle class="st6" cx="97.7" cy="71.2" r="2.7"/>
			</g>
			<rect x="73.8" y="81" class="st1" width="8.6" height="16.7"/>
			<path class="st1" d="M83.2,96.5h-5h-0.4h-5c0,0-13.7,5.4-14.9,12.4h19.8h0.4h19.8C96.9,102,83.2,96.5,83.2,96.5z"/>
			<g>
				<circle class="st6" cx="73" cy="97.7" r="2"/>
				<circle class="st6" cx="78.1" cy="99.2" r="1.8"/>
				<circle class="st6" cx="83.2" cy="97.7" r="2"/>
			</g>
			<polygon class="st6" points="69.3,117.9 73,132.1 84.7,132.1 86.8,117.7 			"/>
			<path class="st6" d="M105.7,229.1c19.5-74.3-20.7-97.6-20.7-97.6H73c0,0-39.2,14-21.3,97.6H105.7z"/>
			<path class="st1" d="M68.2,118.3h-7c0,0,0.4,30.3,18.9,33.1C80,151.4,65,135,68.2,118.3z"/>
			<polygon class="st6" points="56.5,107.8 98.3,107.8 99.9,118.3 56.2,118.3 			"/>
			<rect x="71.7" y="128" class="st7" width="14" height="4.7"/>
		</g>
		<ellipse class="st1" cx="128.8" cy="63.4" rx="19" ry="19.3"/>
		<path class="st5" d="M110.2,65.4c0,0,2.5-3.5,6-13.2c0,0,14.8,4.7,31.9,7c0,0,5.6-23.7-20.4-24.3C95.8,34.1,110.2,65.4,110.2,65.4
			z"/>
		
			<rect x="120.1" y="76.9" transform="matrix(1.353574e-02 -0.9999 0.9999 1.353574e-02 44.8513 209.3095)" class="st1" width="16.7" height="10.1"/>
		<path class="st8" d="M145.6,89.6c-3.9-2.1-7.5-3.3-7.5-3.3l-12.3-0.1l-0.5,0l-5.9-0.1c0,0-3.8,1.2-7.9,3.2V113l27.6,0.4
			L145.6,89.6z"/>
		<path class="st3" d="M119.4,85.5l10.1,25.6l-0.9,36.8l-16.9,7.8l2.5-29.8l-7-34.7C107.2,91.2,115.2,86.8,119.4,85.5z"/>
		<path class="st3" d="M137.9,85.5l-10.1,25.6l0.9,36.8l20.4,6.6l-3.1-29.2l4.1-34.4C150,90.9,142.1,86.8,137.9,85.5z"/>
		<path class="st3" d="M104.5,126.5c0-7.8,8.6-22.2,8.6-22.2l-5.8-13.1c0,0-14.8,13.4-9.7,37.8c3.5,16.9,15.6,16.5,15.6,16.5
			l1.9-6.2C115,139.3,104.5,134.2,104.5,126.5z"/>
		<polygon class="st2" points="119.4,85.5 113.9,87.2 107.2,91.2 128.6,122.6 128.6,109.4 		"/>
		<polygon class="st2" points="137.9,85.5 143.4,87.2 150,91.2 128.6,122.6 128.6,109.4 		"/>
		<path class="st1" d="M86.8,117.7c0,0,2.2,15.4,24.7,19.3c0,0-0.8-4.7-8.2-7c-5.2-1.6-8.2-12.3-8.2-12.3H86.8z"/>
		<polygon class="st6" points="122.4,82.9 113.9,87.2 126.5,94.4 129,86.8 		"/>
		<polygon class="st6" points="134.9,82.9 143.4,87.2 130.8,94.4 128.2,86.8 		"/>
		<polygon class="st3" points="135.6,81.3 128.5,84.2 121.4,81.3 123.3,91.6 128.5,87.4 133.8,91.6 		"/>
		<polygon class="st3" points="130.2,222.9 119.3,222.9 112.3,229.1 131,228.9 		"/>
		<polygon class="st3" points="146.3,222.9 156.6,222.9 164.2,229.1 145.6,228.9 		"/>
		<path class="st6" d="M143.4,107.9c1.2-0.8,1.7-1.9,1.3-2.7c-0.4-0.8-1.7-0.9-2.9-0.4c-0.1-1.4-0.8-2.5-1.7-2.5
			c-0.9,0-1.6,1-1.7,2.3c-1.2-0.6-2.5-0.5-3,0.3c-0.4,0.8,0.1,1.9,1.1,2.7c-1.2,0.8-1.7,1.9-1.3,2.7c0.4,0.8,1.7,0.9,2.9,0.4
			c0.1,1.4,0.8,2.5,1.7,2.5c0.9,0,1.6-1,1.7-2.3c1.2,0.6,2.5,0.5,3-0.3C145,109.8,144.5,108.7,143.4,107.9z M139.9,107.8
			C139.9,107.8,139.9,107.8,139.9,107.8C139.9,107.8,139.9,107.8,139.9,107.8C139.9,107.8,139.9,107.8,139.9,107.8
			C139.9,107.8,139.9,107.8,139.9,107.8C139.9,107.8,139.9,107.8,139.9,107.8C139.9,107.8,139.9,107.8,139.9,107.8z"/>
	</g>
</g>
</svg>
