<?xml version="1.0" encoding="utf-8"?>
<!-- Generator: Adobe Illustrator 20.1.0, SVG Export Plug-In . SVG Version: 6.00 Build 0)  -->
<svg version="1.1" id="Layer_1" xmlns="http://www.w3.org/2000/svg" xmlns:xlink="http://www.w3.org/1999/xlink" x="0px" y="0px"
	 viewBox="0 0 180 250" style="enable-background:new 0 0 180 250;" xml:space="preserve">
<style type="text/css">
	.st0{fill-rule:evenodd;clip-rule:evenodd;fill:#99DBF9;}
	.st1{fill-rule:evenodd;clip-rule:evenodd;fill:#524F4D;}
	.st2{fill-rule:evenodd;clip-rule:evenodd;fill:#EDE5D6;}
	.st3{fill-rule:evenodd;clip-rule:evenodd;fill:#FFFFFF;}
</style>
<g>
	<ellipse class="st0" cx="89.7" cy="125" rx="73" ry="103.9"/>
	<g>
		<g>
			<path class="st1" d="M146.1,134c-1.4-2.2-32.1,17.6-40.6,2.6c-3.7-6.5,4.8-12.7-5.9-15.2c-4.3-1-8.4,1.1-12.1,4.2
				c1.4-5.8,2.1-11.6,0.8-17.8c-0.2-1-1.5-1.8-2.5-1.4c-7.6,2.9-9.7,9.6-10.1,16.9c-0.5-1.3-1-2.6-1.4-3.9
				c-1.5-3.9-4.5-13.7-10-13.3c-6.5,0.4-5.4,11.1-3.6,14.9c2.2,4.6,5.3,8.6,8.5,12.5c2,2.5,4.6,5,6.4,7.8
				c-29.6,24.9-54.1,33.7-54.1,33.7v6.7c0,0,25.8,2.2,44.1,0c18.3-2.2,44.9-11.9,44.9-11.9v9.7h44.1v-9.7
				C160.3,154.1,146.1,134,146.1,134z M84.9,111.3c0.9,7.1-1.1,13.8-3.1,20.5c-0.6,0.8-1.2,1.7-1.8,2.5
				C79.3,126,78.4,115.6,84.9,111.3z M68,125.4c-2.1-2.9-4-6.1-4.9-9.7c-0.3-1.3,0.7-6.4,1.8-5.5c4.1,3.3,5.9,10.8,7.5,15.6
				c0.9,2.6,1.7,5.2,2.4,7.8C72.5,130.8,70,128.2,68,125.4z"/>
			<g>
				<g>
					<polygon class="st2" points="34.4,144.3 45.4,183.3 53.4,183.3 58.4,152.3 					"/>
					<path class="st3" d="M34.4,144.3c0,0,43,10,61,39l60-1c0,0-24-14-45-26c0,0-25,15-65-44C45.4,112.3,20.4,115.3,34.4,144.3z"/>
				</g>
				<path class="st2" d="M124.7,156.2c3.2-2.1,4.8-5.5,3.5-7.7c-1.2-2.1-4.7-2.5-8-1c-0.2-3.9-2.3-6.9-4.9-6.9
					c-2.5,0-4.5,2.8-4.9,6.5c-3.5-1.7-7.1-1.4-8.4,0.8c-1.2,2.1,0.2,5.3,3.2,7.4c-3.2,2.1-4.8,5.5-3.5,7.7c1.2,2.1,4.7,2.5,8,1
					c0.2,3.9,2.3,6.9,4.9,6.9c2.5,0,4.5-2.8,4.9-6.5c3.4,1.7,7.1,1.4,8.4-0.8C129.1,161.5,127.7,158.3,124.7,156.2z M114.9,155.8
					C114.9,155.8,114.9,155.8,114.9,155.8C114.9,155.7,114.9,155.7,114.9,155.8C114.9,155.7,114.9,155.7,114.9,155.8
					C114.9,155.7,114.9,155.7,114.9,155.8C114.9,155.8,114.9,155.8,114.9,155.8C114.9,155.8,114.9,155.8,114.9,155.8z"/>
			</g>
		</g>
		<g>
			<path class="st2" d="M101.3,52.2c-5-8.6-10.4,0.5-12.7,6.5c-2.4-6-7.7-15.1-12.7-6.5c-4.5,7.7,6.3,39.6,12.8,51.5
				C95.3,91.9,105.8,59.9,101.3,52.2z"/>
		</g>
	</g>
</g>
</svg>
