<?xml version="1.0" encoding="utf-8"?>
<!-- Generator: Adobe Illustrator 20.1.0, SVG Export Plug-In . SVG Version: 6.00 Build 0)  -->
<svg version="1.1" id="Layer_1" xmlns="http://www.w3.org/2000/svg" xmlns:xlink="http://www.w3.org/1999/xlink" x="0px" y="0px"
	 viewBox="0 0 180 250" style="enable-background:new 0 0 180 250;" xml:space="preserve">
<style type="text/css">
	.st0{fill-rule:evenodd;clip-rule:evenodd;fill:#99DBF9;}
	.st1{fill:#DCD2C2;}
	.st2{fill-rule:evenodd;clip-rule:evenodd;fill:#EDE5D6;}
	.st3{fill-rule:evenodd;clip-rule:evenodd;fill:#FFFFFF;}
</style>
<g>
	
		<ellipse transform="matrix(0.9999 -1.018745e-02 1.018745e-02 0.9999 -1.269 0.9204)" class="st0" cx="89.7" cy="125" rx="73" ry="103.9"/>
	<g>
		<g>
			<path class="st1" d="M138.6,126.6c-7-9.9-18.5-15.8-30.7-15.7c-7.5,0.1-14.8,2.4-20.9,6.8c-16.7,11.8-20.7,34.9-8.9,51.6
				c7,9.9,18.5,15.8,30.7,15.7c0,0,0,0,0,0c7.5-0.1,14.8-2.4,20.9-6.8c8.1-5.7,13.5-14.2,15.1-24
				C146.5,144.5,144.3,134.7,138.6,126.6z M134.4,152.5c-1.2,7-5,13-10.8,17.1c-4.4,3.1-9.6,4.8-15,4.8c-8.7,0.1-16.9-4.1-21.9-11.2
				c-4.1-5.8-5.7-12.8-4.5-19.8c1.2-7,5-13,10.8-17.1c4.4-3.1,9.6-4.8,15-4.8c8.7-0.1,16.9,4.1,21.9,11.2
				C134,138.5,135.6,145.5,134.4,152.5z"/>
			<g>
				<path class="st2" d="M52.4,106.7c-16.3,11.5-20.2,34-8.7,50.3c11.5,16.3,34,20.2,50.3,8.7c16.3-11.5,20.2-34,8.7-50.3
					C91.2,99.1,68.7,95.2,52.4,106.7z M89,158.6c-12.4,8.7-29.4,5.8-38.2-6.6c-8.7-12.4-5.8-29.4,6.6-38.2
					c12.4-8.7,29.4-5.8,38.2,6.6C104.3,132.8,101.3,149.8,89,158.6z"/>
				<path class="st2" d="M39.9,110.5c3.9,4.5,11.1,5.1,16.6,1.2c5.5-3.9,7.4-10.9,4.4-16.1L39.9,110.5z"/>
				<polygon class="st3" points="41.2,109.6 59.9,96.4 54.6,85.5 43.3,84.9 34.1,91.4 31.7,101.6 				"/>
			</g>
		</g>
		<path class="st3" d="M102.3,35.8c-5.9-9.9-12,0.7-14.6,7.7c-2.8-6.9-9.1-17.4-14.8-7.4c-5.1,8.9,7.6,45.7,15.3,59.4
			C95.7,81.7,107.6,44.6,102.3,35.8z"/>
	</g>
</g>
</svg>
