<?xml version="1.0" encoding="utf-8"?>
<!-- Generator: Adobe Illustrator 21.0.0, SVG Export Plug-In . SVG Version: 6.00 Build 0)  -->
<svg version="1.1" id="Layer_1" xmlns="http://www.w3.org/2000/svg" xmlns:xlink="http://www.w3.org/1999/xlink" x="0px" y="0px"
	 viewBox="0 0 700 295" style="enable-background:new 0 0 700 295;" xml:space="preserve">
<style type="text/css">
	.st0{font-family:'RissaTypeface';}
	.st1{font-size:252.0375px;}
</style>
<g>
	<text transform="matrix(1 0 0 1 19.0723 187.5163)" class="st0 st1">Our Story</text>
	<path d="M290.2,211.7l-1,3.4l-3.4-0.5c-0.7-0.1-1.4-0.2-2.1-0.3c-0.4,0-0.7-0.1-1.1-0.1c-0.4,0-0.7-0.1-1.1-0.1
		c-0.7-0.1-1.5-0.1-2.3-0.2c-0.8,0-1.6-0.1-2.4-0.1c-0.8,0-1.7,0-2.5,0c-0.4,0-0.9,0-1.3,0c-0.4,0-0.9,0-1.3,0.1
		c-0.9,0-1.8,0.1-2.7,0.1c-0.5,0-0.9,0.1-1.4,0.1c-0.5,0-0.9,0.1-1.4,0.1c-0.9,0.1-1.9,0.2-2.8,0.3c-0.9,0.2-1.9,0.3-2.9,0.5
		c-0.5,0.1-1,0.2-1.5,0.2c-0.2,0-0.5,0.1-0.7,0.1l-0.7,0.2c-1,0.2-1.9,0.4-2.9,0.6l-1.5,0.3c-0.5,0.1-1,0.3-1.4,0.4
		c-1,0.3-1.9,0.5-2.9,0.8c-0.5,0.1-1,0.3-1.4,0.4c-0.5,0.1-0.9,0.3-1.4,0.5c-0.9,0.3-1.9,0.6-2.8,0.9c-1.9,0.6-3.7,1.3-5.5,1.9
		c-2.4,0.8-4.8,1.9-7.1,2.9c-0.6,0.2-1.1,0.5-1.7,0.7c-0.6,0.3-1.1,0.5-1.6,0.8c-1.1,0.5-2.1,1-3.1,1.5c-2,0.9-3.8,1.9-5.3,2.7
		c-1.5,0.8-2.8,1.3-3.7,1.7c-1.7,0.9-3.4,2-5.2,3.1c-0.4,0.3-0.9,0.5-1.3,0.8c-0.2,0.1-0.4,0.3-0.7,0.4c-0.2,0.1-0.4,0.3-0.6,0.4
		c-0.8,0.6-1.7,1.1-2.4,1.6c-1.6,1-3,2-4.2,2.7c-1.2,0.7-2.1,1.3-2.6,1.4c0.7-0.5,1.4-1,2.1-1.5c0.7-0.5,1.4-0.9,2.1-1.4
		c1.4-0.9,2.9-1.8,4.3-2.8l1.1-0.7l1.1-0.7c0.8-0.4,1.5-0.9,2.3-1.3c0.8-0.4,1.5-0.9,2.3-1.3c0.8-0.4,1.5-0.9,2.3-1.3
		c3.1-1.7,6.2-3.4,9.4-4.9c0.8-0.4,1.6-0.8,2.4-1.2c0.4-0.2,0.8-0.4,1.2-0.6l1.2-0.5c1.6-0.7,3.2-1.4,4.8-2.1
		c6.4-2.6,12.9-4.7,19-6.2c1.5-0.3,3.1-0.7,4.5-1c1.5-0.3,3-0.5,4.4-0.8c0.7-0.1,1.4-0.2,2.1-0.3c0.7-0.1,1.4-0.2,2.1-0.3
		c1.4-0.2,2.7-0.3,4-0.4c-0.5,0-1,0-1.6,0c-0.3,0-0.6,0-0.9,0c-0.3,0-0.6,0.1-1,0.1c-1.3,0.1-2.8,0.3-4.2,0.4
		c-1.4,0.2-2.8,0.4-4.1,0.6c-0.3,0-0.6,0.1-0.9,0.1c-0.3,0-0.6,0.1-0.8,0.1c-0.5,0.1-1,0.2-1.4,0.2c0.5-0.1,0.9-0.2,1.3-0.3
		c0.4-0.1,0.8-0.2,1.2-0.3c0.8-0.1,1.5-0.3,2.2-0.4c-0.8,0-2.7,0.2-4.8,0.6c-1,0.2-2.1,0.4-3.1,0.6c-1,0.2-1.9,0.5-2.7,0.6
		c0-0.1,1-0.4,2.1-0.7c1.1-0.3,2.3-0.5,2.6-0.6c-6.1,1.2-12.3,2.8-18.5,5.1c-0.6,0.3-1.4,0.6-2.3,0.9c-0.9,0.4-1.9,0.8-2.9,1.2
		c-1,0.4-2,0.8-2.8,1.1c-0.2,0.1-0.4,0.2-0.6,0.2c-0.2,0.1-0.4,0.2-0.5,0.2c-0.3,0.1-0.6,0.3-0.9,0.3c-0.7,0.4-1.8,1-3.1,1.6
		c-1.3,0.6-2.6,1.3-3.5,1.7c1.4-0.8,2.5-1.3,3.3-1.8c0.8-0.5,1.4-0.9,1.8-1.2c-0.7,0.2-1.9,0.7-3.3,1.3c-0.3,0.2-0.7,0.3-1.1,0.5
		c-0.4,0.2-0.7,0.4-1.1,0.6c-0.7,0.4-1.5,0.8-2.3,1.2c-0.8,0.4-1.5,0.8-2.3,1.2c-0.7,0.4-1.5,0.7-2.1,1.1c-1.3,0.7-2.4,1.3-3.1,1.5
		c-0.7,0.5-1.5,0.9-2.4,1.5c-0.4,0.3-0.9,0.5-1.3,0.8c-0.4,0.3-0.9,0.6-1.3,0.8c-1.7,1.1-3.5,2.3-5.1,3.3c-0.4,0.3-0.8,0.5-1.2,0.7
		c-0.4,0.2-0.7,0.5-1.1,0.7c-0.7,0.4-1.3,0.8-1.8,1.1c-0.6,0.4-1.1,0.6-1.4,0.7c40.4-28.2,71-33,92.2-29.9c0.2-0.6,0.3-1.3,0.5-1.9
		c0,0,0.1,0,0.1,0c0,0-0.1,0-0.1,0c0.2-0.6,0.3-1.2,0.5-1.7c-2.4-0.5-4.9-1-7.4-1.5c0.2,0,0.4,0,0.1-0.1c-0.6-0.2-2.6-0.4-3.4-0.8
		c1.3,0,4.6,0.5,3.1-0.2c0.1-0.1-3-0.6-2.9-0.7c0.7,0,1.8,0.4,2,0.4c-1.4-0.4-3.6-1.1-1.8-0.9c-1.4-0.3-2.4-0.6-2.9-0.8
		c0.6,0.1,1.1,0.3,1,0.2c-3.8-1.1-4-1.5-7.5-2.6c2,0.5,3.2,0.9,4.3,1.1c0-0.3-3.8-1.3-2.7-1.3c1.9,0.4,1.9,0.6,3.3,0.9
		c-0.2-0.3-1.2-0.7-2.6-1.2c-0.7-0.2-1.5-0.5-2.3-0.7c-0.8-0.2-1.7-0.5-2.6-0.8c-0.1,0,0-0.1,0.2,0c0,0,0.1,0,0.1,0l0,0l0.1,0l0,0
		l0,0l0,0l0.1,0c0.1,0,0.2,0,0.2,0c0.3,0.1,0.5,0.1-0.1-0.1c-0.6-0.2-1-0.3-1.4-0.4c-0.4-0.1-0.7-0.2-1.1-0.3
		c-0.8-0.2-1.7-0.4-3.3-0.8c-5.2-1.5-10.4-3-16.4-4.3c-4.6-1-10.6-1.9-17.3-2.5c-6.7-0.6-14-0.8-21.4-0.4c-8.8,0.4-18.1,1.6-27,3.8
		c-9,2.2-17.8,5.3-25.6,9.1c-10.9,5.3-21.5,12.3-31.1,20.9c-4.8,4.3-9.4,9-13.6,14c-2.1,2.5-4.2,5.1-6.1,7.9c-1,1.4-1.9,2.8-2.8,4.2
		c-0.5,0.7-0.9,1.4-1.4,2.2l-0.7,1.1l-0.3,0.6l-0.4,0.7l-0.7,1.3l0,1.6v0.4l0,0.3l0,0.5c0,0.4,0,0.7,0.1,1c0.1,0.7,0.1,1.3,0.3,2
		c0.2,1.3,0.5,2.6,0.9,3.9c0.8,2.6,1.9,5.2,3.6,7.6c0.8,1.2,1.8,2.4,2.9,3.4c1.1,1.1,2.3,2,3.6,2.9c0.6,0.4,1.3,0.8,2,1.2
		c0.7,0.3,1.4,0.7,2.1,0.9c1.4,0.6,2.8,1,4.2,1.3c2.8,0.6,5.6,0.8,8.3,0.8c2.7,0,5.2-0.3,7.7-0.8c1.2-0.2,2.4-0.5,3.6-0.8
		c1.2-0.3,2.4-0.6,3.5-0.9c1.2-0.3,2.3-0.7,3.4-1.1c0.6-0.2,1.1-0.4,1.7-0.6c0.6-0.2,1.1-0.4,1.7-0.6c8.8-3.3,16.9-7.6,24.7-12.1
		c3.9-2.3,7.7-4.6,11.4-7.1c3.7-2.4,7.4-4.9,11-7.4c1-0.7,2.1-1.5,3.1-2.2c1-0.7,2-1.4,3-2.1c1-0.7,2.1-1.4,3.1-2.1c1-0.7,2-1.4,3-2
		c1.9-1.2,3.8-2.5,5.6-3.6c0.4-0.3,0.9-0.6,1.4-0.8c0.5-0.3,0.9-0.5,1.3-0.8c0.9-0.5,1.7-1,2.5-1.5c0.5-0.3,1-0.6,1.5-0.9l0.7-0.5
		c0.2-0.2,0.5-0.3,0.8-0.4c1-0.6,2-1.2,3.1-1.8c1-0.6,2.1-1.2,3.2-1.8c1.1-0.6,2.3-1.2,3.6-1.8c0.3-0.4,1.2-1,1.9-1.5
		c0.3-0.3,0.6-0.5,0.8-0.7c0.1-0.2,0.1-0.3-0.2-0.3c-1.6,0.6-3.8,1.5-6,2.4c-0.5,0.2-1.1,0.4-1.5,0.6c-0.5,0.2-1,0.4-1.4,0.6
		c-0.9,0.4-1.7,0.7-2.3,1c2.1-1.1,4-2.1,5.7-2.9c1.7-0.8,3.3-1.6,4.7-2.3c1.4-0.7,2.7-1.3,3.9-1.9c1.2-0.6,2.3-1.2,3.4-1.6
		c-1.2,0.4-2.6,1.1-4,1.7c-0.7,0.3-1.4,0.6-2.1,0.9c-0.7,0.3-1.3,0.5-1.9,0.8c0.1-0.1,0.3-0.2,0.5-0.3c0.2-0.1,0.4-0.2,0.6-0.3
		c0.5-0.2,1-0.4,1.5-0.7c1.1-0.5,2.1-0.9,2.7-1.2c-0.2,0-2.5,0.7-1.5,0.2c1-0.4,2.1-0.9,3.2-1.3c1.1-0.4,2.1-0.8,3.2-1.2
		c0.5-0.2,1.1-0.4,1.6-0.6c0.5-0.2,1.1-0.4,1.6-0.6c1.1-0.4,2.2-0.7,3.3-1.1c0.6-0.2,1.1-0.4,1.7-0.5c0.6-0.2,1.1-0.3,1.7-0.5
		c1.1-0.3,2.3-0.6,3.4-0.9l0.8-0.2l0.9-0.2l1.7-0.4l1.7-0.4c0.6-0.1,1.1-0.3,1.7-0.3c2.3-0.3,4.6-0.8,6.9-1c0.6-0.1,1.1-0.1,1.7-0.2
		l0.9-0.1l0.9,0c1.1-0.1,2.3-0.1,3.4-0.2c4.5-0.1,8.9,0.1,13.1,0.6l3.8,0.5l0.9-3.6c0.3-1.3,0.6-2.4,0.9-3.6
		C291.1,209.1,290.7,210.3,290.2,211.7z M237.8,195.9c0.6,0.1,1.2,0.2,1.7,0.3c1.2,0.2,2.4,0.4,3.5,0.6c2.7,0.3,5.2,0.8,8.9,1.6
		c-3.8-0.5-10.9-2.1-15.8-2.7C236.6,195.8,237.2,195.8,237.8,195.9z M218,194.2c1.7,0,3.5,0.1,5.2,0.2c1.8,0.1,3.5,0.3,5,0.4
		c1.5,0.2,2.9,0.3,3.8,0.5c-5.7-0.7-12.4-1.1-18.6-1.1C214.8,194.1,216.4,194.2,218,194.2z M125.1,226.8c0.8-0.7,2-1.8,3.1-2.7
		c1.1-0.9,2.1-1.7,2.3-1.8c-0.3,0.3-0.4,0.3-0.4,0.3c-0.7,0.5-2.1,1.7-3.2,2.7C125.8,226.3,124.9,227,125.1,226.8z"/>
</g>
</svg>
