<?xml version="1.0" encoding="utf-8"?>
<!-- Generator: Adobe Illustrator 20.1.0, SVG Export Plug-In . SVG Version: 6.00 Build 0)  -->
<svg version="1.1" id="Layer_1" xmlns="http://www.w3.org/2000/svg" xmlns:xlink="http://www.w3.org/1999/xlink" x="0px" y="0px"
	 viewBox="0 0 180 250" style="enable-background:new 0 0 180 250;" xml:space="preserve">
<style type="text/css">
	.st0{fill-rule:evenodd;clip-rule:evenodd;fill:#99DBF9;}
	.st1{fill-rule:evenodd;clip-rule:evenodd;fill:#FFFFFF;}
	.st2{fill-rule:evenodd;clip-rule:evenodd;fill:#DCD2C2;}
	.st3{fill-rule:evenodd;clip-rule:evenodd;fill:#524F4D;}
	.st4{fill-rule:evenodd;clip-rule:evenodd;fill:#2D2A28;}
	.st5{fill-rule:evenodd;clip-rule:evenodd;fill:#918A87;}
</style>
<g>
	<ellipse class="st0" cx="89.7" cy="125" rx="73" ry="103.9"/>
	<g>
		<g>
			
				<rect x="80.3" y="74.8" transform="matrix(0.3248 -0.9458 0.9458 0.3248 -20.5068 184.3596)" class="st1" width="77.2" height="63.5"/>
			
				<rect x="94.3" y="72.9" transform="matrix(0.3248 -0.9458 0.9458 0.3248 -12.5418 181.9881)" class="st2" width="53.8" height="53.8"/>
		</g>
		<g>
			
				<rect x="62.5" y="54.8" transform="matrix(0.2027 -0.9792 0.9792 0.2027 -4.0857 168.0152)" class="st1" width="77.2" height="63.5"/>
			
				<rect x="75.7" y="52.6" transform="matrix(0.2027 -0.9792 0.9792 0.2027 3.9282 163.85)" class="st2" width="53.8" height="53.8"/>
		</g>
		<g>
			<rect x="32.8" y="114" class="st3" width="92.2" height="60"/>
			<rect x="65.5" y="108" class="st4" width="19.5" height="6.2"/>
			<g>
				<circle class="st5" cx="93.6" cy="144" r="21.5"/>
				<circle class="st4" cx="93.6" cy="144" r="15.7"/>
			</g>
			<rect x="40.1" y="106.3" class="st4" width="17.7" height="8"/>
			<rect x="44.1" y="126.3" class="st4" width="23.5" height="6.9"/>
			<circle class="st4" cx="48.6" cy="141.7" r="4"/>
			<rect x="59.8" y="75.1" class="st3" width="30" height="34.3"/>
			<rect x="64.7" y="79.7" class="st5" width="20" height="24.6"/>
		</g>
	</g>
</g>
</svg>
