<?xml version="1.0" encoding="utf-8"?>
<!-- Generator: Adobe Illustrator 21.0.0, SVG Export Plug-In . SVG Version: 6.00 Build 0)  -->
<svg version="1.1" id="Layer_1" xmlns="http://www.w3.org/2000/svg" xmlns:xlink="http://www.w3.org/1999/xlink" x="0px" y="0px"
	 viewBox="0 0 1032 611" style="enable-background:new 0 0 1032 611;" xml:space="preserve">
<style type="text/css">
	.st0{font-family:'RissaTypeface';}
	.st1{font-size:404.0408px;}
</style>
<text transform="matrix(1 0 0 1 85.5469 313.1367)" class="st0 st1">Registry</text>
<g>
	<path d="M96.2,488.8c-0.4,0.3-1.8,0.9-4.4,1.9c1.7,0,5.3-1.5,13.7-4.9C105,485.6,101.9,486.6,96.2,488.8z"/>
	<path d="M205.5,546.4c1.1-0.5,2.6-1.2,4.4-1.9c1.8-0.7,3.8-1.6,5.7-2.4c3.9-1.6,7.7-3.2,9.4-3.9c-6.9,2.8-7.3,3-15.3,6.3
		C212.5,543.4,202.8,547.5,205.5,546.4z"/>
	<path d="M138.1,576C138.1,576,138.1,576,138.1,576C138.1,576,138.1,576,138.1,576C138.1,576,138.1,576,138.1,576z"/>
	<path d="M60.9,506.4c-0.3,0.1-0.6,0.2-0.9,0.4C60.2,506.7,60.6,506.6,60.9,506.4z"/>
	<path d="M121.7,585.1c-0.6,0.2-1.2,0.4-1.8,0.6C120.6,585.4,121.2,585.2,121.7,585.1z"/>
	<path d="M122.6,584.7c-0.2,0.1-0.3,0.1-0.5,0.2c-0.1,0-0.3,0.1-0.4,0.2C122,584.9,122.3,584.8,122.6,584.7z"/>
	<path d="M61.7,567.2c-0.7-0.8-1.4-1.5-2.1-2.2C60.3,565.6,61,566.4,61.7,567.2z"/>
	<path d="M119.6,585.7c0.1,0,0.2-0.1,0.3-0.1c-0.3,0.1-0.6,0.2-0.9,0.3C119.3,585.8,119.4,585.8,119.6,585.7z"/>
	<path d="M100.6,587.8c-0.7-0.1-1.4-0.1-2.1-0.2C99.2,587.7,99.9,587.8,100.6,587.8z"/>
	<path d="M1010.7,474.3l-0.2-0.1l-2.4-0.7c0.6,0.3,1.1,0.6,1.6,0.9c0.2,0.1,0.4,0.2,0.5,0.3c0.3,0.1,0.6,0.2,0.9,0.3l0.1,0
		c-0.1-0.1-0.1-0.1-0.2-0.2C1011,474.7,1010.9,474.5,1010.7,474.3z"/>
	<path d="M1001.3,470.2c0.3,0.1,0.6,0.2,0.9,0.3c-0.7-0.3-1.3-0.5-2-0.8L1001.3,470.2z"/>
	<path d="M1022.1,456.3l0.1,0l0.1,0L1022.1,456.3l-0.2-0.1c-0.1,0-0.1,0-0.1,0l0,0c0,0-0.1,0-0.1,0l0,0c0,0-0.1,0-0.2,0l-0.4-0.1
		c0.2,0.1,0.5,0.3,0.7,0.4L1022.1,456.3l0.4,0.1C1022.2,456.3,1022,456.3,1022.1,456.3z"/>
	<path d="M1022.8,456.4l-0.1,0l-0.1,0h0l0,0C1022.8,456.4,1023.3,456.5,1022.8,456.4z"/>
	<path d="M1022.7,456.4c-0.1,0-0.1,0-0.2,0l-0.2,0l0.2,0L1022.7,456.4z"/>
	<path d="M1022.9,456.4C1022.9,456.4,1022.9,456.4,1022.9,456.4l-0.2,0h0C1022.8,456.4,1022.9,456.4,1022.9,456.4
		C1022.9,456.4,1022.9,456.4,1022.9,456.4z"/>
	<path d="M928.5,461.1c0,0.4,1.6,1.1,4.7,2.1c0.3,0,1.1,0.2,2.5,0.6C935.2,463,933.2,462.5,928.5,461.1z"/>
	<path d="M952.5,462.9c-2.6-0.7-5.9-1.6-9.4-2.5c-2.8-0.7-5.8-1.5-8.7-2.2c0.1,0,0.2,0.1,0.3,0.1
		C940.9,459.9,946.9,461.4,952.5,462.9z"/>
	<path d="M831.9,440.6c3.6,0.5,7.8,1,12,1.5c-0.1,0-0.2,0-0.3-0.1C839.4,441.5,834.1,440.8,831.9,440.6z"/>
	<path d="M855.8,443.7c-3.6-0.5-7.7-1-11.9-1.6c0,0,0,0-0.1,0c0.2,0.1,0.5,0.1,0.7,0.2c0.2,0,0.5,0.1,0.7,0.1
		C849,442.8,852.5,443.3,855.8,443.7z"/>
	<path d="M792.8,436.8c-2-0.3-3.9-0.6-5.9-0.9c-2-0.3-3.9-0.5-5.9-0.8c-0.5-0.1-1-0.1-1.5-0.2c-1.4-0.1-2.8-0.2-4.1-0.3
		c-1.4-0.1-2.8-0.2-4.3-0.3c-1.4-0.1-2.8-0.1-4.2-0.2c-2.8-0.1-5.5-0.3-8.1-0.4c-2.6-0.1-5.1-0.3-7.4-0.4c-2.3-0.1-4.4-0.2-6.3-0.2
		c-3.8-0.2-6.6-0.3-8-0.6c4.6,0.2,9.3,0.3,14,0.5c4.7,0.2,9.4,0.5,14.2,0.7c2.4,0.1,4.8,0.2,7.2,0.4c1.5,0.1,3.1,0.2,4.6,0.3
		c-2.6-0.3-5.1-0.7-7.7-1c-9.3-1.2-18.7-2.2-28.4-3.3c-4.5-0.2-8-0.5-9.6-0.7c1.8,0.1,3.5,0.1,5.3,0.2c1.4,0.2,2.9,0.3,4.3,0.5
		c2.1,0.1,4.5,0.2,6.9,0.4c1.3,0.1,2.6,0.1,4,0.2c1.3,0.1,2.7,0.2,4.1,0.3c2.8,0.2,5.6,0.3,8.4,0.5c2.8,0.2,5.6,0.3,8.3,0.5
		c2.7,0.2,5.2,0.4,7.5,0.6c2,0.2,5.3,0.6,9.3,0.9c4,0.4,8.7,0.9,13.4,1.4c2.3,0.2,4.7,0.5,7,0.7c2.3,0.3,4.4,0.5,6.4,0.8
		c2.3,0.3,4.4,0.6,6.1,0.8c-2-0.4-4.1-0.9-6.1-1.3c3.1,0.4,6.1,0.7,9.1,1.1c2,0.5,4,0.9,6.2,1.4c1.1,0.2,2.3,0.5,3.6,0.8
		c2.5,0.3,5.5,0.8,8.5,1.2c5.8,0.9,11.8,1.8,15.1,2.2c17.8,2.9,34.8,6.1,51.2,9.7c-0.9-0.2-4.2-0.9-7.2-1.5c-1.5-0.3-3-0.6-4.1-0.8
		c-0.5-0.1-1-0.2-1.3-0.2c-0.3-0.1-0.5-0.1-0.5-0.1c4.2,0.8,10.3,2.2,15.9,3.4c5.6,1.3,10.7,2.4,12.7,3c-3.7-0.9-8.1-1.8-13-2.9
		c4.4,1,11.8,2.7,19.4,4.5c0.8,0.2,1.6,0.4,2.5,0.6c-1-0.5-2-1-3.1-1.4c8.6,2.2,16,4.2,22.3,6c3,0.9,5.7,1.8,8.1,2.3
		c8.8,2.6,14.2,4.3,15.9,4.6c15.9,2.4-9.2-9.4-10.9-10.2c1.3,0.6,2.6,1.2,3.9,1.8c-1.5-0.7-2.8-1.3-4-1.9c-6.2-2-12.4-3.9-18.6-5.8
		c0.3,0,0.3-0.1-0.2-0.4c-1.6-0.7-6.7-1.6-8.8-2.8c3.7,0.1,12.4,1.9,8.9-0.5c0.2-0.2-7.9-2-7.5-2.5c1.8,0.2,4.7,1.6,5.2,1.4
		c-3.5-1.6-9.1-3.9-4.3-3.2c-3.7-1-6.5-1.9-7.6-2.5c1.6,0.4,3.1,0.8,2.7,0.5c-2.5-0.9-4.4-1.5-6-2.2c-1.6-0.6-2.8-1.2-4.1-1.8
		c-2.5-1.2-4.9-2.4-9.6-3.9c5.5,1.3,8.6,2.7,11.6,3.2c0.1-1.1-10.1-3.9-6.9-4.2c5.1,1.2,5.1,2,9,2.6c-0.3-1-3-2.3-6.7-3.7
		c-1.9-0.7-4-1.4-6.2-2.1c-2.2-0.7-4.6-1.4-6.9-2.2c-0.5-0.6,4.7,0.8,1.6-0.4c-2.9-0.9-4.6-1.4-6.7-1.9c-2.1-0.6-4.5-1.2-8.9-2.2
		c-6.8-2.1-13.5-4.3-20.5-6.4c-3.5-1.1-7.1-2.2-10.8-3.3c-3.7-1.1-7.5-2.1-11.4-3.2c-22.2-6-56.4-12.4-91.6-17.1
		c-1.1-0.2-83.8-13.1-178.3-12.6c-0.4,0-0.9,0-1.3,0c-16,0-16.1,0.1-16.1,0.1v0c-6.2,0.2-12.5,0.5-18.6,0.8c-0.2,0-0.4,0-0.7,0
		c-1.7,0.1-3.4,0.2-5,0.3c-14.1,0.8-28,1.8-41.7,3c-8.7,0.7-5.1-0.3-17.5,0.9c-32.7,3.5-62,7.9-91.1,13.1c-3.6,0.6-7.3,1.3-10.9,2
		c-3.6,0.7-7.3,1.3-10.9,2.1c-7.3,1.5-14.6,2.9-22,4.4c-14.8,3-29.8,6.5-45.6,10.2c-3.9,1-5.5,1.6-7.4,2.2c-1.9,0.6-4,1.3-9.1,2.5
		c-4.5,1.2-8.9,2.1-12.7,2.9c-3.7,0.8-6.8,1.6-8.8,2.2c4.2-0.9,0.1,0.3-6.9,2.2c-3.5,1-7.6,2.1-11.8,3.2c-4.2,1.1-8.4,2.3-11.9,3.2
		c-2.7,1.4,16.4-4,9.8-1.7c-18.3,4.8-33,8.3-47.1,13.1c9.6-2.9,10-2.8,9.6-2.4c-0.4,0.4-1.5,1,5-0.6c-5.7,1.7-9,2.7-10.6,3.2
		c-1.6,0.5-1.6,0.7-0.9,0.7c-2.5,0.7-4.7,1.4-6.7,2c-2,0.6-3.9,1.2-5.7,1.7c-3.6,1.1-7,2-10.9,3.3c-4,1.4,0.5,0.6-4.3,2.1
		c-2.6,0.7-5.7,1.7-8.6,2.7c-2.9,1-5.7,1.9-7.7,2.3c-1.8,0.2,10.9-3.5,9.1-3.3c-8.2,2.6-12.6,4.1-14.5,4.8c-1.9,0.7-1.3,0.6,0.6,0.1
		c1.9-0.5,5-1.4,8.2-2.3c3.2-0.9,6.5-1.8,8.5-2.3c-7.8,2.9-20.4,7.5-24.6,9.7c-5.6,1.5-12.7,3.7-20.9,6.5
		c-6.9,3.1-13.7,5.3-19.9,8.4c11-4,8.3-1.6,12.3-2.4c-9.5,4.1-26.5,9.7-35.9,13.8c3.9-1.4,10.1-3.7,15.4-5.6
		c5.3-1.8,9.6-3.3,9.8-3.2c-3.3,1.3-8.3,3.2-8.9,3.6c11.8-4.7,2.3-0.5,7-2.1c-6,2.3-15.2,5.9-23.6,9.3c-7.6,3.1-14.5,6-17.8,7.4
		c10.3-4.1,18.6-7,26.3-9.5c7.9-2.6,15.2-4.8,23.3-7.2c-2.1,0.9-4,1.8-5.8,2.6c-1.8,0.8-3.4,1.6-4.9,2.4c-8.7,3.4-18,7.2-26.5,10.8
		c-4.3,1.8-8.3,3.6-11.9,5.3c-3.6,1.7-6.8,3.3-9.5,4.8c3.5-1.6,6.5-3,9.4-4.3c2.9-1.3,5.6-2.4,8-3.5c5-2.1,9.1-3.7,12.7-5.1
		c7.2-2.7,12.2-4.2,16.8-5.3c-3.1,1.7-9.2,3.4-10.9,4.6c8.9-3.3,3.3-0.5,2.9,0.3c-7,3.1-2,0.2-8.9,3.4c-9.5,4.8-10.5,6.2-7.1,6.1
		c1.8-0.5,6.6-3.4,15.1-6.6c0.4,0.3-1.7,1.3-2.3,1.8c-20.6,8.6-31.6,14.1-31.6,14.1c-24.1,10.9,0,39.1,0,39.1
		c40.7,50.4,82.1,15.5,82.1,15.5c107.8-52.8,208.9-88.1,301.4-110.9l0,0.2c-12.2,3-24.4,6.2-36.5,9.5l-14.2,4l-3.5,1l-3.5,1l-7,2.1
		l-7,2.1l-3.5,1.1l-3.5,1.1l-14,4.4c-1.5,0.5-2.9,0.9-4.1,1.3c-1.2,0.4-2.4,0.8-3.7,1.3c-2.5,0.9-5.5,1.9-10.3,3.5
		c-7.2,2.3-14.7,5-22.5,7.8c-7.8,2.7-15.8,5.7-24.1,8.7c-2.1,0.8-4.1,1.5-6.2,2.3c-2.1,0.8-4.1,1.6-6.2,2.4
		c-4.2,1.6-8.4,3.2-12.6,4.8c-2.1,0.8-4.2,1.6-6.3,2.5c-2.1,0.9-4.2,1.7-6.3,2.6c-4.2,1.7-8.5,3.4-12.7,5.1
		c-33.7,13.9-66.7,29.1-93.5,42.2c-1.1,0.9-2.1,1.6-3.1,2.2c-0.6,0.4-1.1,0.7-1.4,0.9c-0.1,0.1-0.3,0.2-0.3,0.2
		c-0.1,0.1-0.1,0.1-0.1,0.1c0,0,0,0,0.1-0.1c0.1-0.1,0.2-0.1,0.4-0.2c0.3-0.2,0.8-0.5,1.4-0.9c-4.7,3.1-11,6.3-18.5,8.1
		c-3.7,0.9-7.8,1.4-11.9,1.4c-4.1,0-8.3-0.5-12.2-1.5c-4-1-7.6-2.5-11-4.2c-0.8-0.4-1.7-0.9-2.5-1.3c-0.8-0.4-1.6-1-2.3-1.4
		c-0.8-0.5-1.5-0.9-2.2-1.4c-0.7-0.5-1.4-1-2.1-1.5c-4.3-3.2-7.8-6.5-10.6-9.4c0,0,0,0,0.1,0.1c0.8,0.8,1.5,1.6,2.3,2.4
		c0.8,0.8,1.7,1.6,2.5,2.4l0.6,0.6l0.7,0.6c0.5,0.4,0.9,0.8,1.4,1.2c3.8,3.1,8,6,12.5,8.2c4.5,2.2,9.2,3.8,13.5,4.6
		c3.6,0.7,6.8,0.9,9.3,0.9c-1.1,0-2.2,0-3.2-0.1c2.5,0.2,5.1,0.2,7.7-0.1c1.1-0.1,2.2-0.3,3.3-0.4c-0.5,0.1-1,0.1-1.5,0.2
		c-0.3,0-0.6,0.1-1,0.1c0.4,0,0.7-0.1,1-0.1c1.4-0.1,2.6-0.4,3.8-0.6c2.2-0.5,4.3-1,7.4-2c2.6-0.9,5-1.9,7.4-3.1
		c3.1-1.6,6.1-3.4,8.8-5.5c0,0,0,0,0,0l0.1-0.1c0,0,0,0-0.1,0c5.2-2.5,10.3-4.9,15.2-7.3c2.5-1.2,4.9-2.4,7.3-3.5
		c2.4-1.1,4.8-2.2,7.1-3.3c9.3-4.2,17.5-8,24.1-10.8c-3.1,1.4-7.6,3.4-8.5,3.9c0.2-0.1,13.4-5.7,10.8-4.6c-11.4,5-6,2.6-8.6,3.8
		c0.1,0,1-0.4,2.4-1c1.4-0.6,3.3-1.4,5.1-2.2c1.8-0.8,3.7-1.6,5.1-2.2c1.4-0.6,2.4-1,2.4-1c-3,1.3-6.5,2.8-10.1,4.4
		c-1.8,0.8-3.6,1.6-5.4,2.4c-1.8,0.8-3.5,1.6-5.1,2.3c-3.3,1.5-6.2,2.8-8.2,3.8c-1,0.5-1.9,0.9-2.4,1.1c-0.6,0.3-0.9,0.4-0.8,0.4
		c4.4-2,10.6-4.8,16.8-7.6c6.3-2.7,12.7-5.5,17.6-7.6c0,0-0.1,0-0.3,0.1c-0.2,0.1-0.4,0.2-0.7,0.3c-0.6,0.3-1.3,0.6-2.1,0.9
		c-1.6,0.7-3.2,1.4-3.4,1.5c8.8-3.8,13-5.7,16.5-7c3.5-1.4,6.1-2.5,11.8-4.8c2.5-1,4.9-2,7.4-3.1c2.5-1,5-2,7.5-3c5-2,10-4,15-5.9
		c5-1.9,10.1-3.8,15.2-5.7c2.5-1,5.1-1.9,7.6-2.9l7.7-2.8c5.1-1.8,10.2-3.7,15.3-5.5c5.2-1.8,10.3-3.5,15.5-5.3
		c5.1-1.8,10.4-3.5,15.5-5.2l7.8-2.5l3.9-1.3l3.9-1.2c5.2-1.6,10.5-3.2,15.7-4.8c5.2-1.6,10.5-3.1,15.7-4.6c2.6-0.8,5.2-1.5,7.9-2.3
		c2.6-0.7,5.3-1.4,7.9-2.2c2.6-0.7,5.3-1.4,7.9-2.2c2.6-0.7,5.2-1.5,7.9-2.1c5.3-1.4,10.5-2.7,15.8-4.1c4.8-1.2,9.5-2.3,14.3-3.5
		l0,0.2c-34,8.2-67.1,17.5-98.8,27.6c-23.2,7.4-45.5,15.3-67.2,23.3c-5.4,2-10.7,4.1-16,6.1c-2.7,1-5.3,2-7.9,3.1
		c-2.6,1-5.2,2.1-7.8,3.1c-10.4,4.1-20.5,8.4-30.4,12.5c7-2.9,17.4-7.2,11-4.4c10.3-4.3,15.5-6.2,19-7.6c3.5-1.3,5.5-2.1,9.6-3.6
		c-1.6,0.8-21,8.3-32.7,13.4c3.1-1.1-2.1,1.1-7.4,3.4c-5.3,2.3-10.5,4.6-7.5,3.4c1.9-0.8,4.1-1.7,6.6-2.8c2.5-1,5.3-2.1,8.2-3.3
		c3-1.2,6.1-2.5,9.4-3.8c1.6-0.7,3.3-1.4,5-2c1.7-0.7,3.5-1.4,5.2-2c3.5-1.4,7.1-2.8,10.8-4.2c3.6-1.4,7.3-2.9,10.9-4.2
		c3.6-1.4,7.2-2.7,10.7-4c3.5-1.3,6.9-2.6,10.1-3.7c3-1,6.4-2.2,10.2-3.5c1.9-0.7,3.9-1.4,5.9-2.1c2-0.7,4.2-1.5,6.3-2.2
		c4.4-1.5,8.9-3,13.4-4.5c2.3-0.8,4.5-1.5,6.8-2.3c2.3-0.7,4.6-1.4,6.8-2.2c57.2-18.4,118.3-34,178.9-44.8c4.1-0.7,8.3-1.4,12.4-2.1
		c2.1-0.4,4.1-0.7,6.2-1.1c2.1-0.3,4.2-0.6,6.2-1c0.9-0.1,1.8-0.3,2.7-0.4c2-0.3,4-0.6,6.1-0.9c1.2-0.2,2.5-0.4,3.7-0.6
		c4.2-0.6,8.4-1.2,12.6-1.8l6.3-0.9l4.3-0.5c67.9-7.8,178-11,180-11c12.2,0.4,23.8,0.9,33.6,1.5c6.6,0.3,13,0.8,19.8,1.3
		c1.7,0.1,3.4,0.2,5.1,0.4c1.4,0.1,2.8,0.2,4.2,0.4c-2.6-0.5-5.3-0.9-7.8-1.3C800.7,438,796.7,437.4,792.8,436.8z M850.4,427
		c3.6,0.5,7,1.2,10.8,2c3.7,0.9,7.8,1.9,12.7,3.1c-5.2-0.6-12.4-2.4-19.9-4.1c-3.8-0.9-7.6-1.9-11.3-2.7c-3.7-0.8-7.3-1.6-10.5-2.3
		C838,423.7,844.4,425.5,850.4,427z M784.7,413.9c2.2,0.3,4.5,0.7,6.8,1.1c2.3,0.4,4.6,0.8,7,1.2c4.6,0.8,9.1,1.6,13.1,2.4
		c4,0.8,7.5,1.6,10,2.3c-3.7-0.8-7.7-1.6-11.7-2.4c-4-0.7-8.2-1.5-12.3-2.2c-4.2-0.8-8.4-1.5-12.5-2.1c-2.1-0.3-4.2-0.7-6.2-1
		c-2.1-0.4-4.1-0.7-6.1-1C776.2,412.5,780.3,413.2,784.7,413.9z M108.8,487.7c-1.6,0.5-3,0.9-6.4,2.2c1.3-0.7,2.6-1.3-0.2-0.3
		c2.1-1,5.3-2.1,8.1-3c2.8-0.9,5.2-1.5,5.8-1.5C112,486.7,110.3,487.2,108.8,487.7z M159.7,465.7c-4.6,1.5-9.2,3.1-13.7,4.7
		C145.6,469.9,161.2,464.5,159.7,465.7z M324.1,418.8c1.8-0.4,3.7-0.7,5.6-1.1c3.7-0.7,7.4-1.5,11.2-2.2c3.7-0.7,7.5-1.4,11.2-2.1
		c1.9-0.4,3.8-0.7,5.6-1.1c1.9-0.3,3.8-0.7,5.7-1c3.8-0.7,7.6-1.3,11.4-2c3.8-0.6,7.6-1.2,11.4-1.9c1.9-0.3,3.8-0.6,5.7-0.9l5.8-0.9
		c3.8-0.6,7.7-1.2,11.5-1.7c5-0.7,10-1.4,15-2.1l0.1,0.4c-0.8,0.1-2.3,0.3-4.7,0.6c-1.5,0.2-3.4,0.5-5.6,0.8
		c-1.1,0.2-2.3,0.3-3.7,0.5c-1.3,0.2-2.7,0.4-4.3,0.6c-6.9,1-14.4,2.1-22.1,3.4c-3.8,0.6-7.7,1.2-11.6,1.9c-3.9,0.7-7.8,1.4-11.6,2
		c-3.9,0.7-7.7,1.4-11.4,2.1c-3.7,0.7-7.4,1.3-11,2c-7.1,1.4-13.8,2.6-19.6,3.7C320.4,419.6,322.2,419.2,324.1,418.8z M384.2,408.9
		c-2.9,0.5-5.7,1-8.6,1.6c-2.8,0.5-5.6,1.1-8.3,1.6c-32.3,6-55.9,10.2-86.7,17.4c-2.8,0.6-5.9,1.4-9.2,2.3c-3.4,0.9-7,1.8-10.8,2.8
		c-3.8,1-7.7,2.1-11.7,3.1c-4,1.1-8,2.2-11.9,3.3c-15.7,4.4-30.3,8.5-36.6,9.7c13.3-3.4,28.5-8.6,44.4-12.9c4.3-1.2,9-2.4,14.2-3.7
		c5.2-1.3,10.8-2.7,16.6-4.1c5.9-1.4,12-2.8,18.3-4.2c3.1-0.7,6.3-1.4,9.5-2.1c1.6-0.3,3.2-0.7,4.8-1.1c1.6-0.3,3.2-0.7,4.8-1
		c25.9-5.4,52.3-10.1,71-13.2c2.9-0.5,8.7-1.4,15.1-2.4c3.2-0.5,6.5-1,9.7-1.5c3.2-0.5,6.2-0.9,8.7-1.2c3.1-0.4,5.5-0.8,6.7-0.9
		l0.1,0.4C410.8,404.5,397.4,406.6,384.2,408.9z M105.9,588c0.9,0,1.8-0.1,2.6-0.2C107.6,587.9,106.8,587.9,105.9,588z"/>
	<path d="M851.8,442.5c-1.4-0.2-2.8-0.4-4.3-0.6c1.2,0.3,2.4,0.5,3.6,0.8c2.9,0.4,5.8,0.8,8.8,1.3c20.7,3.1,43.1,7.3,64.1,12.1
		c3.9,0.9,7.7,1.8,11.5,2.7c-0.3-0.1-0.5-0.2-0.8-0.4c-9.1-2.2-18.7-4.4-28.8-6.5C888.9,448.4,870.6,445.2,851.8,442.5z"/>
	<path d="M978.9,465.6c-1.3-0.8-2.7-1.5-4.1-2.2c-0.2-0.1-0.4-0.2-0.6-0.3c0.4,0.2,0.8,0.4,1.1,0.6c1.7,0.9,3.4,1.8,5.1,2.9
		c0.8,0.6,1.7,1.1,2.3,1.9c0.2,0.2,0.3,0.4,0.3,0.7c0,0.1,0,0.3-0.2,0.5c-0.1,0.1-0.3,0.2-0.4,0.3c-0.6,0.2-1.2,0.2-1.7,0.2
		c-1.1,0-2.2-0.1-3.2-0.3c-0.5-0.1-1.1-0.2-1.6-0.3c-0.5-0.1-1.1-0.3-1.6-0.4c-2.1-0.6-4.2-1.2-6.4-1.8c-4.4-1.3-9-2.6-13.7-3.8
		c-6-1.6-12.3-3.2-18.8-4.8c0.2,0.1,0.3,0.1,0.5,0.2c9.8,2.4,19.4,4.9,28.8,7.6c3.2,0.9,6.4,1.8,9.6,2.7c0.8,0.2,1.6,0.4,2.4,0.6
		c0.8,0.2,1.7,0.3,2.5,0.4c0.8,0.1,1.7,0.1,2.6,0c0.2,0,0.5-0.1,0.7-0.2c0.2-0.1,0.5-0.3,0.5-0.6c0.1-0.5-0.3-0.8-0.5-1.1
		C981.6,467.2,980.2,466.4,978.9,465.6z"/>
	<path d="M974.3,463.1c-1.2-0.6-2.3-1.1-3.3-1.7C972.1,462,973.2,462.6,974.3,463.1z"/>
	<path d="M884.4,448.1c-3.4-0.6-6.8-1.2-10.2-1.8c-3.4-0.5-6.8-1.1-10.2-1.6c-1.7-0.3-3.4-0.5-5.1-0.8c-1.7-0.2-3.4-0.5-5.1-0.7
		c-0.1,0-0.1,0-0.2,0c0.5,0.1,1.1,0.2,1.6,0.3c4.3,1,8.4,2,11.8,3c3.4,1,6.1,1.8,7.6,2.6c-3.4-1.2-7.4-2-11.5-2.9
		c-2.1-0.4-4.2-0.9-6.3-1.3c-2.1-0.4-4.3-0.8-6.5-1.3c-1.8-0.4-3.8-0.8-5.9-1.3c-1.6-0.2-3.3-0.4-5-0.6c-2-0.2-4.1-0.5-6.2-0.7
		c-2.2-0.3-4.5-0.5-6.8-0.8c-2.4-0.2-4.9-0.5-7.6-0.8c-2.7-0.3-5.4-0.6-8.4-0.9c-2.9-0.3-6-0.5-9.3-0.8c1.7,0.2,4.1,0.4,6.7,0.7
		c2.7,0.3,5.7,0.7,8.9,1c3.1,0.4,6.4,0.7,9.4,1.1c3,0.4,5.8,0.8,8.2,1.1c2.8,0.6-7-0.4-9.4-0.4c-3.9-0.4-7.6-0.7-11.2-1.1
		c-0.4,0-0.7-0.1-1.1-0.1c1.5,0.3,3.1,0.5,4.6,0.8c4.3,0.7,3.8-0.1,9.2,1c4.9,0.9,9.2,2.4,11.5,2.5c-4.4-1.3,9.2,1.3,16.7,3.2
		c1.8-0.2-8.6-2.4-4.8-2c2.5,0.6,4.8,1.1,7,1.8c2.2,0.6,4.3,1.2,6.4,1.8c2,0.6,4,1.1,6,1.6c2,0.5,3.9,0.9,5.9,1.3
		c-2.6-0.7-3.9-1.1-4.5-1.3c-0.6-0.2-0.6-0.3-0.4-0.4c0.3-0.2,1.2-0.3-2.2-1.4c6.3,1.4,7,1.7,6.5,1.1c5.4,1.3,8.3,2.3,12.5,3.5
		c2.2,0.5,0.2-0.7,2.8,0c2.6,1,6.8,1.7,8.7,2.7c0.7,0.6-5.9-1.8-5.1-1.1c17.7,5.1,3.3,0.3-0.8-1.4c4.4,0.9,11.6,2.5,14.3,2.6
		c2.8,1.2,6.5,2.6,10.9,4.1c4.1,0.7,7.7,2,11.5,2.5c-5.8-2.1-3.6-2.6-5.3-3.8c5.6,1.1,14.3,4.9,19.6,6.4c-4.1-1.6-13.1-5-13.1-5.3
		c1.9,0.5,4.5,1.5,5,1.4c-6.6-1.9-1-0.7-3.5-1.7c3.3,1.1,8.4,2.7,13,4.2c4.3,1.5,8.2,2.8,10,3.5c-8.1-3.3-13.6-5.9-19-8.5
		c-3.6-0.9-7.1-1.7-10.7-2.5C911.7,453.3,898.1,450.6,884.4,448.1z M898.2,453.1l7.5,2.1C905.6,455.7,896.9,453.4,898.2,453.1z
		 M932,459.5c-0.8-0.1-1.6-0.2-0.1,0.3c-1.3-0.2-3-0.8-4.4-1.5c-1.4-0.6-2.6-1.2-2.8-1.5c2.3,0.6,3.2,1,3.9,1.4
		C929.4,458.6,930.1,459,932,459.5z"/>
	<path d="M843.6,442c1.7,0.2,3.3,0.4,4.3,0.6c-0.6-0.1-7-1.1-3.9-0.8c3.2,0.5,6.5,0.9,9.8,1.4c-0.9-0.2-1.7-0.4-2.6-0.6
		c-4-0.6-8-1.1-11.9-1.6C840.7,441.4,842.2,441.7,843.6,442z"/>
	<path d="M823.8,437.6c-2.9-0.2-7.1-0.6-14.2-1.4c2.9,0.4,6.8,0.8,10.6,1.2c1.8,0.2,3.6,0.4,5.2,0.6c-0.4-0.1-0.9-0.2-1.3-0.3
		C824,437.6,823.9,437.6,823.8,437.6z"/>
	<path d="M825.7,437.7c-0.8-0.1-2-0.3-3.2-0.5c0.5,0.1,1,0.2,1.4,0.3C824.5,437.7,825.1,437.7,825.7,437.7z"/>
	<path d="M830.3,439.6l-3.6-0.5l-3.6-0.4c-4.8-0.5-9.7-1-14.5-1.6c-4.8-0.4-9.7-0.9-14.5-1.3l-3.6-0.3l-3.6-0.3
		c-2.4-0.2-4.8-0.3-7.2-0.5c-0.9-0.1-1.7-0.1-2.6-0.2c0.8,0.1,1.6,0.2,2.5,0.3c4.3,0.3,8.5,0.6,12.5,0.9c2.5,0.3,6.3,0.7,11,1.1
		c2.3,0.2,4.9,0.4,7.6,0.7c2.7,0.3,5.7,0.6,8.7,0.9c6.2,0.6,12.9,1.4,19.9,2.3c-1-0.2-1.9-0.4-2.9-0.7
		C834.3,440.1,832.3,439.9,830.3,439.6z"/>
	<path d="M825.4,438c2.9,0.6,5.7,1.3,8.5,1.9c0.8,0.2,1.6,0.3,2.4,0.5c0.4,0.1,0.8,0.1,1.3,0.2c2.4,0.3,4.8,0.6,7.2,0.9
		c0.9,0.1,1.9,0.3,2.8,0.4c-1.7-0.4-3.4-0.7-5.1-1.1c-2.1-0.5-4-0.9-5.9-1.2c-0.5-0.1-0.9-0.2-1.4-0.3c-2.4-0.3-4.3-0.6-5.6-0.8
		C828.6,438.3,827.1,438.1,825.4,438z"/>
</g>
</svg>
