<?xml version="1.0" encoding="utf-8"?>
<!-- Generator: Adobe Illustrator 21.0.0, SVG Export Plug-In . SVG Version: 6.00 Build 0)  -->
<svg version="1.1" id="Layer_1" xmlns="http://www.w3.org/2000/svg" xmlns:xlink="http://www.w3.org/1999/xlink" x="0px" y="0px"
	 viewBox="0 0 650 503" style="enable-background:new 0 0 650 503;" xml:space="preserve">
<style type="text/css">
	.st0{fill:#FFFFFF;}
	.st1{font-family:'RissaTypeface';}
	.st2{font-size:404.0408px;}
</style>
<text transform="matrix(1 0 0 1 85.5469 294.1367)" class="st0 st1 st2">Rsvp</text>
<g>
	<path class="st0" d="M625.5,402.7L625.5,402.7C625.5,402.7,625.5,402.7,625.5,402.7z"/>
	<path class="st0" d="M642.3,383.1c-3.4-5.8-7.1-3.7-7.3-5c-1.3-0.4-1.9-0.5-2.5-0.6c-0.5-0.1-0.8-0.1-1.1-0.2
		c-0.3,0-0.5-0.1-0.7-0.1l-0.5-0.1l0,0c-3.1-0.6-5.9-0.5-5.9-0.5l-2.4,0.2c-0.2,0-0.4,0-0.6,0c-3,0-6,0-8.9,0
		c-2.9,0-5.8,0.1-8.7,0.1c-5.8,0.1-11.6,0.2-17.4,0.3c-11.6,0.2-23.1,0.5-34.7,0.8c-23.2,0.6-46.4,1.3-69.6,2.2
		c-46.5,1.7-93,3.7-138.8,6.1c-30.1,1.6-62.1,3.4-85.7,5.2c-14.8,1.1-28.9,2.7-46.5,4.1c-2.6,1-13.6,2.3-10.2,2.9
		c10.8-0.3,30-1.3,37.7-1.4c-29.5,2-46.4,3.9-61.4,5.7c8.1-0.8,18.7-2,27-2.4c-3.4,0.5-14.1,1.2-18,1.7c0.7,0.2,8-0.1,4.6,0.4
		c-30,2.5-61.6,5.5-92.8,9.4c-15.6,2-31,4.2-46.1,7c-7.5,1.4-15,2.9-22.3,4.7c-3.7,0.9-7.3,1.9-11,3c-3.6,1.1-7.3,2.3-10.9,3.8
		c3.2-1.1,7.3-2.4,11.8-3.6c4.5-1.2,9.4-2.4,14.1-3.4c18.6-4.1,41.6-7.6,65.9-10.7c24.3-3.1,49.8-5.7,73.3-7.8
		c31.4-2.8,65.1-5.5,76.5-5.5c11.7-0.7,25.5-1.9,37.2-2.7c11.7-0.8,21.2-1.4,24.4-0.9c-41.2,2.4-86.1,5.4-128.7,9.2
		c-42.6,3.8-83,8.4-115.2,14c6.1-0.8,15.1-2.1,23.9-3.3c8.8-1.2,17.3-2.1,22.4-2.5c-5.7,0.7-10.6,1.3-14.9,2c2.4,0,8.3-0.6,14.7-1.3
		c6.4-0.7,13.5-1.4,18.3-1.8c0,0.2-3.2,0.5-6.7,0.9c-3.5,0.4-7.2,0.8-8.2,1c18.9-1.9,38.2-3.5,58.4-5.1c3.7-0.5,10.5-1.1,17.1-1.6
		c6.6-0.5,12.9-0.9,15.9-1c4.6-0.5,16-1.6,22.4-1.9c-9.8,0.8-14.6,1.5-17.9,2.1c4.6,0.1,15.1-0.6,25.6-1.3c10.5-0.6,21-1.2,25.4-1.1
		c10.4-0.9,24.5-1.9,36-2.4c8.6-0.4,15.7-0.7,18.4-0.5c-132.9,7.9-266.5,19.8-305.4,35.7c0,0-5.5,8.5-4.4,15.9
		c-0.1-0.2-0.1-0.1-0.1,0.3c0.1,0.7,0.5,2.2,1.3,3.6c0.4,0.7,0.9,1.4,1.5,2c0.3,0.3,0.6,0.6,0.8,0.8c0.2,0.3,0.5,0.5,0.7,0.7
		c-0.2-0.1-0.4-0.2-0.6-0.4c-0.2-0.1-0.4-0.3-0.7-0.5c-0.5-0.3-0.9-0.8-1.4-1.2c-0.9-0.9-1.5-1.9-2-2.8c-0.2-0.4-0.5-0.8-0.6-1.1
		c-0.2-0.3-0.3-0.5-0.4-0.7c-0.2-0.2-0.4,0-0.4,1c0,0,0.1,0.4,0.3,1.1c0.2,0.3,0.3,0.7,0.5,1.2c0.2,0.4,0.5,0.9,0.8,1.3
		c0.2,0.2,0.3,0.4,0.5,0.6c0.2,0.2,0.3,0.4,0.5,0.6c0.3,0.4,0.7,0.7,1,1c0.3,0.3,0.6,0.5,0.7,0.7c0.2,0.2,0.3,0.3,0.2,0.3
		c-0.2-0.1-0.5-0.3-0.7-0.5c-0.2-0.2-0.5-0.4-0.7-0.6c-0.5-0.4-0.8-0.9-1.2-1.4c-0.3-0.5-0.6-0.9-0.8-1.2c-0.2-0.3-0.3-0.6-0.4-0.6
		c0.1,0.2,0.2,0.5,0.3,0.7c0.1,0.2,0.3,0.5,0.4,0.7c0.3,0.5,0.6,1,1,1.4c0.2,0.2,0.4,0.4,0.6,0.7c0.2,0.2,0.4,0.4,0.6,0.6
		c0.4,0.4,0.8,0.7,1.1,1c0.7,0.5,1.1,0.9,1,0.9c0,0-0.2,0-0.5-0.2c-0.2-0.1-0.4-0.2-0.6-0.3c-0.1-0.1-0.3-0.1-0.4-0.2
		c-0.1-0.1-0.3-0.2-0.4-0.3c0.5,0.4,1,0.7,1.5,1l0.2,0.1l0.1,0.1l0,0l0.1,0.1c0.1,0.1,0.2,0.1,0.3,0.2c0.2,0.1,0.4,0.2,0.6,0.3
		c0.1,0.1,0.2,0.1,0.3,0.2c0.1,0.1,0.2,0.1,0.3,0.2c0.2,0.1,0.4,0.2,0.6,0.3c0.2,0.1,0.4,0.2,0.6,0.3c0.2,0.1,0.4,0.2,0.6,0.3
		c0.7,0.3,1.4,0.6,1.9,0.9c0.5,0.2,1,0.4,1.3,0.6c-0.9-0.3-1.8-0.7-2.3-0.9c-0.6-0.2-0.9-0.3-0.7-0.1c0.7,0.3,1.4,0.6,2,0.9
		c0.6,0.3,1.2,0.5,1.8,0.7c0.6,0.2,1.1,0.4,1.6,0.6c0.5,0.2,1,0.4,1.5,0.5c1,0.3,1.8,0.6,2.7,0.9c0.4,0.1,0.8,0.3,1.2,0.4
		c0.4,0.1,0.8,0.2,1.2,0.3c1.6,0.5,3.2,0.9,5.1,1.3c1.9,0.4,4.2,0.8,7.1,1.1c-3.3-0.2-6-0.6-8.3-1c-2.3-0.4-4.2-0.8-6-1.1
		c0.1,0.3,3.2,1.2,6,1.8c2.7,0.6,5.1,1,3.3,1c-1.6-0.2-2.8-0.4-3.8-0.6c-1-0.2-1.8-0.4-2.5-0.5c-1.4-0.3-2.7-0.6-5.1-1.1
		c0.7,0.6,4.1,1.8,9,2.7c4.8,0.9,11,1.5,16.9,1.7c0.8,0.3-5.7,0.1-1.7,0.4c0.9,0,1.8,0.1,2.5,0.1c0.8,0,1.5,0,2.1,0
		c1.3,0,2.5,0,3.9-0.1c2.6-0.1,5.7-0.2,11.1-0.8c4.3-0.3,8.5-0.8,12.7-1.3c1.1-0.2,2.1-0.3,3.2-0.5c0.5-0.1,1.1-0.2,1.6-0.3l0.8-0.1
		l0.4-0.1l0,0c-0.1,0,0.2,0-0.2,0l0,0l0,0l0.1,0l0.2,0c1-0.1,2-0.3,3-0.4l0.8-0.1l0.7-0.1c0.5-0.1,1-0.1,1.4-0.2
		c1.9-0.2,3.8-0.5,5.9-0.7c2-0.2,4.1-0.5,6.2-0.7c4.2-0.5,8.5-1,12.9-1.5c27.4-3.2,69.3-9,111-14.4c50.1-6.6,104.7-13.6,153.9-20.5
		c39.7-5.6,81.4-11.2,124.4-16.9c21.5-2.8,43.3-5.6,65.4-8.3c5.5-0.7,11-1.3,16.6-2c5.5-0.6,11.1-1.3,16.6-1.9
		c2.8-0.3,5.6-0.6,8.3-0.9c1.4-0.1,2.7-0.3,4.1-0.4l2.1-0.2c0.7-0.1,1.3-0.1,2-0.2l1.3-0.1c1.6,0,2.9,0,3.5,0
		c1.8,0.1,5.8-0.9,5.8-0.9l0.5-0.1c0.2,0,0.4-0.1,0.7-0.1c0.2,0,0.6-0.1,1-0.2c0.5-0.1,1-0.3,2.2-0.7c0.4-0.8,1.1-0.5,2.1-0.8
		c0.5-0.2,0.9-0.4,1.2-0.6c0,0,0,0,0,0c0.6-0.4,1.2-0.9,1.9-1.8c1.4-2.1,2.2-5.2,2.5-7C643.9,387.9,642.3,383.1,642.3,383.1z
		 M112.6,460.4c-3.9,0.8-7.8,1.4-12,2c-2.1,0.3-4.3,0.7-6.7,1c-2.4,0.4-4.9,0.8-7.7,1.2c5.5-1.3,13.7-2.6,22.3-3.8
		c8.6-1.2,17.6-2.4,24.8-3.5C126.9,458.7,119.5,459.5,112.6,460.4z M145.1,455.8c16.9-2.3,36.7-5.1,54.7-7.6
		C184.8,450.4,157,454.4,145.1,455.8z M463.2,411.9c1.3-0.2,1.4-0.2,1.5-0.1c1.9-0.2,5.1-0.7,8.4-1.1l0,0.1
		C468.3,411.4,464,412,463.2,411.9z"/>
</g>
</svg>
