<?xml version="1.0" encoding="utf-8"?>
<!-- Generator: Adobe Illustrator 20.1.0, SVG Export Plug-In . SVG Version: 6.00 Build 0)  -->
<svg version="1.1" id="Layer_1" xmlns="http://www.w3.org/2000/svg" xmlns:xlink="http://www.w3.org/1999/xlink" x="0px" y="0px"
	 viewBox="0 0 180 250" style="enable-background:new 0 0 180 250;" xml:space="preserve">
<style type="text/css">
	.st0{fill:#99DBF9;}
	.st1{fill:#EDE5D6;}
	.st2{opacity:0.7;fill:#DFD7BA;enable-background:new    ;}
	.st3{fill:#FFFFFF;}
	.st4{fill:#F2C69E;}
	.st5{fill:#524F4D;}
	.st6{fill:#333333;}
	.st7{opacity:0.4;fill:#FFFFFF;enable-background:new    ;}
	.st8{fill:#5B3D28;}
	.st9{fill:#DAD9D8;}
	.st10{fill:#EDE5D6;stroke:#EDE5D6;stroke-miterlimit:10;}
	.st11{fill:#C2B59B;stroke:#EDE5D6;stroke-miterlimit:10;}
</style>
<g>
	<g>
		<ellipse class="st0" cx="90.2" cy="126" rx="73" ry="103.9"/>
		<g>
			<g>
				<g>
					<path class="st1" d="M115.4,156.8L115.4,156.8C115.4,156.7,115.4,156.7,115.4,156.8C115.4,156.7,115.4,156.7,115.4,156.8
						C115.4,156.7,115.4,156.7,115.4,156.8L115.4,156.8L115.4,156.8z"/>
				</g>
			</g>
			<g>
				<path class="st1" d="M101.8,53.2c-5-8.6-10.4,0.5-12.7,6.5c-2.4-6-7.7-15.1-12.7-6.5c-4.5,7.7,6.3,39.6,12.8,51.5
					C95.8,92.9,106.3,60.9,101.8,53.2z"/>
			</g>
		</g>
	</g>
	<ellipse class="st2" cx="91" cy="136.2" rx="14.5" ry="2.5"/>
	<ellipse class="st2" cx="91" cy="136.2" rx="14.5" ry="2.5"/>
	<g>
		<g>
			<path class="st3" d="M81,131.5c-0.1,1.2-0.2,2.4-0.1,3.6c0,0.4,0.1,0.9,0.6,1.1c0.5,0.2,1-0.2,1.4-0.6c1.1-1.2,2.1-2.5,2.9-3.9"
				/>
			<g>
				<path class="st3" d="M80.5,131.5c-0.1,1.3-0.3,2.6-0.1,3.9c0.1,0.7,0.5,1.3,1.3,1.3c0.9,0,1.6-0.9,2.2-1.6
					c0.9-1,1.6-2.1,2.3-3.2c0.3-0.5-0.5-1.1-0.9-0.5s-0.8,1.3-1.2,1.9c-0.4,0.5-1,1.5-1.6,1.9c-0.1,0.2-0.3,0.3-0.6,0.2
					c-0.4,0.1-0.5,0-0.5-0.3c-0.1-0.3,0-0.8,0-1.1c0-0.8,0.1-1.7,0.1-2.5C81.5,130.8,80.5,130.8,80.5,131.5L80.5,131.5z"/>
			</g>
		</g>
		<g>
			<path class="st3" d="M101,131.5c0.1,1.2,0.2,2.4,0.1,3.6c0,0.4-0.1,0.9-0.6,1.1c-0.5,0.2-1-0.2-1.4-0.6c-1.1-1.2-2.1-2.5-2.9-3.9
				"/>
			<g>
				<path class="st3" d="M100.5,131.5c0.1,0.8,0.1,1.6,0.1,2.3s0.2,2.4-1.1,1.4c-1.2-0.9-2.1-2.5-2.8-3.8c-0.3-0.5-1.2,0-0.9,0.5
					c0.7,1.1,1.4,2.1,2.2,3c0.6,0.7,1.3,1.7,2.3,1.7c0.8,0,1.2-0.6,1.3-1.3c0.2-1.3,0.1-2.7-0.1-4
					C101.4,130.8,100.4,130.8,100.5,131.5L100.5,131.5z"/>
			</g>
		</g>
	</g>
	<g>
		<g>
			<path class="st4" d="M116.7,118.8v7.2c0,0,2.8-3.5,3.3-7.6L116.7,118.8z"/>
			<path class="st5" d="M114.1,158.2h5.7c0,0-4.3-42.6-5.9-47.4c-1.5-4.8-10-4.1-10-4.1l-8.8,9.1c0,0,0.3,22.8,3.8,42.4h6.1
				c0,0-1.3-24.5,0.4-36.2L114.1,158.2z"/>
			<path class="st6" d="M116,84.5l-2.6,8.6c1.1,8.7,2.8,26.5,2.8,26.5l3.8-0.3C122.8,92.5,116.1,84.6,116,84.5z"/>
			<g>
				<path class="st7" d="M61.3,161.4c1.9-8,11.9-54.3,11.9-54.3c0.1-0.4-7.7,2.4-8.2,2.7c-7.4,4.9-10,12.3-11.2,20.7
					c-0.9,5.9-2.3,11.8-4.9,17.3c-2.1,4.4-6.4,12.3-11.6,13.7L61.3,161.4L61.3,161.4z"/>
				<path class="st7" d="M76.5,58.8l-8-0.4c0,0-15.2,8.7-15.5,44.2c0,0,8.2,4.9,30.3,1.6C90.1,103.3,77,58.2,76.5,58.8z"/>
				<ellipse class="st4" cx="75.8" cy="72.3" rx="10.6" ry="10.8"/>
				<path class="st8" d="M76,58.8L76,58.8L76,58.8L76,58.8L76,58.8C59.5,59.4,65.2,73,65.2,73s7.5-2,10.7-6.1
					C79.2,71,86.6,73,86.6,73S91,59.6,76,58.8z"/>
				<circle class="st8" cx="75.8" cy="56.3" r="6.7"/>
				<g>
					<path class="st3" d="M84.2,60.2c0.6-0.4,1-1.1,0.7-1.5c-0.2-0.4-0.9-0.5-1.6-0.2c0-0.8-0.5-1.4-1-1.4s-0.9,0.6-1,1.3
						c-0.7-0.3-1.4-0.3-1.7,0.2c-0.2,0.4,0,1.1,0.6,1.5c-0.6,0.4-1,1.1-0.7,1.5c0.2,0.4,0.9,0.5,1.6,0.2c0,0.8,0.5,1.4,1,1.4
						s0.9-0.6,1-1.3c0.7,0.3,1.4,0.3,1.7-0.2C85.1,61.3,84.8,60.7,84.2,60.2z M82.2,60.2L82.2,60.2C82.2,60.1,82.2,60.1,82.2,60.2
						C82.2,60.1,82.2,60.1,82.2,60.2C82.2,60.1,82.2,60.1,82.2,60.2L82.2,60.2L82.2,60.2z"/>
					<path class="st3" d="M77.7,60.2c0.6-0.4,1-1.1,0.7-1.5c-0.2-0.4-0.9-0.5-1.6-0.2c0-0.8-0.5-1.4-1-1.4s-0.9,0.6-1,1.3
						c-0.7-0.3-1.4-0.3-1.7,0.2c-0.2,0.4,0,1.1,0.6,1.5c-0.6,0.4-1,1.1-0.7,1.5c0.2,0.4,0.9,0.5,1.6,0.2c0,0.8,0.5,1.4,1,1.4
						s0.9-0.6,1-1.3c0.7,0.3,1.4,0.3,1.7-0.2C78.6,61.3,78.3,60.7,77.7,60.2z M75.8,60.2L75.8,60.2C75.8,60.1,75.8,60.1,75.8,60.2
						C75.8,60.1,75.8,60.1,75.8,60.2C75.8,60.1,75.8,60.1,75.8,60.2L75.8,60.2L75.8,60.2z"/>
					<path class="st3" d="M71.3,60.2c0.6-0.4,1-1.1,0.7-1.5c-0.2-0.4-0.9-0.5-1.6-0.2c0-0.8-0.5-1.4-1-1.4s-0.9,0.6-1,1.3
						c-0.7-0.3-1.4-0.3-1.7,0.2c-0.2,0.4,0,1.1,0.6,1.5c-0.6,0.4-1,1.1-0.7,1.5c0.2,0.4,0.9,0.5,1.6,0.2c0,0.8,0.5,1.4,1,1.4
						s0.9-0.6,1-1.3c0.7,0.3,1.4,0.3,1.7-0.2C72.2,61.3,71.9,60.7,71.3,60.2z M69.4,60.2L69.4,60.2C69.4,60.1,69.4,60.1,69.4,60.2
						C69.4,60.1,69.4,60.1,69.4,60.2C69.4,60.1,69.4,60.1,69.4,60.2L69.4,60.2L69.4,60.2z"/>
				</g>
				<g>
					<circle class="st3" cx="64.8" cy="73.4" r="1.5"/>
					<circle class="st3" cx="86.8" cy="73.4" r="1.5"/>
				</g>
				<rect x="73.4" y="78.8" class="st4" width="4.8" height="9.3"/>
				<path class="st4" d="M78.7,87.5h-2.8h-0.2h-2.8c0,0-7.7,3-8.3,7h11.1h0.2H87C86.3,90.6,78.7,87.5,78.7,87.5z"/>
				<g>
					<circle class="st3" cx="73" cy="88.2" r="1.1"/>
					<circle class="st3" cx="75.8" cy="89" r="1"/>
					<circle class="st3" cx="78.6" cy="88.2" r="1.1"/>
				</g>
				<polygon class="st3" points="70.9,99.5 73,107.4 79.5,107.4 80.7,99.4 				"/>
				<path class="st3" d="M91.2,161.6c10.9-41.5-11.6-54.6-11.6-54.6h-6.7c0,0-21.9,7.8-11.9,54.6H91.2z"/>
				<path class="st4" d="M70.3,99.7h-3.9c0,0,0.2,17,10.5,18.5C76.9,118.2,68.5,109,70.3,99.7z"/>
				<polygon class="st3" points="63.7,93.8 87.1,93.8 88,99.7 63.6,99.7 				"/>
				<rect x="72.2" y="105.1" class="st1" width="7.8" height="2.6"/>
			</g>
			<ellipse class="st4" cx="104.2" cy="69" rx="10.6" ry="10.8"/>
			<path class="st8" d="M93.7,70.1c0,0,1.4-2,3.4-7.4c0,0,8.3,2.6,17.8,3.9c0,0,3.2-13.3-11.4-13.6C85.7,52.7,93.7,70.1,93.7,70.1z"
				/>
			
				<rect x="99.3" y="76.6" transform="matrix(1.353585e-02 -0.9999 0.9999 1.353585e-02 23.1741 182.3)" class="st4" width="9.3" height="5.7"/>
			<path class="st1" d="M113.5,83.7c-2.2-1.2-4.2-1.9-4.2-1.9h-6.9h-0.3h-3.3c0,0-2.1,0.7-4.4,1.8v13.2l15.4,0.2L113.5,83.7z"/>
			<path class="st6" d="M98.9,81.4l5.6,14.3l-0.5,20.5l-9.5,4.3l1.4-16.6L92,84.5C92.1,84.5,96.6,82.1,98.9,81.4z"/>
			<path class="st6" d="M109.2,81.4l-5.6,14.3l0.5,20.5l11.4,3.7l-1.7-16.3l2.3-19.2C116,84.4,111.6,82.1,109.2,81.4z"/>
			<path class="st6" d="M90.6,104.3c0-4.3,4.8-12.4,4.8-12.4l-3.3-7.3c0,0-8.3,7.5-5.4,21.1c2,9.5,8.7,9.2,8.7,9.2l1.1-3.5
				C96.5,111.4,90.6,108.6,90.6,104.3z"/>
			<polygon class="st5" points="98.9,81.4 95.8,82.3 92.1,84.5 104.1,102.1 104.1,94.7 			"/>
			<polygon class="st5" points="109.2,81.4 112.3,82.3 116,84.5 104.1,102.1 104.1,94.7 			"/>
			<path class="st4" d="M80.7,99.4c0,0,1.2,8.6,13.8,10.8c0,0-0.4-2.6-4.6-3.9c-2.9-0.9-4.6-6.8-4.6-6.8L80.7,99.4L80.7,99.4z"/>
			<polygon class="st3" points="100.6,79.9 95.8,82.3 102.9,86.3 104.3,82.1 			"/>
			<polygon class="st3" points="107.5,79.9 112.3,82.3 105.3,86.3 103.8,82.1 			"/>
			<polygon class="st6" points="108,79 104,80.7 100,79 101.1,84.8 104,82.4 106.9,84.8 			"/>
			<polygon class="st6" points="104.9,158.2 98.8,158.2 94.9,161.6 105.4,161.5 			"/>
			<polygon class="st6" points="114,158.2 119.7,158.2 124,161.6 113.5,161.5 			"/>
			<path class="st3" d="M112.3,93.9c0.6-0.4,1-1.1,0.7-1.5c-0.2-0.4-0.9-0.5-1.6-0.2c0-0.8-0.5-1.4-1-1.4s-0.9,0.6-1,1.3
				c-0.7-0.3-1.4-0.3-1.7,0.2c-0.2,0.4,0,1.1,0.6,1.5c-0.6,0.4-1,1.1-0.7,1.5c0.2,0.4,0.9,0.5,1.6,0.2c0,0.8,0.5,1.4,1,1.4
				s0.9-0.6,1-1.3c0.7,0.3,1.4,0.3,1.7-0.2C113.2,95,112.9,94.3,112.3,93.9z M110.4,93.8L110.4,93.8L110.4,93.8L110.4,93.8
				L110.4,93.8L110.4,93.8L110.4,93.8z"/>
		</g>
	</g>
	<g>
		<g>
			<path class="st5" d="M50.7,123.2c-0.6-2.2-0.9-4.6-0.4-6.9c0.5-2.2,2-4.4,4.2-5.2c1.4-0.6,3-0.5,4.5-0.5
				c8.2,0.2,16.3,0.3,24.5,0.5h14.2c8.2-0.2,16.3-0.3,24.5-0.5c1.5,0,3.1-0.1,4.5,0.5c2.2,0.8,3.7,2.9,4.2,5.2
				c0.5,2.2,0.2,4.6-0.4,6.9"/>
		</g>
		<g>
			<g>
				<path class="st6" d="M53.8,144.6c2.6,4.2,7.2,6.8,12,7.9c4.8,1.2,9.8,1,14.7,0.8h20.3c4.9,0.2,9.9,0.3,14.7-0.8
					c4.8-1.2,9.4-3.8,12-7.9c1.8-2.9,2.5-6.3,3.4-9.6c0.6-2.1,1.4-4.2,2.5-6c-0.4-1-0.6-2.2-1.1-3.2c-1.2-2.6-4.1-4.1-6.9-5
					c-8-2.8-16.6-3.4-25-4c-2.3-0.2-19.5,0-19.5,0c-8.4,0.6-17,1.2-25,4c-2.8,1-5.6,2.4-6.9,5c-0.5,1-0.7,2.2-1.1,3.2
					c1.2,1.8,1.9,3.9,2.5,6C51.4,138.2,52,141.7,53.8,144.6z"/>
			</g>
			<g>
				<path class="st5" d="M146.5,142.5c-1.2-4.3-3.7-8.7-7.9-10.1c-1.4-0.5-3-0.6-4.1-1.6c-0.5-0.5-0.9-1.1-1.1-1.8
					c-1.2,1.8-1.9,3.9-2.5,6c-0.9,3.3-1.6,6.7-3.4,9.6c-2.6,4.2-7.2,6.8-12,7.9c-4.8,1.2-9.8,1-14.7,0.8H80.5
					c-4.9,0.2-9.9,0.3-14.7-0.8c-4.8-1.2-9.4-3.8-12-7.9c-1.8-2.9-2.5-6.3-3.4-9.6c-0.6-2.1-1.4-4.2-2.5-6c-0.3,0.7-0.6,1.3-1.1,1.8
					c-1.1,1-2.7,1.1-4.1,1.6c-4.2,1.4-6.7,5.8-7.9,10.1c-1.9,6.8-1.7,14-1.5,21.1c0.1,1.9,0.2,3.9,1.5,5.3c1.4,1.5,3.8,1.6,5.9,1.6
					c16.5,0.1,33,1.4,49.5,0.5h1.1c16.5,0.9,33-0.4,49.5-0.5c2.1,0,4.4-0.1,5.9-1.6c1.3-1.4,1.4-3.4,1.5-5.3
					C148.2,156.5,148.5,149.3,146.5,142.5z"/>
			</g>
		</g>
		<g>
			<g>
				<path class="st0" d="M47.9,155.5c-1-0.1-2.1,0-3.1,0.1c-0.3,0-0.6,0.1-0.8,0.3c-0.3,0.3-0.3,0.7-0.3,1.1c0,0.7,0.1,1.5,0.2,2.2
					c0,0.4,0.1,0.9,0.5,1.2c0.3,0.2,0.6,0.2,0.9,0.1c1,0,2-0.1,3-0.1h2.4c1,0,2,0.1,3,0.1c0.3,0,0.6,0,0.9-0.1
					c0.4-0.2,0.5-0.7,0.5-1.2c0.1-0.7,0.1-1.5,0.2-2.2c0-0.4,0-0.9-0.3-1.1c-0.2-0.2-0.5-0.3-0.8-0.3c-1-0.1-2.1-0.2-3.1-0.1H47.9z"
					/>
			</g>
			<g>
				<path class="st0" d="M130.3,155.5c-1-0.1-2.1,0-3.1,0.1c-0.3,0-0.6,0.1-0.8,0.3c-0.3,0.3-0.3,0.7-0.3,1.1c0,0.7,0.1,1.5,0.2,2.2
					c0,0.4,0.1,0.9,0.5,1.2c0.3,0.2,0.6,0.2,0.9,0.1c1,0,2-0.1,3-0.1h2.4c1,0,2,0.1,3,0.1c0.3,0,0.6,0,0.9-0.1
					c0.4-0.2,0.5-0.7,0.5-1.2c0.1-0.7,0.1-1.5,0.2-2.2c0-0.4,0-0.9-0.3-1.1c-0.2-0.2-0.5-0.3-0.8-0.3c-1-0.1-2.1-0.2-3.1-0.1H130.3z
					"/>
			</g>
		</g>
		<g>
			<path class="st3" d="M34,167.6c0.3,1.6,0.6,3.1,0.8,4.7c0.4,2,0.8,4.2,2.5,5.3c0.9,0.6,2.1,0.8,3.2,0.9c4.9,0.5,9.8,0.6,14.7,0.4
				h70.6c4.9,0.2,9.8,0,14.7-0.4c1.1-0.1,2.3-0.3,3.2-0.9c1.7-1.1,2.2-3.3,2.5-5.3c0.3-1.6,0.6-3.1,0.8-4.7H34z"/>
			<g>
				<path class="st3" d="M32.6,168c1,5.8,1.3,11.1,8,11.9c5.2,0.6,10.3,0.5,15.5,0.4c6-0.1,12.1,0,18.1,0c16.6,0,33.2-0.1,49.8,0
					c4.3,0,8.7,0.1,13-0.1c3-0.2,6.6-0.1,8.8-2.4c2.3-2.4,2.3-6.8,2.9-9.8c0.2-0.9-0.4-1.9-1.4-1.9c-33.1,0-66.1,0-99.2,0
					c-4.7,0-9.4,0-14.1,0c-1.9,0-1.9,3,0,3c33.1,0,66.1,0,99.2,0c4.7,0,9.4,0,14.1,0c-0.5-0.6-1-1.3-1.4-1.9
					c-0.7,4.1-0.5,8.6-5.4,9.7c-4,0.9-8.6,0.6-12.6,0.5c-1.5,0-2.9-0.1-4.4-0.1c-6.1,0-12.1,0-18.2,0c-15.3,0-30.5,0-45.8,0
					c-1.4,0-2.7,0-4.1,0c-3.7,0-7.4,0.1-11.1-0.1c-3.5-0.2-6.5-0.4-7.7-4.1c-0.6-1.8-0.7-4-1.1-5.9C35.1,165.4,32.2,166.2,32.6,168z
					"/>
			</g>
		</g>
		<g>
			<g>
				<path class="st6" d="M39,178.2c0.6,2.8,1.4,5.6,2.3,8.3c0.2,0.6,0.4,1.3,0.9,1.7c0.4,0.4,0.9,0.6,1.4,0.7
					c1.6,0.5,3.3,0.7,4.9,0.5c0.9-0.1,1.9-0.3,2.5-0.9c0.4-0.4,0.7-1,0.9-1.6c0.9-2.5,1.5-5.2,1.6-7.9"/>
				<g>
					<path class="st6" d="M38.3,178.4c0.7,3,1.2,6.7,2.7,9.4c1.1,2,3.5,2.3,5.6,2.4c2.1,0.1,4.5,0,5.7-2c1.5-2.6,1.9-6.2,2.1-9.1
						c0.1-1-1.4-1-1.5,0c-0.1,2-0.4,3.9-1,5.8c-0.4,1.5-0.8,3.1-2.6,3.8c-1,0.4-2.5,0.1-3.6,0c-4.6-0.7-5.1-6.8-6-10.6
						C39.5,177.1,38.1,177.5,38.3,178.4L38.3,178.4z"/>
				</g>
			</g>
			<g>
				<path class="st6" d="M127.7,178.9c0.6,2.8,1.4,4.9,2.3,7.6c0.2,0.6,0.4,1.3,0.9,1.7c0.4,0.4,0.9,0.6,1.4,0.7
					c1.6,0.5,3.3,0.7,4.9,0.5c0.9-0.1,1.9-0.3,2.5-0.9c0.4-0.4,0.7-1,0.9-1.6c0.9-2.5,1.5-6,1.6-8.7"/>
				<g>
					<path class="st6" d="M127,179.1c0.6,2.8,1.2,6.7,2.9,9.1c1.3,1.9,4.3,2.2,6.4,2.2c2.5,0,4.1-0.7,5.1-3.1c1.1-2.8,1.4-6,1.6-8.9
						c0.1-1-1.4-1-1.5,0c-0.3,4-0.4,10.6-5.7,10.5c-3.2-0.1-4.7-1.4-5.7-4.4c-0.6-1.9-1.2-3.8-1.6-5.7
						C128.2,177.8,126.8,178.2,127,179.1L127,179.1z"/>
				</g>
			</g>
		</g>
		<g>
			<g>
				<path class="st9" d="M59.4,165.6c-0.1,4.3-0.2,8.6-0.2,12.9c0,0.7,0,1.5,0.5,2.1c0.4,0.6,1.5,0.8,1.9,0.1
					c0.2-0.2,0.2-0.5,0.2-0.8c0.4-4.9,0.4-9.9,0-14.9c0-0.5-0.1-1-0.3-1.4c-0.3-0.4-0.8-0.7-1.3-0.5c-0.6,0.2-0.7,1-0.6,1.6
					L59.4,165.6z"/>
				<g>
					<path class="st9" d="M57.9,165.6c-0.1,3.4-0.2,6.9-0.2,10.3c0,1.7-0.4,4.3,0.9,5.7c0.9,1,2.6,1.3,3.7,0.4
						c1.3-1.1,1-3.3,1.1-4.8c0.2-3.2,0.2-6.3,0-9.5c-0.1-1.8,0.2-4.5-1.5-5.7c-2.6-1.8-3.7,1.1-4,3.1c-0.3,1.9,2.6,2.7,2.9,0.8
						c0.1-0.4,0.2-0.8,0.2-1.1c0.1-0.4-0.1-0.4-0.8,0.2c0.1,0.7,0.1,1.3,0.1,2c0.2,2.9,0.2,5.9,0.1,8.8c0,0.6-0.5,2.7,0.3,2.6
						c0,0,0-3.4,0-3.9c0-3,0.1-6,0.2-9C60.9,163.7,57.9,163.7,57.9,165.6z"/>
				</g>
			</g>
			<g>
				<path class="st9" d="M119.4,165.6c-0.1,4.3-0.2,8.6-0.2,12.9c0,0.7,0,1.5,0.5,2.1c0.4,0.6,1.5,0.8,1.9,0.1
					c0.2-0.2,0.2-0.5,0.2-0.8c0.4-4.9,0.4-9.9,0-14.9c0-0.5-0.1-1-0.3-1.4c-0.3-0.4-0.8-0.7-1.3-0.5c-0.6,0.2-0.7,1-0.6,1.6
					L119.4,165.6z"/>
				<g>
					<path class="st9" d="M117.9,165.6c-0.1,3.4-0.2,6.9-0.2,10.3c0,1.7-0.4,4.3,0.9,5.7c0.9,1,2.6,1.3,3.7,0.4
						c1.3-1.1,1-3.3,1.1-4.8c0.2-3.2,0.2-6.3,0-9.5c-0.1-1.8,0.2-4.5-1.5-5.7c-2.6-1.8-3.7,1.1-4,3.1c-0.3,1.9,2.6,2.7,2.9,0.8
						c0.1-0.4,0.2-0.8,0.2-1.1c0.1-0.4-0.1-0.4-0.8,0.2c0.1,0.7,0.1,1.3,0.1,2c0.2,2.9,0.2,5.9,0.1,8.8c0,0.6-0.5,2.7,0.3,2.6
						c0,0,0-3.4,0-3.9c0-3,0.1-6,0.2-9C121,163.7,118,163.7,117.9,165.6z"/>
				</g>
			</g>
		</g>
		<g>
			<g>
				<path class="st10" d="M73.2,166.4c1.7,13.2-3.4,29.7-16.3,35.8c-0.6,0.3-0.1,1.1,0.5,0.8c13.1-6.2,18.5-23.1,16.7-36.7
					C74.1,165.8,73.1,165.8,73.2,166.4L73.2,166.4z"/>
				<g>
					<path class="st1" d="M53.7,201c-1,0.4-1.9,0.9-2.8,1.4c-0.2,0.2-0.5,0.3-0.6,0.6c-0.2,0.4,0,0.8,0.2,1.2
						c0.3,0.6,0.7,1.3,1.1,1.9c0.2,0.4,0.5,0.8,1,0.9c0.3,0,0.6-0.1,0.9-0.2c0.9-0.4,1.8-0.9,2.7-1.3l2.2-1c0.9-0.4,1.8-0.8,2.8-1.2
						c0.3-0.1,0.6-0.3,0.7-0.5c0.2-0.4,0.1-0.9,0-1.3c-0.2-0.7-0.5-1.4-0.8-2.1c-0.2-0.4-0.4-0.8-0.7-0.9c-0.3-0.1-0.6,0-0.8,0.1
						c-1,0.3-2,0.7-2.9,1.2L53.7,201z"/>
				</g>
			</g>
			<g>
				<path class="st11" d="M107.1,166.4c-1.7,13.5,3.6,30.4,16.7,36.7c0.6,0.3,1-0.6,0.5-0.8c-12.9-6.1-17.9-22.6-16.3-35.8
					C108.1,165.8,107.2,165.8,107.1,166.4L107.1,166.4z"/>
				<g>
					<path class="st1" d="M127.6,201c1,0.4,1.9,0.9,2.8,1.4c0.2,0.2,0.5,0.3,0.6,0.6c0.2,0.4,0,0.8-0.2,1.2
						c-0.3,0.6-0.7,1.3-1.1,1.9c-0.2,0.4-0.5,0.8-1,0.9c-0.3,0-0.6-0.1-0.9-0.2c-0.9-0.4-1.8-0.9-2.7-1.3l-2.2-1
						c-0.9-0.4-1.8-0.8-2.8-1.2c-0.3-0.1-0.6-0.3-0.7-0.5c-0.2-0.4-0.1-0.9,0-1.3c0.2-0.7,0.5-1.4,0.8-2.1c0.2-0.4,0.4-0.8,0.7-0.9
						c0.3-0.1,0.6,0,0.8,0.1c1,0.3,2,0.7,2.9,1.2L127.6,201z"/>
				</g>
			</g>
		</g>
		<g>
			<path class="st11" d="M90.2,166.4c0,11.8,0,23.7,0,35.5c0,1.7,0,3.4,0,5c0,0.6,0.9,0.6,0.9,0c0-11.8,0-23.7,0-35.5
				c0-1.7,0-3.4,0-5C91.1,165.8,90.2,165.8,90.2,166.4L90.2,166.4z"/>
			<g>
				<path class="st1" d="M88.1,209.9c-0.1,1,0,2.1,0.1,3.1c0,0.3,0.1,0.6,0.3,0.8c0.3,0.3,0.7,0.3,1.1,0.3c0.7,0,1.5-0.1,2.2-0.2
					c0.4,0,0.9-0.1,1.2-0.5c0.2-0.3,0.2-0.6,0.1-0.9c0-1-0.1-2-0.1-3v-2.4c0-1,0.1-2,0.1-3c0-0.3,0-0.6-0.1-0.9
					c-0.2-0.4-0.7-0.5-1.2-0.5c-0.7-0.1-1.5-0.1-2.2-0.2c-0.4,0-0.9,0-1.1,0.3c-0.2,0.2-0.3,0.5-0.3,0.8c-0.1,1-0.2,2.1-0.1,3.1
					V209.9z"/>
			</g>
		</g>
	</g>
</g>
</svg>
