<?xml version="1.0" encoding="utf-8"?>
<!-- Generator: Adobe Illustrator 20.1.0, SVG Export Plug-In . SVG Version: 6.00 Build 0)  -->
<svg version="1.1" id="Layer_1" xmlns="http://www.w3.org/2000/svg" xmlns:xlink="http://www.w3.org/1999/xlink" x="0px" y="0px"
	 viewBox="0 0 120 20" style="enable-background:new 0 0 120 20;" xml:space="preserve">
<style type="text/css">
	.st0{fill:#3F3B3C;}
</style>
<g>
	<path class="st0" d="M51,11.3c-13.9-0.7-27.9-0.2-41.8-0.4c-1.8,0-3.5-0.1-5.3-0.1v2c1.8,0,3.5,0.1,5.3,0.1
		C23.1,13.2,37.3,14,51,12.4C51.7,12.3,51.8,11.3,51,11.3z"/>
	<path class="st0" d="M68.5,11.3c13.9-0.7,27.9-0.2,41.8-0.4c1.8,0,3.5-0.1,5.3-0.1v2c-1.8,0-3.5,0.1-5.3,0.1
		c-13.8,0.3-28.1,1.1-41.8-0.5C67.8,12.3,67.8,11.3,68.5,11.3z"/>
	<path class="st0" d="M64.1,6c-1.2-0.9-2.8-0.4-3.8,0.6c-0.5,0.4-0.8,1-1,1.5c-1-0.8-2.3-1.4-3.7-1.5c-0.6,0-1.2,0.6-1.1,1.1
		c0.4,3.2,2.1,6.2,5.2,7.5c0.3,0.1,0.6,0.1,0.8-0.1c0.3,0.2,0.7,0.3,1.1,0.1C63.9,14.1,66.7,7.9,64.1,6z"/>
</g>
</svg>
