<?xml version="1.0" encoding="utf-8"?>
<!-- Generator: Adobe Illustrator 21.0.0, SVG Export Plug-In . SVG Version: 6.00 Build 0)  -->
<svg version="1.1" id="Layer_1" xmlns="http://www.w3.org/2000/svg" xmlns:xlink="http://www.w3.org/1999/xlink" x="0px" y="0px"
	 viewBox="0 0 1000 600" style="enable-background:new 0 0 1000 600;" xml:space="preserve">
<style type="text/css">
	.st0{fill-rule:evenodd;clip-rule:evenodd;fill:none;}
</style>
<g>
	<path d="M132.7,330.3c19.2,0,34.8-15.6,34.8-34.8c0-19.2-15.6-34.8-34.8-34.8c-19.2,0-34.8,15.6-34.8,34.8
		C97.9,314.7,113.5,330.3,132.7,330.3L132.7,330.3z M132.7,363.2c37,0,67-30,67-67c0-37-30-67-67-67c-37,0-67,30-67,67
		C65.7,333.2,95.7,363.2,132.7,363.2L132.7,363.2z M31.8,296.2c0-55.7,45.2-100.9,100.9-100.9c55.7,0,100.9,45.2,100.9,100.9
		c0,55.7-45.2,100.9-100.9,100.9C77,397.1,31.8,351.9,31.8,296.2L31.8,296.2z"/>
	<polygon points="266.3,223.8 381.2,223.8 381.2,252.8 341.7,252.8 341.7,369 306.6,369 306.6,253 266.3,253 266.3,223.8 	"/>
	<path d="M554.3,253h-32.2v29c0,0,25.1,0.1,28.9,0c10.1-0.2,17.9-4.7,17.9-14.6C568.9,256.6,562.3,253,554.3,253L554.3,253z
		 M488.6,223.8c0,0,26.4,0,68.2,0c38.8,0,44.1,26.5,44.1,42c0,22.5-19.3,33.7-21.1,34.2c0,0,17,6.3,17,25.6v27.1
		c0,10.9,6.7,13.9,7.8,16.4H577c-13.2-1.5-13-12-12.9-18v-23.3c-0.3-5.7-2-12-14-12.2h-28V369h-33.6L488.6,223.8L488.6,223.8z"/>
	<polygon points="749.2,223.8 749.2,369 853.8,369 853.8,339.2 783.4,339.2 783.4,306.7 843.5,306.7 843.5,279.2 783.4,279.2 
		783.4,253 853.8,253 853.8,223.8 749.2,223.8 	"/>
	<polygon points="858.8,253 900.2,253 900.2,369 934.6,369 934.6,253 976.7,253 976.7,223.8 858.8,223.8 858.8,253 	"/>
	<path d="M417.5,275l-12.4,37.5h25.5L417.5,275L417.5,275z M398.1,223.8h37.3L486.1,369H450l-10.5-30.2h-42.9l-9.9,30.2h-35.8
		L398.1,223.8L398.1,223.8z"/>
	<path d="M737.2,287.9h-62.4v28.2h29.6c-0.1,5.8,0.9,11.6-6.1,19.8c-2.4,2.8-10.5,9-21.8,9c-9.6,0-16.4-2.7-22.4-7.8
		c-13.2-11.2-16.3-32.1-16.3-43c0-13.8,5.5-47.9,39.1-49.3c0,0,22.7-1.5,28.6,25.9H737c-0.6-13.9-16.8-52.8-60-52.8
		c-14.9,0-33.9,4.5-49.6,20.2c-11.4,11.4-21.6,30.5-21.6,57.5c0,29.2,10.8,48.2,20.6,58.7C643.6,372.5,661,374,670,374
		c7.2,0,20.9-1.1,38.8-13.1l4.7,8.2h23.6V287.9L737.2,287.9z"/>
	<path d="M950.5,359.5h1.8c1.2,0,2-0.2,2-1.4c0-1.1-1.2-1.3-2.1-1.3h-1.7V359.5L950.5,359.5z M948.5,355.2h3.9c2.6,0,4,0.8,4,3
		c0,1.9-1.2,2.6-2.7,2.7l2.7,4.5h-2.1l-2.5-4.4h-1.3v4.4h-2V355.2L948.5,355.2z M952.2,367.5c3.8,0,6.9-3,6.9-7.2
		c0-4.2-3.1-7.2-6.9-7.2c-3.9,0-6.9,3-6.9,7.2C945.2,364.5,948.3,367.5,952.2,367.5L952.2,367.5z M952.2,351.2c5,0,9.4,3.6,9.4,9.1
		c0,5.6-4.4,9.2-9.4,9.2c-5,0-9.4-3.6-9.4-9.2C942.7,354.8,947.2,351.2,952.2,351.2L952.2,351.2z"/>
	<polygon class="st0" points="0.7,175.1 999,175.1 999,425 0.7,425 0.7,175.1 0.7,175.1 	"/>
</g>
</svg>
