<?xml version="1.0" encoding="utf-8"?>
<!-- Generator: Adobe Illustrator 20.1.0, SVG Export Plug-In . SVG Version: 6.00 Build 0)  -->
<svg version="1.1" id="Layer_1" xmlns="http://www.w3.org/2000/svg" xmlns:xlink="http://www.w3.org/1999/xlink" x="0px" y="0px"
	 viewBox="0 0 180 250" style="enable-background:new 0 0 180 250;" xml:space="preserve">
<style type="text/css">
	.st0{fill-rule:evenodd;clip-rule:evenodd;fill:#99DBF9;}
	.st1{fill-rule:evenodd;clip-rule:evenodd;fill:#FFFFFF;}
	.st2{fill-rule:evenodd;clip-rule:evenodd;fill:#EDE5D6;}
	.st3{fill-rule:evenodd;clip-rule:evenodd;fill:#DCD2C2;}
</style>
<g>
	
		<ellipse transform="matrix(0.9999 -1.018676e-02 1.018676e-02 0.9999 -1.391 0.9209)" class="st0" cx="89.7" cy="137" rx="73" ry="103.9"/>
	<g>
		<g>
			<path class="st1" d="M48.9,213.6l59.4-7.5c-5.7-4.3-15.8-6.7-26.4-6.2l-7.6-54.2c22.7-6.9,5.9-78.1,5.9-78.1L37,73
				c0,0,2.2,75.3,29.8,74l6.1,54C62.5,203.2,53.3,208,48.9,213.6z"/>
			<path class="st2" d="M45,93.2l33.5-4.2c0,0,9.4,50.8-9.3,51.8C47.4,142,45,93.2,45,93.2z"/>
			<ellipse transform="matrix(0.992 -0.1259 0.1259 0.992 -9.703 9.3149)" class="st2" cx="68.9" cy="81.4" rx="3.4" ry="3.4"/>
			<ellipse transform="matrix(0.992 -0.126 0.126 0.992 -10.0086 6.7793)" class="st2" cx="48.6" cy="82.5" rx="4.9" ry="4.9"/>
			<ellipse transform="matrix(0.9921 -0.1257 0.1257 0.9921 -8.9614 8.1063)" class="st2" cx="59.7" cy="75" rx="2.6" ry="2.6"/>
			<ellipse transform="matrix(0.992 -0.1261 0.1261 0.992 -5.4584 9.6759)" class="st2" cx="73.7" cy="47.9" rx="2.6" ry="2.6"/>
			<ellipse transform="matrix(0.992 -0.1259 0.1259 0.992 -10.5508 8.6584)" class="st2" cx="63.2" cy="87.8" rx="2.3" ry="2.3"/>
			<ellipse transform="matrix(0.992 -0.1258 0.1258 0.992 -3.9665 8.84)" class="st2" cx="68" cy="35.8" rx="2.3" ry="2.2"/>
			<ellipse transform="matrix(0.992 -0.1259 0.1259 0.992 -8.7082 10.2314)" class="st2" cx="76.6" cy="74" rx="2.3" ry="2.3"/>
			<ellipse transform="matrix(0.992 -0.1259 0.1259 0.992 -7.3096 9.2416)" class="st2" cx="69.5" cy="62.5" rx="5.6" ry="5.6"/>
			<ellipse transform="matrix(0.992 -0.1261 0.1261 0.992 -6.3188 6.9444)" class="st2" cx="51.7" cy="53.4" rx="2.6" ry="2.6"/>
			<ellipse transform="matrix(0.992 -0.1259 0.1259 0.992 -5.6494 8.1047)" class="st2" cx="61.3" cy="48.8" rx="4.5" ry="4.5"/>
		</g>
		<g>
			<path class="st1" d="M84.1,178.9l59.3,8.1c-4.4-5.7-13.6-10.5-23.9-12.9l6.7-54.4c23.7-0.8,25.9-73.9,25.9-73.9L109,40
				c0,0-17.4,73.3,9.6,79.2l-8.1,53.7C99.9,172.4,89.8,174.6,84.1,178.9z"/>
			<path class="st2" d="M111.5,61.5l33.4,4.6c0,0-4,51.5-22.4,47.7C101.2,109.3,111.5,61.5,111.5,61.5z"/>
			
				<ellipse transform="matrix(0.1348 -0.9909 0.9909 0.1348 63.1797 185.0822)" class="st2" cx="137.6" cy="56.4" rx="3.4" ry="3.4"/>
			<ellipse transform="matrix(0.135 -0.9908 0.9908 0.135 50.1578 161.7377)" class="st2" cx="117.7" cy="52.1" rx="4.9" ry="4.9"/>
			
				<ellipse transform="matrix(0.1351 -0.9908 0.9908 0.1351 65.4232 170.5782)" class="st2" cx="130.4" cy="47.8" rx="2.6" ry="2.6"/>
			
				<ellipse transform="matrix(0.1351 -0.9908 0.9908 0.1351 105.4964 171.3601)" class="st2" cx="150.9" cy="25.3" rx="2.6" ry="2.6"/>
			
				<ellipse transform="matrix(0.1354 -0.9908 0.9908 0.1354 52.3173 182.1031)" class="st2" cx="130.5" cy="61.1" rx="2.3" ry="2.3"/>
			
				<ellipse transform="matrix(0.135 -0.9908 0.9908 0.135 116.5369 157.6111)" class="st2" cx="148.5" cy="12.1" rx="2.2" ry="2.3"/>
			<ellipse transform="matrix(0.1354 -0.9908 0.9908 0.1354 76.3448 189.9082)" class="st2" cx="147" cy="51.2" rx="2.2" ry="2.3"/>
			
				<ellipse transform="matrix(0.1351 -0.9908 0.9908 0.1351 85.9161 174.8018)" class="st2" cx="143.1" cy="38.2" rx="5.6" ry="5.6"/>
			
				<ellipse transform="matrix(0.1352 -0.9908 0.9908 0.1352 86.3265 148.5342)" class="st2" cx="128.3" cy="24.8" rx="2.6" ry="2.6"/>
			
				<ellipse transform="matrix(0.1351 -0.9908 0.9908 0.1351 97.3707 157.2222)" class="st2" cx="138.7" cy="22.8" rx="4.5" ry="4.5"/>
		</g>
		<g>
			<path class="st3" d="M71.3,102.2c-3.5-4.5-5.8,1-6.7,4.6c-1.8-3.2-5.5-8-7.7-2.8c-2,4.7,6.4,22,11.1,28.3
				C70.7,125.2,74.4,106.2,71.3,102.2z"/>
		</g>
		<g>
			<path class="st3" d="M136.7,78.3c-2.1-5.3-5.9-0.6-7.8,2.6c-0.8-3.6-3-9.2-6.6-4.8c-3.2,4,0,23,2.7,30.3
				C129.8,100.2,138.5,83,136.7,78.3z"/>
		</g>
	</g>
</g>
</svg>
