<?xml version="1.0" encoding="utf-8"?>
<!-- Generator: Adobe Illustrator 20.1.0, SVG Export Plug-In . SVG Version: 6.00 Build 0)  -->
<svg version="1.1" id="Layer_1" xmlns="http://www.w3.org/2000/svg" xmlns:xlink="http://www.w3.org/1999/xlink" x="0px" y="0px"
	 viewBox="0 0 190 50" style="enable-background:new 0 0 190 50;" xml:space="preserve">
<g>
	<path d="M76,20.4c-0.1,0.6,0.7,0.9,1,0.4c3.6-5.9,10.5-0.6,6.5,4c-2.1,2.4-5.4,2.4-8.2,1.8c-3.8-0.9-7.3-3-10.8-4.6c0,0,0,0,0,0
		c0.6-1.6,0.5-3.2-0.2-4.8c-0.7-1.4-2-3-3.8-3c-3.2,0-1.3,3.9,0.6,6.4c-3.8-1.5-7.8-2.4-12-2.1c-0.5-2.3-6-7-8.2-4.3
		c-0.9,1.2-0.3,2.7,0.7,3.5c1.2,0.9,2.8,1.2,4.3,1.3c-3.5,0.9-6.3,2.7-9.1,4.8c-1.4-1.3-3.1-2-5-1.9c-1.5,0.1-3.6,0.7-3.9,2.5
		c-0.3,1.9,2,2.1,3.4,2.1c1.3-0.1,2.7-0.5,3.8-1.3c-0.7,0.6-1.4,1.1-2.1,1.7c-1.5,1.2-3.2,2.1-4.9,2.7c-0.1-0.1-0.3-0.1-0.4,0.1
		c0,0,0,0,0,0c-1,0.3-2.1,0.5-3.1,0.6c0,0,0-0.1,0-0.2c0.1-2.2-0.6-4.3-2.1-6c-1-1.1-2.9-2.6-4.5-1.9c-1.5,0.6-1.6,2.5-1,3.8
		c0.5,1,1.4,1.7,2.3,2.4c0.6,0.6,1.3,1.1,1.9,1.7c-2.7-0.5-5.3-1.9-7.5-4.1c0.2-0.1,0.2-0.3,0.1-0.6c-1.2-1.8-0.8-4.1-2-5.9
		c-0.8-1.1-2.1-1.9-3.4-1.3c-1.4,0.7-1.5,2.6-0.9,3.9c1,1.9,3,3.2,5,3.9c0.1,0,0.1,0,0.2,0c0.7,1,1.6,1.9,2.5,2.6
		c-1.6-0.6-3.4-1.1-4.9-0.2c-1.2,0.7-2.1,2.3-1.4,3.6c0.7,1.5,2.6,1.6,4.1,1.4c2-0.4,3.7-1.5,4.9-3c1.7,0.8,3.6,1.3,5.6,1.4
		c0.2,0.1,0.4,0.1,0.5,0c-0.6,0.4-1.1,0.8-1.4,1.3c-0.9,1.3-0.8,3.4,0.9,4c1.7,0.6,3.5-0.6,4.5-1.8c1.1-1.3,1.7-2.8,1.7-4.5
		c0.9-0.3,1.7-0.8,2.5-1.3c2.1-1.4,4-3,5.9-4.5c-0.2,0.3-0.3,0.6-0.4,0.9c-0.6,1.3-1,3.6,0.6,4.5c1.5,0.8,3.1-0.9,3.7-2.2
		c0.9-1.8,0.9-4.2,0.4-6.1c1.2-0.7,2.5-1.2,4-1.6c3.5-0.9,6.8-0.7,10.1,0.1c-3.2,0.7-7.8,2.3-5.9,4.8c1,1.4,3.2,1,4.5,0.5
		c2-0.8,3.7-2.3,4.9-4c0-0.1,0-0.1,0.1-0.1c1.8,0.6,3.5,1.4,5.2,2.2c1,0.5,2.1,1,3.1,1.5c-3.1,0.8-7.2,2.9-4.4,5.1
		c2.9,2.2,7.1-0.4,8.6-3.2c2.2,0.8,4.5,1.4,6.8,1.2c3.1-0.2,6.4-2.4,7.1-5.6C87.5,16.4,77.6,13.9,76,20.4z M9.1,22.9
		c-0.6-0.6-1.2-1.5-1-2.4c0.3-1.4,1.7-1.4,2.5-0.5c1,1.1,1,2.5,1.3,3.9c-0.9-0.8-1.6-1.7-2.2-2.8c-0.1-0.2-0.5-0.1-0.4,0.2
		c0.4,1.5,1.5,2.9,2.9,3.6c0.1,0.2,0.1,0.3,0.2,0.5C11.2,24.8,10,24,9.1,22.9z M10.8,32.5C9,32,9.1,30.4,10.4,29.6
		c0.9-0.6,1.9-0.5,2.9-0.3c0.8,0.2,1.5,0.5,2.3,0.8c-1.4,0.6-2.7,1-4.4,0.9c-0.3,0-0.4,0.5-0.1,0.6c1.8,0.3,4,0.1,5.5-1.2
		c0,0,0.1,0,0.1,0C15.1,31.8,12.8,33,10.8,32.5z M23.4,30.5c-0.1-1-0.8-1.9-1.3-2.7c-0.6-1-1.3-1.9-2.1-2.8
		c-0.2-0.2-0.4,0.1-0.3,0.3c0.7,0.9,1.4,1.8,1.9,2.8c0.4,0.7,0.6,1.5,1,2.2c-0.7-0.7-1.4-1.3-2.2-2c-0.9-0.8-3.3-2.5-2.7-4
		c1-2.6,4.4,1.1,4.9,1.9c0.8,1.3,1.2,2.7,1.2,4.1c0,0.1,0,0.1,0,0.2C23.7,30.5,23.6,30.5,23.4,30.5z M24.7,36.1c-0.9,0.3-1.9,0-2-1
		c-0.2-1,0.7-1.7,1.4-2.2c0.8-0.5,1.7-0.8,2.6-1c-0.1,0.1-0.1,0.2-0.2,0.3c-0.5,0.8-1.2,1.5-1.8,2.2c-0.2,0.2,0,0.5,0.3,0.4
		c1.2-0.6,2.2-2,2.9-3.3c0,0,0,0,0,0c0,0,0,0,0.1,0c0.2-0.1,0.4-0.1,0.7-0.2C28.2,33.3,26.8,35.4,24.7,36.1z M35.2,24
		c-1.5-0.4-3-0.3-4.5-0.2c-0.4,0-0.4,0.7,0,0.6c1.3-0.1,2.5,0,3.7,0.1c-0.5,0.3-1,0.5-1.6,0.7c-0.9,0.3-5.2,0.6-3.1-1.6
		c0.7-0.8,2.5-0.8,3.5-0.7c0.8,0.1,1.6,0.4,2.3,0.8C35.3,23.9,35.2,23.9,35.2,24z M41.4,25.5c-0.1,0.7-0.2,1.4-0.5,2.1
		c-0.3,0.7-1.7,3-2.8,1.2c-0.6-1,0.5-3.1,1-3.9c0.3-0.6,0.7-1.1,1.2-1.6c-0.5,1.3-0.9,2.7-1.3,4c-0.1,0.2,0.3,0.3,0.4,0.1
		c0.6-1.5,1.4-3.1,1.8-4.7c0.1-0.1,0.2-0.1,0.3-0.2C41.4,23.5,41.5,24.5,41.4,25.5z M47.6,18.3c-1.2-1-2.8-1.8-4.2-2.5
		c-0.3-0.1-0.5,0.2-0.2,0.4c1,0.7,2,1.5,3.1,2.1c-0.9-0.1-1.7-0.2-2.5-0.5c-0.5-0.1-1-0.3-1.4-0.6c-1.2-0.8-1.6-2.6,0.7-2.5
		c1,0.1,2.4,1,3.2,1.7c0.7,0.6,1.1,1.3,1.7,2C47.9,18.3,47.7,18.3,47.6,18.3z M58.8,21.7c-0.1-0.1-0.2-0.2-0.3-0.2
		c-1.5,0.5-3.1,1.1-4.6,1.8c-0.3,0.1-0.1,0.7,0.2,0.6c1.3-0.4,2.6-1,3.9-1.5c-0.6,0.6-1.3,1.1-2,1.6c-0.6,0.4-1.2,0.7-1.9,1
		c-0.5,0.2-1,0.3-1.5,0.3c-0.7,0.2-1-0.1-0.9-0.9c-0.3-1.2,0.3-1.1,1.4-1.5c0.6-0.2,1.2-0.5,1.8-0.7c1.1-0.4,2.1-0.6,3.2-0.9
		c0.3,0.1,0.6,0.2,0.9,0.3C58.9,21.6,58.8,21.7,58.8,21.7z M63.9,21.1c-0.5-1.2-1.1-2.4-1.6-3.5c-0.1-0.2-0.5-0.1-0.4,0.2
		c0.5,1.2,0.9,2.6,1.5,3.8c-0.2-0.1-0.5-0.2-0.7-0.3c-0.7-0.7-1.3-1.4-1.8-2.3c-0.3-0.6-0.8-1.3-0.9-1.9c-0.2-1.3,0.4-2.2,1.6-1.6
		C63.4,16.5,64.1,18.9,63.9,21.1z M65.7,30.2c-1.3-0.1-2.3-1.3-0.9-2.6c0.5-0.4,1.2-0.7,1.8-0.9c0.9-0.4,1.7-0.5,2.6-0.7
		c0.2,0.1,0.4,0.2,0.6,0.3c-0.3,0.3-0.7,0.6-1.1,0.9c-0.8,0.5-1.6,0.9-2.4,1.2c-0.4,0.1-0.2,0.6,0.2,0.6c1.5-0.3,3.2-1.1,4.3-2.2
		c0.3,0.1,0.6,0.3,0.9,0.4C70.3,29,68.1,30.5,65.7,30.2z"/>
	<path d="M104,23.1c0.6,3.3,3.9,5.5,7,5.8c2.3,0.2,4.6-0.3,6.8-1c1.5,2.8,5.6,5.5,8.6,3.3c2.9-2.1-1.2-4.3-4.3-5.1
		c1.1-0.5,2.1-1,3.2-1.4c1.7-0.8,3.5-1.5,5.3-2.1c0,0,0,0.1,0.1,0.1c1.2,1.8,2.9,3.3,4.8,4.1c1.3,0.5,3.5,0.9,4.5-0.4
		c1.9-2.4-2.6-4.1-5.8-4.9c3.3-0.7,6.6-0.8,10.1,0.1c1.4,0.4,2.7,1,3.9,1.7c-0.6,1.9-0.6,4.3,0.3,6.1c0.6,1.2,2.1,3,3.6,2.2
		c1.6-0.8,1.2-3.1,0.7-4.5c-0.1-0.3-0.3-0.6-0.4-0.9c1.9,1.6,3.7,3.2,5.8,4.7c0.8,0.5,1.6,1,2.5,1.3c0,1.6,0.6,3.2,1.7,4.5
		c1,1.2,2.8,2.5,4.5,1.9c1.7-0.6,1.9-2.6,1-3.9c-0.3-0.5-0.8-0.9-1.4-1.3c0.2,0.1,0.4,0.1,0.5,0c1.9-0.1,3.8-0.5,5.6-1.3
		c1.2,1.5,2.9,2.7,4.8,3.1c1.4,0.3,3.4,0.2,4.1-1.3c0.7-1.3-0.1-2.9-1.3-3.6c-1.5-0.9-3.3-0.4-4.9,0.1c0.9-0.7,1.8-1.6,2.5-2.6
		c0.1,0,0.1,0,0.2,0c1.9-0.7,4-1.9,5-3.8c0.7-1.3,0.6-3.1-0.8-3.9c-1.3-0.7-2.7,0.1-3.5,1.2c-1.3,1.7-0.9,4-2.2,5.8
		c-0.1,0.2-0.1,0.4,0.1,0.6c-2.3,2.2-4.9,3.5-7.6,4c0.6-0.5,1.3-1.1,1.9-1.6c0.8-0.7,1.8-1.4,2.3-2.4c0.7-1.3,0.6-3.2-0.9-3.8
		c-1.6-0.7-3.5,0.7-4.5,1.8c-1.5,1.6-2.3,3.7-2.3,5.9c0,0.1,0,0.1,0,0.2c-1-0.1-2.1-0.3-3.1-0.7c0,0,0,0,0,0
		c-0.1-0.2-0.3-0.2-0.4-0.1c-1.7-0.6-3.3-1.6-4.8-2.8c-0.7-0.6-1.4-1.2-2.1-1.7c1.1,0.8,2.5,1.2,3.8,1.3c1.4,0.1,3.7-0.1,3.4-2
		c-0.2-1.8-2.4-2.5-3.9-2.6c-1.9-0.1-3.7,0.5-5.1,1.8c-2.7-2.2-5.5-4-9-5c1.6,0,3.2-0.3,4.3-1.2c1.1-0.8,1.7-2.4,0.8-3.5
		c-2.1-2.8-7.7,1.8-8.3,4.1c-4.2-0.5-8.1,0.4-12,1.8c1.9-2.4,3.9-6.3,0.7-6.3c-1.7,0-3.1,1.5-3.8,3c-0.7,1.5-0.8,3.2-0.3,4.7
		c0,0,0,0,0,0c-3.6,1.5-7.1,3.5-10.9,4.3c-2.8,0.6-6.1,0.5-8.1-1.9c-3.9-4.7,3.1-9.8,6.6-3.9c0.3,0.5,1.1,0.2,1-0.4
		C112.8,14.3,102.8,16.6,104,23.1z M177.7,27.1c0.1-0.2,0.2-0.3,0.2-0.5c1.4-0.7,2.6-2,3-3.5c0.1-0.2-0.3-0.4-0.4-0.2
		c-0.7,1.1-1.4,2-2.3,2.8c0.3-1.3,0.4-2.8,1.4-3.8c0.8-0.9,2.2-0.9,2.5,0.5c0.1,0.9-0.5,1.7-1.1,2.4
		C180.1,25.7,178.9,26.5,177.7,27.1z M173.3,32.1c0,0,0.1,0,0.1,0c1.4,1.3,3.6,1.5,5.4,1.3c0.3,0,0.3-0.6-0.1-0.6
		c-1.7,0.1-3-0.3-4.4-1c0.8-0.3,1.5-0.6,2.3-0.7c1-0.2,2-0.3,2.8,0.3c1.3,0.9,1.4,2.5-0.5,2.9C177.1,34.8,174.9,33.5,173.3,32.1z
		 M166.2,32c0-0.1,0-0.1,0-0.2c0-1.5,0.4-2.9,1.2-4.1c0.5-0.7,3.9-4.4,4.9-1.8c0.6,1.5-1.9,3.1-2.8,3.9c-0.7,0.6-1.5,1.3-2.2,1.9
		c0.4-0.7,0.6-1.5,1-2.2c0.6-1,1.2-1.9,2-2.7c0.2-0.2-0.1-0.5-0.3-0.3c-0.8,0.8-1.5,1.7-2.2,2.7c-0.5,0.8-1.2,1.7-1.3,2.7
		C166.5,32,166.3,32,166.2,32z M161.4,32.6c0.2,0.1,0.4,0.2,0.7,0.2c0,0,0,0,0.1,0c0,0,0,0,0,0c0.6,1.4,1.6,2.7,2.8,3.4
		c0.2,0.1,0.4-0.2,0.3-0.4c-0.6-0.8-1.3-1.4-1.8-2.3c-0.1-0.1-0.1-0.2-0.2-0.3c0.9,0.3,1.8,0.6,2.6,1.1c0.7,0.5,1.5,1.3,1.4,2.2
		c-0.2,1-1.2,1.2-2,1C163.1,36.9,161.8,34.7,161.4,32.6z M154.7,25c0.7-0.4,1.5-0.6,2.3-0.7c1-0.1,2.8-0.1,3.5,0.8
		c2,2.2-2.3,1.8-3.2,1.5c-0.6-0.2-1.1-0.4-1.5-0.8c1.2-0.1,2.4-0.2,3.7,0c0.4,0,0.4-0.6,0-0.6c-1.5-0.2-3.1-0.3-4.5,0.1
		C154.9,25.2,154.8,25.1,154.7,25z M148.8,23.7c0.1,0.1,0.2,0.1,0.3,0.2c0.4,1.6,1.1,3.2,1.7,4.8c0.1,0.2,0.5,0.2,0.4-0.1
		c-0.4-1.3-0.7-2.7-1.2-4c0.4,0.5,0.8,1,1.1,1.6c0.4,0.8,1.6,2.9,0.9,3.9c-1.1,1.8-2.5-0.6-2.8-1.3c-0.3-0.7-0.4-1.4-0.5-2.1
		C148.6,25.7,148.7,24.7,148.8,23.7z M142.3,19.3c0.6-0.7,1-1.4,1.7-2c0.8-0.6,2.2-1.6,3.2-1.6c2.3-0.1,1.8,1.8,0.6,2.5
		c-0.4,0.3-0.9,0.4-1.4,0.6c-0.8,0.2-1.7,0.4-2.5,0.4c1.1-0.6,2.2-1.3,3.1-2c0.2-0.2,0-0.5-0.2-0.4c-1.4,0.7-3,1.5-4.3,2.5
		C142.5,19.3,142.4,19.3,142.3,19.3z M131.2,22.3c0.3-0.1,0.6-0.2,0.9-0.3c1.1,0.3,2.2,0.6,3.2,1c0.6,0.2,1.2,0.4,1.8,0.7
		c1.1,0.5,1.6,0.3,1.4,1.6c0.1,0.8-0.2,1.1-0.9,0.9c-0.5,0-1-0.1-1.5-0.3c-0.7-0.2-1.3-0.6-1.9-1c-0.7-0.5-1.3-1.1-2-1.7
		c1.3,0.6,2.6,1.1,3.9,1.6c0.3,0.1,0.6-0.4,0.3-0.6c-1.5-0.7-3-1.3-4.5-1.8c-0.2-0.1-0.3,0-0.4,0.2
		C131.3,22.4,131.3,22.3,131.2,22.3z M128.9,16.1c1.2-0.6,1.8,0.3,1.6,1.6c-0.1,0.7-0.6,1.4-0.9,1.9c-0.5,0.9-1.2,1.5-1.9,2.3
		c-0.2,0.1-0.5,0.2-0.7,0.3c0.6-1.2,1.1-2.5,1.6-3.8c0.1-0.3-0.3-0.4-0.4-0.2c-0.6,1.1-1.2,2.3-1.7,3.5
		C126.1,19.6,126.9,17.2,128.9,16.1z M118.5,27.5c0.3-0.1,0.6-0.2,0.9-0.4c1.1,1.2,2.7,2,4.2,2.3c0.4,0.1,0.5-0.4,0.2-0.6
		c-0.8-0.3-1.7-0.7-2.4-1.2c-0.4-0.3-0.7-0.6-1.1-0.9c0.2-0.1,0.4-0.2,0.6-0.2c0.9,0.2,1.7,0.4,2.6,0.7c0.6,0.3,1.3,0.5,1.8,1
		c1.4,1.3,0.4,2.5-0.9,2.6C121.9,31,119.7,29.5,118.5,27.5z"/>
	<path d="M103,18.2c-2.5-3.6-6-0.5-7.8,2.1c-1.7-2.2-4.8-4.6-6.8-1.4C86.1,22.4,92.5,26,95,27c0.2,0.1,0.3,0,0.4,0
		c0.2,0.3,0.6,0.5,1,0.3C98.9,26,105.3,21.7,103,18.2z M95.5,26.1c0,0-0.1-0.1-0.1-0.1c-1.1-0.6-2.5-1.4-3.5-2.3
		c0.7,0.6,1.5,1.2,2.4,1.7c0.1,0,0.2,0.1,0.3,0.1c0.2,0.1,0.4,0.3,0.5,0.4c0.3,0.2,0.6,0.2,0.9,0C95.8,25.8,95.7,26,95.5,26.1z"/>
</g>
</svg>
