<?xml version="1.0" encoding="utf-8"?>
<!-- Generator: Adobe Illustrator 21.0.0, SVG Export Plug-In . SVG Version: 6.00 Build 0)  -->
<svg version="1.1" id="Layer_1" xmlns="http://www.w3.org/2000/svg" xmlns:xlink="http://www.w3.org/1999/xlink" x="0px" y="0px"
	 viewBox="0 0 150 19.7" style="enable-background:new 0 0 150 19.7;" xml:space="preserve">
<style type="text/css">
	.st0{fill:#231F20;}
</style>
<g>
	<path class="st0" d="M8.5,9.9c-0.1,0-0.3,0.1-0.7,0.2c0.3,0,0.8-0.1,2.1-0.4C9.9,9.6,9.4,9.7,8.5,9.9z"/>
	<path class="st0" d="M25.2,14.8c0.2,0,0.4-0.1,0.7-0.2c0.3-0.1,0.6-0.1,0.9-0.2c0.6-0.1,1.2-0.3,1.4-0.3c-1,0.2-1.1,0.2-2.3,0.5
		C26.3,14.6,24.8,14.9,25.2,14.8z"/>
	<path class="st0" d="M14.9,17.3L14.9,17.3L14.9,17.3L14.9,17.3z"/>
	<path class="st0" d="M3.1,11.4c0,0-0.1,0-0.1,0C3,11.5,3,11.5,3.1,11.4z"/>
	<path class="st0" d="M12.4,18.1c-0.1,0-0.2,0-0.3,0C12.2,18.2,12.3,18.1,12.4,18.1z"/>
	<path class="st0" d="M12.6,18.1C12.5,18.1,12.5,18.1,12.6,18.1c-0.1,0-0.1,0-0.2,0C12.4,18.1,12.5,18.1,12.6,18.1z"/>
	<path class="st0" d="M3.2,16.6c-0.1-0.1-0.2-0.1-0.3-0.2C3,16.5,3.1,16.5,3.2,16.6z"/>
	<path class="st0" d="M12.1,18.2L12.1,18.2C12.1,18.2,12,18.2,12.1,18.2C12,18.2,12.1,18.2,12.1,18.2z"/>
	<path class="st0" d="M9.2,18.4c-0.1,0-0.2,0-0.3,0C9,18.3,9,18.4,9.2,18.4z"/>
	<path class="st0" d="M148.8,8.7L148.8,8.7l-0.4-0.1c0.1,0,0.2,0,0.2,0.1C148.6,8.7,148.6,8.7,148.8,8.7
		C148.7,8.7,148.8,8.7,148.8,8.7L148.8,8.7C148.8,8.8,148.8,8.8,148.8,8.7C148.8,8.7,148.8,8.7,148.8,8.7z"/>
	<path class="st0" d="M147.3,8.3c0,0,0.1,0,0.1,0c-0.1,0-0.2,0-0.3-0.1L147.3,8.3z"/>
	<path class="st0" d="M150.5,7.2L150.5,7.2L150.5,7.2L150.5,7.2L150.5,7.2C150.4,7.2,150.4,7.2,150.5,7.2L150.5,7.2L150.5,7.2
		L150.5,7.2C150.4,7.2,150.4,7.2,150.5,7.2h-0.2C150.4,7.2,150.4,7.2,150.5,7.2L150.5,7.2L150.5,7.2L150.5,7.2z"/>
	<path class="st0" d="M150.6,7.2L150.6,7.2L150.6,7.2L150.6,7.2L150.6,7.2C150.6,7.2,150.7,7.2,150.6,7.2z"/>
	<path class="st0" d="M150.6,7.2C150.6,7.2,150.6,7.2,150.6,7.2L150.6,7.2L150.6,7.2L150.6,7.2z"/>
	<path class="st0" d="M150.6,7.2L150.6,7.2L150.6,7.2L150.6,7.2L150.6,7.2L150.6,7.2z"/>
	<path class="st0" d="M136.2,7.6c0,0,0.2,0.1,0.7,0.2c0,0,0.2,0,0.4,0C137.2,7.8,136.9,7.7,136.2,7.6z"/>
	<path class="st0" d="M139.8,7.7c-0.4,0-0.9-0.1-1.4-0.2c-0.4,0-0.9-0.1-1.4-0.2h0C138.1,7.5,139,7.6,139.8,7.7z"/>
	<path class="st0" d="M121.4,5.8c0.6,0,1.2,0.1,1.8,0.1h0C122.5,5.9,121.7,5.9,121.4,5.8z"/>
	<path class="st0" d="M125,6.1c-0.5,0-1.2-0.1-1.8-0.1l0,0c0,0,0.1,0,0.1,0c0,0,0.1,0,0.1,0C123.9,6,124.5,6.1,125,6.1z"/>
	<path class="st0" d="M115.3,5.5c-0.3,0-0.6,0-0.9-0.1c-0.3,0-0.6,0-0.9-0.1c-0.1,0-0.2,0-0.2,0c-0.2,0-0.4,0-0.6,0
		c-0.2,0-0.5,0-0.7,0c-0.2,0-0.5,0-0.7,0c-0.4,0-0.9,0-1.2,0c-0.4,0-0.8,0-1.1,0c-0.4,0-0.7,0-1,0c-0.6,0-1,0-1.2,0
		c0.7,0,1.4,0,2.1,0c0.7,0,1.4,0,2.2,0.1c0.4,0,0.7,0,1.1,0c0.2,0,0.5,0,0.7,0c-0.4,0-0.8,0-1.2-0.1c-1.4-0.1-2.9-0.2-4.3-0.3
		c-0.7,0-1.2,0-1.5,0c0.3,0,0.5,0,0.8,0c0.2,0,0.5,0,0.7,0c0.3,0,0.7,0,1.1,0c0.2,0,0.4,0,0.6,0s0.4,0,0.6,0c0.4,0,0.9,0,1.3,0
		c0.4,0,0.9,0,1.3,0c0.4,0,0.8,0,1.1,0c0.3,0,0.8,0,1.4,0.1c0.6,0,1.3,0.1,2.1,0.1c0.4,0,0.7,0,1.1,0.1c0.3,0,0.7,0,1,0.1
		c0.4,0,0.7,0,0.9,0.1c-0.3,0-0.6-0.1-0.9-0.1c0.5,0,0.9,0.1,1.4,0.1c0.3,0,0.6,0.1,0.9,0.1c0.2,0,0.4,0,0.5,0.1
		c0.4,0,0.8,0.1,1.3,0.1c0.9,0.1,1.8,0.2,2.3,0.2c2.7,0.2,5.3,0.5,7.8,0.8c-0.1,0-0.7-0.1-1.1-0.1c-0.2,0-0.5,0-0.6-0.1
		c-0.1,0-0.2,0-0.2,0c0,0-0.1,0-0.1,0c0.7,0.1,1.6,0.2,2.4,0.3c0.9,0.1,1.6,0.2,1.9,0.2c-0.6-0.1-1.2-0.2-2-0.2
		c0.7,0.1,1.8,0.2,3,0.4c0.1,0,0.2,0,0.4,0c-0.2,0-0.3-0.1-0.5-0.1c1.3,0.2,2.5,0.4,3.4,0.5c0.5,0.1,0.9,0.2,1.2,0.2
		c1.4,0.2,2.2,0.4,2.4,0.4c2.4,0.2-1.4-0.8-1.7-0.9c0.2,0,0.4,0.1,0.6,0.2c-0.2,0-0.5-0.1-0.6-0.2c-0.9-0.2-1.9-0.3-2.8-0.5
		c0,0,0,0,0,0c-0.2,0-1-0.1-1.4-0.2c0.6,0,1.9,0.2,1.4,0c0,0-1.2-0.2-1.1-0.2c0.3,0,0.7,0.1,0.8,0.1c-0.5-0.1-1.4-0.3-0.7-0.3
		c-0.6-0.1-1-0.2-1.1-0.2c0.2,0,0.5,0.1,0.4,0c-0.4-0.1-0.7-0.1-0.9-0.2c-0.2,0-0.5-0.1-0.6-0.2c-0.4-0.1-0.7-0.2-1.5-0.3
		c0.8,0.1,1.3,0.2,1.8,0.3c0-0.1-1.6-0.3-1.1-0.4c0.8,0.1,0.8,0.2,1.4,0.2c0-0.1-0.5-0.2-1-0.3c-0.3,0-0.6-0.1-0.9-0.2
		c-0.3,0-0.7-0.1-1.1-0.2c-0.1,0,0.7,0.1,0.2,0c-0.5-0.1-0.7-0.1-1-0.2s-0.7-0.1-1.4-0.2c-1-0.2-2.1-0.4-3.2-0.5
		c-0.5-0.1-1.1-0.2-1.6-0.3c-0.6-0.1-1.1-0.2-1.7-0.3c-3.4-0.5-8.7-1.1-14-1.4c-0.2,0-12.8-1.1-27.4-1.1c-0.1,0-0.1,0-0.2,0
		c-2.5,0-2.5,0-2.5,0l0,0c-0.9,0-1.9,0-2.9,0.1c0,0-0.1,0-0.1,0c-0.2,0-0.5,0-0.8,0c-2.2,0.1-4.3,0.2-6.4,0.2c-1.3,0-0.8,0-2.7,0.1
		C62.8,1.6,58.3,2,53.9,2.4c-0.6,0-1.1,0.1-1.7,0.2c-0.6,0-1.1,0.1-1.7,0.2c-1.1,0.1-2.3,0.2-3.4,0.4c-2.3,0.2-4.6,0.5-7,0.9
		C39.6,4,39.3,4.1,39,4.2c-0.3,0-0.6,0.1-1.4,0.2c-0.7,0.1-1.4,0.2-1.9,0.2c-0.6,0.1-1.1,0.1-1.4,0.2c0.7-0.1,0,0-1.1,0.2
		c-0.5,0.1-1.2,0.2-1.8,0.3c-0.7,0.1-1.3,0.2-1.8,0.3c-0.4,0.1,2.5-0.3,1.5-0.2c-2.8,0.4-5,0.7-7.2,1.1c1.5-0.2,1.5-0.2,1.5-0.2
		s-0.2,0.1,0.8,0c-0.9,0.2-1.4,0.2-1.6,0.3s-0.2,0-0.1,0.1c-0.4,0.1-0.7,0.1-1,0.2c-0.3,0-0.6,0.1-0.9,0.2c-0.5,0.1-1.1,0.2-1.7,0.3
		c-0.6,0.1,0.1,0-0.7,0.2c-0.4,0-0.9,0.2-1.3,0.2c-0.5,0.1-0.9,0.2-1.2,0.2c-0.3,0,1.7-0.3,1.4-0.3C17.8,7.8,17.2,8,16.9,8
		c-0.3,0-0.2,0,0.1,0c0.3,0,0.8-0.1,1.3-0.2c0.5-0.1,1-0.2,1.3-0.2c-1.2,0.2-3.1,0.7-3.8,0.8c-0.9,0.1-2,0.3-3.2,0.5
		c-1.1,0.2-2.1,0.5-3,0.7c1.7-0.3,1.3-0.1,1.9-0.2c-1.5,0.3-4.1,0.8-5.5,1.2c0.6-0.1,1.6-0.3,2.4-0.5C9.1,10,9.8,9.9,9.8,9.9
		c-0.5,0.1-1.3,0.3-1.4,0.3c1.8-0.4,0.4,0,1.1-0.2c-0.9,0.2-2.3,0.5-3.6,0.8c-1.1,0.2-2.2,0.5-2.7,0.6c1.6-0.4,2.9-0.6,4-0.8
		c1.2-0.2,2.3-0.4,3.6-0.6c-0.3,0.1-0.6,0.2-0.9,0.2c-0.3,0.1-0.5,0.1-0.7,0.2c-1.3,0.3-2.7,0.6-4.1,0.9c-0.7,0.2-1.3,0.3-1.8,0.5
		c-0.6,0.2-1.1,0.3-1.5,0.4c0.5-0.1,1-0.2,1.4-0.4s0.9-0.2,1.2-0.3c0.8-0.2,1.4-0.3,2-0.4c1.1-0.2,1.8-0.4,2.6-0.5
		c-0.5,0.2-1.4,0.3-1.7,0.4c1.4-0.3,0.5,0,0.5,0c-1.1,0.2-0.3,0-1.4,0.3c-1.5,0.4-1.6,0.5-1.1,0.5c0.3,0,1-0.3,2.3-0.6
		c0,0-0.2,0.1-0.4,0.2c-3.2,0.7-4.8,1.2-4.8,1.2c-3.7,0.9,0,3.3,0,3.3c6.2,4.3,12.6,1.3,12.6,1.3C31.5,12.9,47,9.9,61.2,8l0,0
		c-1.9,0.2-3.7,0.5-5.6,0.8l-2.2,0.3l-0.5,0.1l-0.5,0.1l-1.1,0.2l-1.1,0.2l-0.5,0.1l-0.5,0.1L47,10.1c-0.2,0-0.5,0.1-0.6,0.1
		c-0.2,0-0.4,0.1-0.6,0.1c-0.4,0.1-0.9,0.2-1.6,0.3c-1.1,0.2-2.3,0.4-3.4,0.7c-1.2,0.2-2.4,0.5-3.7,0.7c-0.3,0.1-0.6,0.1-0.9,0.2
		c-0.3,0.1-0.6,0.1-0.9,0.2c-0.7,0.1-1.3,0.3-1.9,0.4c-0.3,0.1-0.7,0.1-1,0.2c-0.3,0.1-0.7,0.2-1,0.2c-0.7,0.2-1.3,0.3-1.9,0.5
		c-5.2,1.2-10.2,2.5-14.3,3.6c-0.2,0.1-0.3,0.1-0.5,0.2c-0.1,0-0.2,0-0.2,0.1c0,0,0,0,0,0l0,0l0,0h0c0,0,0.1,0,0.2-0.1
		c-0.7,0.2-1.7,0.5-2.8,0.7c-0.6,0.1-1.2,0.1-1.8,0.1s-1.3,0-1.9-0.1S6.8,18,6.3,17.9c-0.1,0-0.2-0.1-0.4-0.1
		c-0.1,0-0.2-0.1-0.4-0.1s-0.2-0.1-0.3-0.1c-0.1,0-0.2-0.1-0.3-0.1c-0.7-0.3-1.2-0.5-1.6-0.8l0,0c0.1,0.1,0.2,0.1,0.4,0.2
		C3.8,16.9,3.9,16.9,4,17l0.1,0l0.1,0c0.1,0,0.1,0.1,0.2,0.1c0.6,0.2,1.2,0.5,1.9,0.7c0.7,0.2,1.4,0.3,2.1,0.4c0.5,0,1,0.1,1.4,0.1
		c-0.2,0-0.3,0-0.5,0c0.4,0,0.8,0,1.2,0c0.2,0,0.3,0,0.5,0c-0.1,0-0.2,0-0.2,0c0,0-0.1,0-0.2,0c0,0,0.1,0,0.2,0c0.2,0,0.4,0,0.6,0
		c0.3,0,0.7-0.1,1.1-0.2c0.4-0.1,0.8-0.2,1.1-0.3c0.5-0.1,0.9-0.3,1.4-0.5l0,0l0,0l0,0c0.8-0.2,1.6-0.4,2.3-0.6
		c0.4-0.1,0.7-0.2,1.1-0.3c0.4-0.1,0.7-0.2,1.1-0.3c1.4-0.4,2.7-0.7,3.7-0.9c-0.5,0.1-1.1,0.3-1.3,0.3c0,0,2.1-0.5,1.7-0.4
		c-1.8,0.4-0.9,0.2-1.3,0.3c0,0,0.2,0,0.4-0.1c0.2,0,0.5-0.1,0.8-0.2c0.3-0.1,0.6-0.1,0.8-0.2c0.2,0,0.4-0.1,0.4-0.1
		c-0.5,0.1-1,0.2-1.6,0.4c-0.3,0.1-0.6,0.1-0.8,0.2c-0.3,0.1-0.5,0.1-0.8,0.2c-0.5,0.1-0.9,0.2-1.3,0.3c-0.2,0-0.3,0.1-0.4,0.1
		c-0.1,0-0.1,0-0.1,0c0.7-0.2,1.6-0.4,2.6-0.7c1-0.2,2-0.5,2.7-0.7c0,0,0,0,0,0c0,0-0.1,0-0.1,0c-0.1,0-0.2,0-0.3,0.1
		c-0.2,0-0.5,0.1-0.5,0.1c1.4-0.3,2-0.5,2.5-0.6c0.5-0.1,0.9-0.2,1.8-0.4c0.4-0.1,0.7-0.2,1.1-0.2c0.4-0.1,0.8-0.2,1.1-0.2
		c0.8-0.2,1.5-0.3,2.3-0.5c0.8-0.2,1.6-0.3,2.3-0.5c0.4-0.1,0.8-0.2,1.1-0.2l1.2-0.2c0.8-0.2,1.6-0.3,2.3-0.5
		c0.8-0.2,1.6-0.3,2.4-0.5c0.8-0.2,1.6-0.3,2.4-0.5l1.2-0.2l0.6-0.1l0.6-0.1c0.8-0.1,1.6-0.3,2.4-0.4c0.8-0.1,1.6-0.2,2.4-0.4
		c0.4-0.1,0.8-0.1,1.2-0.2c0.4,0,0.8-0.1,1.2-0.2c0.4,0,0.8-0.1,1.2-0.2c0.4,0,0.8-0.1,1.2-0.2c0.8-0.1,1.6-0.2,2.4-0.3
		c0.7-0.1,1.5-0.2,2.2-0.3l0,0c-5.2,0.7-10.3,1.5-15.1,2.3c-3.6,0.6-7,1.3-10.3,2c-0.8,0.2-1.6,0.3-2.5,0.5
		c-0.4,0.1-0.8,0.2-1.2,0.2c-0.4,0.1-0.8,0.2-1.2,0.2c-1.6,0.3-3.2,0.7-4.7,1.1c1.1-0.2,2.7-0.6,1.7-0.4c1.6-0.4,2.4-0.5,2.9-0.7
		c0.5-0.1,0.9-0.2,1.5-0.3c-0.2,0.1-3.2,0.7-5,1.2c0.5-0.1-0.3,0.1-1.1,0.3c-0.8,0.2-1.6,0.4-1.1,0.3c0.3-0.1,0.6-0.2,1-0.2
		c0.4-0.1,0.8-0.2,1.3-0.3c0.5-0.1,0.9-0.2,1.4-0.3c0.2,0,0.5-0.1,0.8-0.2c0.2,0,0.5-0.1,0.8-0.2c0.5-0.1,1.1-0.2,1.6-0.4
		c0.6-0.1,1.1-0.2,1.7-0.4c0.6-0.1,1.1-0.2,1.6-0.3c0.5-0.1,1.1-0.2,1.6-0.3c0.5-0.1,1-0.2,1.6-0.3c0.3,0,0.6-0.1,0.9-0.2
		c0.3,0,0.7-0.1,1-0.2c0.7-0.1,1.4-0.2,2.1-0.4c0.4-0.1,0.7-0.1,1.1-0.2c0.4-0.1,0.7-0.1,1-0.2c8.8-1.6,18.1-2.9,27.5-3.8
		c0.6,0,1.3-0.1,1.9-0.2c0.3,0,0.6,0,0.9-0.1c0.3,0,0.7,0,0.9-0.1c0.1,0,0.3,0,0.4,0c0.3,0,0.6,0,0.9-0.1c0.2,0,0.4,0,0.6,0
		c0.7,0,1.3-0.1,1.9-0.2l1-0.1l0.7,0c10.4-0.7,27.3-0.9,27.6-0.9c1.9,0,3.7,0.1,5.2,0.1c1,0,2,0.1,3,0.1c0.2,0,0.5,0,0.8,0
		c0.2,0,0.4,0,0.7,0c-0.4,0-0.8-0.1-1.2-0.1C116.6,5.6,115.9,5.6,115.3,5.5z M124.2,4.7c0.6,0,1.1,0.1,1.6,0.2
		c0.6,0.1,1.2,0.2,1.9,0.2c-0.8,0-1.9-0.2-3-0.4c-0.6-0.1-1.1-0.2-1.7-0.2c-0.6-0.1-1.1-0.1-1.6-0.2C122.3,4.4,123.2,4.5,124.2,4.7z
		 M114.1,3.6c0.3,0,0.7,0,1,0.1c0.4,0,0.7,0.1,1.1,0.1c0.7,0.1,1.4,0.1,2,0.2c0.6,0.1,1.1,0.1,1.6,0.2c-0.6-0.1-1.2-0.1-1.8-0.2
		s-1.3-0.1-1.9-0.2C115.4,3.6,114.8,3.6,114.1,3.6c-0.3,0-0.6,0-0.9-0.1c-0.3,0-0.6,0-0.9-0.1C112.8,3.4,113.4,3.5,114.1,3.6z
		 M10.4,9.8c-0.2,0-0.5,0.1-1,0.2c0.2,0,0.4-0.1,0,0c0.3-0.1,0.8-0.2,1.2-0.2c0.4-0.1,0.8-0.1,0.9-0.1C10.9,9.8,10.6,9.8,10.4,9.8z
		 M18.2,8c-0.7,0.1-1.4,0.2-2.1,0.4C16.1,8.3,18.5,7.9,18.2,8z M43.4,4c0.3,0,0.6-0.1,0.9-0.1c0.6-0.1,1.1-0.1,1.7-0.2
		c0.6,0,1.1-0.1,1.7-0.2c0.3,0,0.6,0,0.9-0.1c0.3,0,0.6,0,0.9-0.1c0.6,0,1.1-0.1,1.7-0.2c0.6,0,1.1-0.1,1.8-0.2c0.3,0,0.6,0,0.9-0.1
		l0.9-0.1c0.6,0,1.2-0.1,1.8-0.2c0.8,0,1.5-0.1,2.3-0.2v0c-0.1,0-0.4,0-0.7,0c-0.2,0-0.5,0-0.9,0.1c-0.2,0-0.4,0-0.6,0
		c-0.2,0-0.4,0-0.7,0c-1.1,0.1-2.2,0.2-3.4,0.3c-0.6,0-1.2,0.1-1.8,0.2c-0.6,0-1.2,0.1-1.8,0.2c-0.6,0-1.2,0.1-1.8,0.2
		c-0.6,0-1.1,0.1-1.7,0.2c-1.1,0.1-2.1,0.2-3,0.3C42.9,4,43.2,4,43.4,4z M52.7,3.1c-0.5,0-0.9,0.1-1.3,0.1s-0.9,0.1-1.3,0.1
		c-5,0.5-8.6,0.9-13.3,1.5c-0.4,0-0.9,0.1-1.4,0.2s-1.1,0.2-1.6,0.2c-0.6,0.1-1.2,0.2-1.8,0.2c-0.6,0.1-1.2,0.2-1.8,0.3
		c-2.4,0.4-4.6,0.7-5.6,0.8c2.1-0.3,4.4-0.7,6.8-1.1c0.7-0.1,1.4-0.2,2.2-0.3S35.1,5,36,4.9c0.9-0.1,1.8-0.2,2.8-0.4
		c0.5,0,1-0.1,1.5-0.2c0.2,0,0.5,0,0.7-0.1c0.2,0,0.5,0,0.7-0.1C45.7,3.8,49.7,3.4,52.7,3.1C53,3.1,53.9,3,54.9,2.9
		c0.5,0,1-0.1,1.5-0.1c0.5,0,0.9-0.1,1.4-0.1c0.5,0,0.9-0.1,1-0.1v0C56.8,2.8,54.7,2.9,52.7,3.1z M10,18.4c0.2,0,0.3,0,0.4,0
		C10.2,18.4,10.1,18.4,10,18.4z"/>
	<path class="st0" d="M124.4,6c-0.2,0-0.5,0-0.7,0c0.2,0,0.4,0,0.5,0.1c0.5,0,0.9,0.1,1.4,0.1c3.2,0.2,6.6,0.6,9.8,1
		c0.6,0.1,1.2,0.2,1.8,0.2c0,0-0.1,0-0.1,0c-1.4-0.2-2.9-0.4-4.4-0.5C130.1,6.5,127.3,6.2,124.4,6z"/>
	<path class="st0" d="M143.9,8c-0.2-0.1-0.4-0.1-0.6-0.2c0,0,0,0-0.1,0c0,0,0.1,0,0.2,0c0.2,0.1,0.5,0.2,0.8,0.2
		c0.1,0,0.2,0.1,0.4,0.2c0,0,0,0,0,0s0,0,0,0c0,0,0,0-0.1,0c-0.1,0-0.2,0-0.2,0c-0.2,0-0.3,0-0.5,0c-0.1,0-0.2,0-0.2,0
		c-0.1,0-0.2,0-0.2,0c-0.3,0-0.7-0.1-1-0.2c-0.7-0.1-1.4-0.2-2.1-0.3c-0.9-0.1-1.9-0.3-2.9-0.4c0,0,0,0,0.1,0c1.5,0.2,3,0.4,4.4,0.7
		c0.5,0.1,1,0.2,1.5,0.2c0.1,0,0.2,0,0.4,0c0.1,0,0.2,0,0.4,0s0.2,0,0.4,0c0,0,0.1,0,0.1,0s0.1,0,0.1,0c0,0,0-0.1-0.1-0.1
		C144.3,8.1,144.1,8,143.9,8z"/>
	<path class="st0" d="M143.2,7.8c-0.2,0-0.3-0.1-0.5-0.1C142.8,7.7,143,7.7,143.2,7.8z"/>
	<path class="st0" d="M129.4,6.5c-0.5,0-1-0.1-1.6-0.2c-0.5,0-1-0.1-1.6-0.1c-0.2,0-0.5,0-0.8-0.1c-0.2,0-0.5,0-0.8,0h0
		c0.1,0,0.2,0,0.2,0c0.7,0.1,1.3,0.2,1.8,0.2s0.9,0.2,1.2,0.2c-0.5-0.1-1.1-0.2-1.8-0.2c-0.3,0-0.7-0.1-1-0.1c-0.3,0-0.7-0.1-1-0.1
		c-0.3,0-0.6-0.1-0.9-0.1c-0.2,0-0.5,0-0.8,0c-0.3,0-0.6,0-0.9,0c-0.3,0-0.7,0-1.1-0.1c-0.4,0-0.7,0-1.1-0.1c-0.4,0-0.8,0-1.3-0.1
		c-0.5,0-0.9,0-1.4-0.1c0.2,0,0.6,0,1,0c0.4,0,0.9,0,1.4,0.1c0.5,0,1,0.1,1.4,0.1c0.5,0,0.9,0.1,1.3,0.1c0.5,0-1.1,0-1.4,0
		c-0.6,0-1.2,0-1.7-0.1c0,0-0.1,0-0.2,0c0.2,0,0.5,0,0.7,0.1c0.7,0,0.6,0,1.4,0.1c0.7,0.1,1.4,0.2,1.8,0.2c-0.7-0.1,1.4,0.1,2.5,0.3
		c0.3,0-1.3-0.2-0.7-0.2c0.4,0,0.7,0.1,1.1,0.2c0.3,0,0.7,0.1,1,0.2c0.3,0,0.6,0.1,0.9,0.1c0.3,0,0.6,0.1,0.9,0.1
		c-0.4,0-0.6-0.1-0.7-0.1c-0.1,0-0.1,0,0,0s0.2,0-0.3-0.1c0.9,0.1,1.1,0.2,1,0.1c0.8,0.1,1.3,0.2,1.9,0.3c0.3,0,0,0,0.4,0
		c0.4,0.1,1.1,0.1,1.3,0.2c0.1,0-0.9-0.2-0.8-0.1c2.7,0.5,0.5,0-0.1-0.1c0.7,0.1,1.8,0.2,2.2,0.2c0.5,0.1,1,0.2,1.7,0.4
		c0.6,0,1.2,0.2,1.8,0.2c-0.9-0.2-0.5-0.2-0.8-0.3c0.9,0.1,2.2,0.4,3,0.5c-0.6-0.1-2-0.4-2-0.5c0.3,0,0.7,0.1,0.8,0.1
		c-1-0.2-0.2,0-0.5-0.2c0.5,0.1,1.3,0.2,2,0.4c0.7,0.1,1.3,0.2,1.5,0.3c-1.2-0.3-2.1-0.5-2.9-0.7c-0.5-0.1-1.1-0.2-1.6-0.2
		C133.6,6.9,131.5,6.7,129.4,6.5z M131.5,6.9l1.1,0.2C132.6,7.1,131.3,6.9,131.5,6.9z M136.7,7.4C136.6,7.4,136.5,7.4,136.7,7.4
		c-0.2,0-0.5,0-0.7-0.1c-0.2,0-0.4-0.1-0.4-0.1c0.4,0,0.5,0.1,0.6,0.1C136.3,7.4,136.4,7.4,136.7,7.4z"/>
	<path class="st0" d="M123.1,5.9c0.2,0,0.5,0,0.7,0C123.7,6,122.7,5.9,123.1,5.9c0.5,0,1,0,1.6,0.1c-0.1,0-0.2,0-0.4,0
		c-0.6,0-1.2-0.1-1.8-0.1C122.7,5.9,122.9,5.9,123.1,5.9z"/>
	<path class="st0" d="M120.1,5.6c-0.5,0-1.1,0-2.2-0.1c0.5,0,1.1,0.1,1.6,0.1c0.3,0,0.6,0,0.8,0C120.2,5.6,120.2,5.6,120.1,5.6
		C120.1,5.6,120.1,5.6,120.1,5.6z"/>
	<path class="st0" d="M120.4,5.6c-0.1,0-0.3,0-0.5,0c0.1,0,0.2,0,0.2,0C120.2,5.6,120.3,5.6,120.4,5.6z"/>
	<path class="st0" d="M121.1,5.7l-0.5,0l-0.6,0c-0.7,0-1.5-0.1-2.2-0.1s-1.5-0.1-2.2-0.1l-0.6,0l-0.6,0c-0.4,0-0.7,0-1.1,0
		c-0.1,0-0.2,0-0.4,0c0.1,0,0.2,0,0.4,0c0.7,0,1.3,0,1.9,0.1c0.4,0,1,0,1.7,0.1c0.4,0,0.7,0,1.2,0.1c0.4,0,0.9,0,1.4,0.1
		c0.9,0,2,0.1,3,0.2c-0.2,0-0.3,0-0.5,0C121.7,5.8,121.4,5.8,121.1,5.7z"/>
	<path class="st0" d="M120.3,5.6c0.5,0,0.9,0.1,1.3,0.2c0.1,0,0.2,0,0.4,0c0.1,0,0.1,0,0.2,0c0.4,0,0.7,0,1.1,0.1c0.2,0,0.3,0,0.5,0
		c-0.2,0-0.5-0.1-0.8-0.1c-0.3,0-0.6-0.1-0.9-0.1c-0.1,0-0.2,0-0.2,0c-0.4,0-0.7,0-0.9-0.1C120.8,5.7,120.6,5.6,120.3,5.6z"/>
</g>
</svg>
