<?xml version="1.0" encoding="utf-8"?>
<!-- Generator: Adobe Illustrator 21.0.0, SVG Export Plug-In . SVG Version: 6.00 Build 0)  -->
<svg version="1.1" id="Layer_1" xmlns="http://www.w3.org/2000/svg" xmlns:xlink="http://www.w3.org/1999/xlink" x="0px" y="0px"
	 viewBox="0 0 380 50" style="enable-background:new 0 0 380 50;" xml:space="preserve">
<style type="text/css">
	.st0{fill:#231F20;}
</style>
<g>
	<path class="st0" d="M27.6,24.5c-0.2,0.1-0.7,0.2-1.6,0.4c0.7,0,2-0.3,5.1-1C30.9,23.8,29.7,24,27.6,24.5z"/>
	<path class="st0" d="M68.4,36.4c0.4-0.1,1-0.2,1.6-0.4c0.7-0.2,1.4-0.3,2.1-0.5c1.5-0.3,2.9-0.7,3.5-0.8C73.1,35.3,73,35.3,70,36
		C71,35.8,67.4,36.6,68.4,36.4z"/>
	<path class="st0" d="M43.2,42.5C43.2,42.5,43.2,42.5,43.2,42.5C43.2,42.5,43.2,42.5,43.2,42.5C43.2,42.5,43.2,42.5,43.2,42.5z"/>
	<path class="st0" d="M14.4,28.1c-0.1,0-0.2,0.1-0.3,0.1C14.1,28.2,14.2,28.2,14.4,28.1z"/>
	<path class="st0" d="M37.1,44.4c-0.2,0-0.4,0.1-0.7,0.1C36.7,44.5,36.9,44.4,37.1,44.4z"/>
	<path class="st0" d="M37.5,44.3c-0.1,0-0.1,0-0.2,0c-0.1,0-0.1,0-0.2,0C37.2,44.4,37.3,44.3,37.5,44.3z"/>
	<path class="st0" d="M14.7,40.7c-0.3-0.2-0.5-0.3-0.8-0.5C14.1,40.4,14.4,40.5,14.7,40.7z"/>
	<path class="st0" d="M36.3,44.5c0,0,0.1,0,0.1,0c-0.1,0-0.2,0-0.3,0.1C36.2,44.6,36.3,44.5,36.3,44.5z"/>
	<path class="st0" d="M29.2,45c-0.3,0-0.5,0-0.8,0C28.7,44.9,28.9,45,29.2,45z"/>
	<path class="st0" d="M369.4,21.5L369.4,21.5l-1-0.2c0.2,0.1,0.4,0.1,0.6,0.2c0.1,0,0.1,0,0.2,0.1c0.1,0,0.2,0,0.3,0.1l0,0
		c0,0,0,0-0.1,0C369.5,21.6,369.4,21.5,369.4,21.5z"/>
	<path class="st0" d="M365.9,20.6c0.1,0,0.2,0,0.3,0.1c-0.2-0.1-0.5-0.1-0.8-0.2L365.9,20.6z"/>
	<path class="st0" d="M373.6,17.8L373.6,17.8L373.6,17.8L373.6,17.8L373.6,17.8C373.5,17.8,373.5,17.8,373.6,17.8l-0.1,0
		c0,0,0,0,0,0l0,0c0,0,0,0-0.1,0l-0.2,0c0.1,0,0.2,0.1,0.3,0.1L373.6,17.8l0.1,0C373.7,17.8,373.6,17.8,373.6,17.8z"/>
	<path class="st0" d="M373.9,17.8L373.9,17.8l-0.1,0h0l0,0C373.9,17.8,374.1,17.8,373.9,17.8z"/>
	<path class="st0" d="M373.9,17.8C373.8,17.8,373.8,17.8,373.9,17.8l-0.1,0L373.9,17.8L373.9,17.8z"/>
	<path class="st0" d="M373.9,17.8C373.9,17.8,373.9,17.8,373.9,17.8L373.9,17.8L373.9,17.8C373.9,17.8,373.9,17.8,373.9,17.8
		C373.9,17.8,373.9,17.8,373.9,17.8z"/>
	<path class="st0" d="M338.7,18.8c0,0.1,0.6,0.2,1.7,0.4c0.1,0,0.4,0,0.9,0.1C341.2,19.2,340.4,19.1,338.7,18.8z"/>
	<path class="st0" d="M347.6,19.1c-1-0.1-2.2-0.3-3.5-0.5c-1-0.1-2.1-0.3-3.3-0.5c0,0,0.1,0,0.1,0C343.3,18.5,345.5,18.8,347.6,19.1
		z"/>
	<path class="st0" d="M302.6,14.5c1.4,0.1,2.9,0.2,4.5,0.3c0,0-0.1,0-0.1,0C305.4,14.7,303.4,14.6,302.6,14.5z"/>
	<path class="st0" d="M311.5,15.2c-1.3-0.1-2.9-0.2-4.4-0.3c0,0,0,0,0,0c0.1,0,0.2,0,0.3,0c0.1,0,0.2,0,0.3,0
		C308.9,15,310.2,15.1,311.5,15.2z"/>
	<path class="st0" d="M287.9,13.8c-0.7-0.1-1.5-0.1-2.2-0.2c-0.7-0.1-1.5-0.1-2.2-0.2c-0.2,0-0.4,0-0.6,0c-0.5,0-1,0-1.5-0.1
		c-0.5,0-1.1,0-1.6-0.1c-0.5,0-1.1,0-1.6,0c-1,0-2.1-0.1-3-0.1c-1,0-1.9-0.1-2.8-0.1c-0.9,0-1.7,0-2.4,0c-1.4,0-2.5-0.1-3-0.1
		c1.7,0,3.5,0.1,5.2,0.1c1.8,0.1,3.5,0.1,5.3,0.2c0.9,0,1.8,0,2.7,0.1c0.6,0,1.2,0,1.7,0.1c-1-0.1-1.9-0.1-2.9-0.2
		c-3.5-0.2-7-0.5-10.6-0.7c-1.7-0.1-3-0.1-3.6-0.1c0.7,0,1.3,0,2,0c0.5,0,1.1,0.1,1.6,0.1c0.8,0,1.7,0,2.6,0.1c0.5,0,1,0,1.5,0
		c0.5,0,1,0,1.5,0.1c1,0,2.1,0.1,3.2,0.1c1,0,2.1,0.1,3.1,0.1c1,0,1.9,0.1,2.8,0.1c0.7,0.1,2,0.1,3.5,0.2c1.5,0.1,3.2,0.2,5,0.3
		c0.9,0.1,1.8,0.1,2.6,0.2c0.8,0.1,1.7,0.1,2.4,0.2c0.9,0.1,1.6,0.1,2.3,0.2c-0.8-0.1-1.5-0.2-2.3-0.3c1.2,0.1,2.3,0.2,3.4,0.2
		c0.7,0.1,1.5,0.2,2.3,0.3c0.4,0,0.9,0.1,1.3,0.2c0.9,0.1,2,0.2,3.2,0.2c2.2,0.2,4.4,0.4,5.7,0.5c6.7,0.6,13,1.3,19.1,2
		c-0.3,0-1.6-0.2-2.7-0.3c-0.6-0.1-1.1-0.1-1.5-0.2c-0.2,0-0.4,0-0.5-0.1c-0.1,0-0.2,0-0.2,0c1.6,0.2,3.8,0.5,5.9,0.7
		c2.1,0.3,4,0.5,4.7,0.6c-1.4-0.2-3-0.4-4.9-0.6c1.6,0.2,4.4,0.5,7.2,0.9c0.3,0,0.6,0.1,0.9,0.1c-0.4-0.1-0.8-0.2-1.2-0.3
		c3.2,0.4,6,0.9,8.3,1.2c1.1,0.2,2.1,0.4,3,0.5c3.3,0.5,5.3,0.9,5.9,0.9c5.9,0.5-3.4-1.9-4.1-2.1c0.5,0.1,1,0.2,1.5,0.4
		c-0.6-0.1-1.1-0.3-1.5-0.4c-2.3-0.4-4.6-0.8-6.9-1.2c0.1,0,0.1,0-0.1-0.1c-0.6-0.1-2.5-0.3-3.3-0.6c1.4,0,4.6,0.4,3.3-0.1
		c0.1,0-3-0.4-2.8-0.5c0.7,0,1.7,0.3,1.9,0.3c-1.3-0.3-3.4-0.8-1.6-0.7c-1.4-0.2-2.4-0.4-2.8-0.5c0.6,0.1,1.1,0.2,1,0.1
		c-0.9-0.2-1.6-0.3-2.2-0.5c-0.6-0.1-1.1-0.3-1.5-0.4c-0.9-0.2-1.8-0.5-3.6-0.8c2,0.3,3.2,0.6,4.3,0.7c0.1-0.2-3.8-0.8-2.6-0.9
		c1.9,0.3,1.9,0.4,3.4,0.5c-0.1-0.2-1.1-0.5-2.5-0.8c-0.7-0.1-1.5-0.3-2.3-0.4c-0.8-0.1-1.7-0.3-2.6-0.4c-0.2-0.1,1.7,0.2,0.6-0.1
		c-1.1-0.2-1.7-0.3-2.5-0.4c-0.8-0.1-1.7-0.2-3.3-0.5c-2.5-0.4-5-0.9-7.7-1.3c-1.3-0.2-2.6-0.5-4-0.7c-1.4-0.2-2.8-0.4-4.2-0.7
		c-8.3-1.2-21.1-2.6-34.2-3.5c-0.4,0-31.3-2.7-66.7-2.6c-0.2,0-0.3,0-0.5,0c-6,0-6,0-6,0v0c-2.3,0-4.7,0.1-7,0.2c-0.1,0-0.2,0-0.2,0
		c-0.6,0-1.3,0-1.9,0.1c-5.3,0.2-10.5,0.4-15.6,0.6c-3.2,0.1-1.9-0.1-6.5,0.2C160,4.2,149,5.1,138.2,6.2c-1.4,0.1-2.7,0.3-4.1,0.4
		c-1.4,0.1-2.7,0.3-4.1,0.4c-2.7,0.3-5.5,0.6-8.2,0.9c-5.5,0.6-11.1,1.3-17,2.1c-1.5,0.2-2.1,0.3-2.8,0.5c-0.7,0.1-1.5,0.3-3.4,0.5
		c-1.7,0.2-3.3,0.4-4.7,0.6c-1.4,0.2-2.6,0.3-3.3,0.5c1.6-0.2,0,0.1-2.6,0.5c-1.3,0.2-2.9,0.4-4.4,0.7c-1.6,0.2-3.1,0.5-4.5,0.7
		c-1,0.3,6.1-0.8,3.7-0.4c-6.8,1-12.3,1.7-17.6,2.7c3.6-0.6,3.7-0.6,3.6-0.5c-0.1,0.1-0.6,0.2,1.9-0.1c-2.1,0.4-3.4,0.6-4,0.7
		c-0.6,0.1-0.6,0.1-0.3,0.2c-0.9,0.2-1.8,0.3-2.5,0.4c-0.8,0.1-1.5,0.2-2.1,0.4c-1.3,0.2-2.6,0.4-4.1,0.7c-1.5,0.3,0.2,0.1-1.6,0.4
		c-1,0.1-2.1,0.4-3.2,0.6c-1.1,0.2-2.1,0.4-2.9,0.5c-0.7,0,4.1-0.7,3.4-0.7c-3.1,0.5-4.7,0.9-5.4,1c-0.7,0.1-0.5,0.1,0.2,0
		c0.7-0.1,1.9-0.3,3.1-0.5c1.2-0.2,2.4-0.4,3.2-0.5c-2.9,0.6-7.6,1.6-9.2,2c-2.1,0.3-4.8,0.8-7.8,1.3c-2.6,0.6-5.1,1.1-7.4,1.7
		c4.1-0.8,3.1-0.3,4.6-0.5c-3.6,0.8-9.9,2-13.4,2.9c1.5-0.3,3.8-0.8,5.8-1.2c2-0.4,3.6-0.7,3.7-0.7c-1.2,0.3-3.1,0.7-3.3,0.8
		c4.4-1,0.9-0.1,2.6-0.4c-2.2,0.5-5.7,1.2-8.8,1.9c-2.8,0.6-5.4,1.2-6.7,1.5c3.8-0.9,7-1.4,9.8-2c3-0.5,5.7-1,8.7-1.5
		c-0.8,0.2-1.5,0.4-2.2,0.5c-0.7,0.2-1.3,0.3-1.8,0.5c-3.2,0.7-6.7,1.5-9.9,2.2c-1.6,0.4-3.1,0.8-4.5,1.1c-1.4,0.4-2.6,0.7-3.6,1
		c1.3-0.3,2.4-0.6,3.5-0.9c1.1-0.3,2.1-0.5,3-0.7c1.9-0.4,3.4-0.8,4.8-1c2.7-0.6,4.5-0.9,6.3-1.1c-1.1,0.4-3.4,0.7-4.1,1
		c3.3-0.7,1.2-0.1,1.1,0.1c-2.6,0.6-0.7,0.1-3.3,0.7c-3.6,1-3.9,1.3-2.7,1.3c0.7-0.1,2.5-0.7,5.6-1.4c0.1,0.1-0.6,0.3-0.9,0.4
		c-7.7,1.8-11.8,2.9-11.8,2.9c-9,2.3,0,8.1,0,8.1c15.2,10.4,30.7,3.2,30.7,3.2c40.3-10.9,78.1-18.2,112.7-22.9l0,0
		c-4.6,0.6-9.1,1.3-13.7,2l-5.3,0.8l-1.3,0.2l-1.3,0.2l-2.6,0.4l-2.6,0.4l-1.3,0.2l-1.3,0.2l-5.2,0.9c-0.6,0.1-1.1,0.2-1.5,0.3
		c-0.5,0.1-0.9,0.2-1.4,0.3c-1,0.2-2.1,0.4-3.9,0.7c-2.7,0.5-5.5,1-8.4,1.6c-2.9,0.6-5.9,1.2-9,1.8c-0.8,0.2-1.5,0.3-2.3,0.5
		c-0.8,0.2-1.5,0.3-2.3,0.5c-1.6,0.3-3.1,0.7-4.7,1c-0.8,0.2-1.6,0.3-2.4,0.5c-0.8,0.2-1.6,0.4-2.4,0.5c-1.6,0.4-3.2,0.7-4.7,1.1
		c-12.6,2.9-24.9,6-34.9,8.7c-0.4,0.2-0.8,0.3-1.2,0.5c-0.2,0.1-0.4,0.1-0.5,0.2c-0.1,0-0.1,0-0.1,0c0,0,0,0,0,0c0,0,0,0,0,0
		c0,0,0.1,0,0.1,0c0.1,0,0.3-0.1,0.5-0.2c-1.8,0.6-4.1,1.3-6.9,1.7c-1.4,0.2-2.9,0.3-4.4,0.3c-1.5,0-3.1-0.1-4.6-0.3
		c-1.5-0.2-2.9-0.5-4.1-0.9c-0.3-0.1-0.6-0.2-0.9-0.3c-0.3-0.1-0.6-0.2-0.9-0.3c-0.3-0.1-0.6-0.2-0.8-0.3c-0.3-0.1-0.5-0.2-0.8-0.3
		c-1.6-0.7-2.9-1.3-4-1.9c0,0,0,0,0,0c0.3,0.2,0.5,0.3,0.9,0.5c0.3,0.2,0.6,0.3,0.9,0.5l0.2,0.1l0.3,0.1c0.2,0.1,0.3,0.2,0.5,0.2
		c1.4,0.6,3,1.2,4.7,1.7c1.7,0.5,3.4,0.8,5,0.9c1.3,0.1,2.5,0.2,3.5,0.2c-0.4,0-0.8,0-1.2,0c0.9,0,1.9,0,2.9,0
		c0.4,0,0.8-0.1,1.2-0.1c-0.2,0-0.4,0-0.5,0c-0.1,0-0.2,0-0.4,0c0.1,0,0.3,0,0.4,0c0.5,0,1-0.1,1.4-0.1c0.8-0.1,1.6-0.2,2.8-0.4
		c1-0.2,1.9-0.4,2.8-0.7c1.2-0.3,2.3-0.7,3.3-1.1c0,0,0,0,0,0l0,0c0,0,0,0,0,0c1.9-0.5,3.8-1,5.7-1.5c0.9-0.2,1.8-0.5,2.7-0.7
		c0.9-0.2,1.8-0.5,2.7-0.7c3.5-0.9,6.5-1.7,9-2.2c-1.2,0.3-2.8,0.7-3.2,0.8c0.1,0,5-1.2,4.1-1c-4.3,1-2.3,0.5-3.2,0.8
		c0,0,0.4-0.1,0.9-0.2c0.5-0.1,1.2-0.3,1.9-0.5c0.7-0.2,1.4-0.3,1.9-0.5c0.5-0.1,0.9-0.2,0.9-0.2c-1.1,0.3-2.4,0.6-3.8,0.9
		c-0.7,0.2-1.4,0.3-2,0.5c-0.7,0.2-1.3,0.3-1.9,0.5c-1.2,0.3-2.3,0.6-3.1,0.8c-0.4,0.1-0.7,0.2-0.9,0.2c-0.2,0.1-0.3,0.1-0.3,0.1
		c1.6-0.4,3.9-1,6.3-1.6c2.4-0.6,4.8-1.1,6.6-1.6c0,0,0,0-0.1,0c-0.1,0-0.2,0-0.3,0.1c-0.2,0.1-0.5,0.1-0.8,0.2
		c-0.6,0.1-1.2,0.3-1.3,0.3c3.3-0.8,4.9-1.2,6.2-1.5c1.3-0.3,2.3-0.5,4.4-1c0.9-0.2,1.8-0.4,2.8-0.6c0.9-0.2,1.9-0.4,2.8-0.6
		c1.9-0.4,3.7-0.8,5.6-1.2c1.9-0.4,3.8-0.8,5.7-1.2c0.9-0.2,1.9-0.4,2.8-0.6l2.9-0.6c1.9-0.4,3.8-0.8,5.7-1.1
		c1.9-0.4,3.9-0.7,5.8-1.1c1.9-0.4,3.9-0.7,5.8-1.1l2.9-0.5l1.5-0.3l1.5-0.3c2-0.3,3.9-0.7,5.9-1c2-0.3,3.9-0.6,5.9-1
		c1-0.2,2-0.3,2.9-0.5c1-0.1,2-0.3,2.9-0.4c1-0.1,2-0.3,2.9-0.4c1-0.1,2-0.3,2.9-0.4c2-0.3,3.9-0.6,5.9-0.8c1.8-0.2,3.6-0.5,5.3-0.7
		l0,0c-12.7,1.7-25.1,3.6-36.9,5.7c-8.7,1.5-17,3.2-25.1,4.8c-2,0.4-4,0.8-6,1.3c-1,0.2-2,0.4-2.9,0.6c-1,0.2-1.9,0.4-2.9,0.6
		c-3.9,0.8-7.7,1.7-11.4,2.6c2.6-0.6,6.5-1.5,4.1-0.9c3.9-0.9,5.8-1.3,7.1-1.6c1.3-0.3,2.1-0.4,3.6-0.7c-0.6,0.2-7.8,1.7-12.2,2.8
		c1.2-0.2-0.8,0.2-2.8,0.7c-2,0.5-3.9,1-2.8,0.7c0.7-0.2,1.5-0.4,2.5-0.6c0.9-0.2,2-0.4,3.1-0.7c1.1-0.2,2.3-0.5,3.5-0.8
		c0.6-0.1,1.2-0.3,1.9-0.4c0.6-0.1,1.3-0.3,2-0.4c1.3-0.3,2.7-0.6,4-0.9c1.4-0.3,2.7-0.6,4.1-0.9c1.4-0.3,2.7-0.6,4-0.8
		c1.3-0.3,2.6-0.5,3.8-0.8c1.1-0.2,2.4-0.5,3.8-0.7c0.7-0.1,1.5-0.3,2.2-0.4c0.8-0.1,1.6-0.3,2.4-0.4c1.6-0.3,3.3-0.6,5-0.9
		c0.9-0.2,1.7-0.3,2.6-0.5c0.9-0.2,1.7-0.3,2.5-0.4c21.4-3.8,44.2-7,66.9-9.3c1.5-0.1,3.1-0.3,4.6-0.4c0.8-0.1,1.5-0.1,2.3-0.2
		c0.8-0.1,1.6-0.1,2.3-0.2c0.3,0,0.7-0.1,1-0.1c0.7-0.1,1.5-0.1,2.3-0.2c0.5,0,0.9-0.1,1.4-0.1c1.6-0.1,3.1-0.2,4.7-0.4l2.4-0.2
		l1.6-0.1c25.4-1.6,66.5-2.3,67.3-2.3c4.6,0.1,8.9,0.2,12.6,0.3c2.5,0.1,4.9,0.2,7.4,0.3c0.6,0,1.3,0,1.9,0.1c0.5,0,1,0.1,1.6,0.1
		c-1-0.1-2-0.2-2.9-0.3C290.9,14,289.4,13.9,287.9,13.8z M309.5,11.7c1.4,0.1,2.6,0.2,4,0.4c1.4,0.2,2.9,0.4,4.7,0.6
		c-1.9-0.1-4.6-0.5-7.4-0.9c-1.4-0.2-2.8-0.4-4.2-0.6c-1.4-0.2-2.7-0.3-3.9-0.5C304.8,11,307.2,11.4,309.5,11.7z M284.9,9
		c0.8,0.1,1.7,0.1,2.5,0.2c0.9,0.1,1.7,0.2,2.6,0.2c1.7,0.2,3.4,0.3,4.9,0.5c1.5,0.2,2.8,0.3,3.8,0.5c-1.4-0.2-2.9-0.3-4.4-0.5
		c-1.5-0.2-3.1-0.3-4.6-0.5c-1.6-0.2-3.1-0.3-4.7-0.4c-0.8-0.1-1.6-0.1-2.3-0.2c-0.8-0.1-1.5-0.1-2.3-0.2
		C281.7,8.7,283.3,8.9,284.9,9z M32.3,24.3c-0.6,0.1-1.1,0.2-2.4,0.5c0.5-0.1,1-0.3-0.1-0.1c0.8-0.2,2-0.4,3-0.6
		c1-0.2,2-0.3,2.2-0.3C33.5,24.1,32.8,24.2,32.3,24.3z M51.3,19.7c-1.7,0.3-3.4,0.6-5.1,1C46,20.6,51.9,19.5,51.3,19.7z M112.7,10
		c0.7-0.1,1.4-0.2,2.1-0.2c1.4-0.2,2.8-0.3,4.2-0.5c1.4-0.1,2.8-0.3,4.2-0.4c0.7-0.1,1.4-0.1,2.1-0.2c0.7-0.1,1.4-0.1,2.1-0.2
		c1.4-0.1,2.8-0.3,4.2-0.4c1.4-0.1,2.8-0.3,4.3-0.4c0.7-0.1,1.4-0.1,2.1-0.2l2.1-0.2c1.4-0.1,2.9-0.2,4.3-0.4
		c1.9-0.1,3.7-0.3,5.6-0.4l0,0.1c-0.3,0-0.9,0.1-1.8,0.1c-0.6,0-1.3,0.1-2.1,0.2c-0.4,0-0.9,0.1-1.4,0.1c-0.5,0-1,0.1-1.6,0.1
		c-2.6,0.2-5.4,0.4-8.2,0.7c-1.4,0.1-2.9,0.3-4.3,0.4c-1.5,0.1-2.9,0.3-4.4,0.4c-1.4,0.1-2.9,0.3-4.3,0.4c-1.4,0.1-2.8,0.3-4.1,0.4
		c-2.7,0.3-5.1,0.5-7.3,0.8C111.4,10.2,112.1,10.1,112.7,10z M135.2,8c-1.1,0.1-2.1,0.2-3.2,0.3c-1.1,0.1-2.1,0.2-3.1,0.3
		c-12.1,1.2-20.9,2.1-32.4,3.6c-1,0.1-2.2,0.3-3.5,0.5c-1.3,0.2-2.6,0.4-4,0.6c-1.4,0.2-2.9,0.4-4.4,0.6c-1.5,0.2-3,0.5-4.5,0.7
		c-5.9,0.9-11.3,1.8-13.7,2c5-0.7,10.7-1.8,16.6-2.7c1.6-0.2,3.4-0.5,5.3-0.8c1.9-0.3,4-0.6,6.2-0.8c2.2-0.3,4.5-0.6,6.8-0.9
		c1.2-0.1,2.4-0.3,3.6-0.4c0.6-0.1,1.2-0.1,1.8-0.2c0.6-0.1,1.2-0.1,1.8-0.2c9.7-1.1,19.5-2.1,26.5-2.7c1.1-0.1,3.2-0.3,5.6-0.5
		c1.2-0.1,2.4-0.2,3.6-0.3c1.2-0.1,2.3-0.2,3.3-0.3c1.2-0.1,2.1-0.2,2.5-0.2l0,0.1C145.2,7.1,140.2,7.5,135.2,8z M31.2,45
		c0.4,0,0.7,0,1,0C31.8,45,31.5,45,31.2,45z"/>
	<path class="st0" d="M310,14.9c-0.5,0-1.1-0.1-1.6-0.1c0.4,0.1,0.9,0.1,1.3,0.2c1.1,0.1,2.2,0.2,3.3,0.3c7.7,0.6,16.1,1.5,24,2.5
		c1.4,0.2,2.9,0.4,4.3,0.6c-0.1,0-0.2-0.1-0.3-0.1c-3.4-0.5-7-0.9-10.8-1.3C323.9,16.1,317,15.5,310,14.9z"/>
	<path class="st0" d="M357.5,19.7c-0.5-0.2-1-0.3-1.5-0.5c-0.1,0-0.1,0-0.2-0.1c0.1,0,0.3,0.1,0.4,0.1c0.6,0.2,1.3,0.4,1.9,0.6
		c0.3,0.1,0.6,0.2,0.9,0.4c0.1,0,0.1,0.1,0.1,0.1c0,0,0,0.1-0.1,0.1c0,0-0.1,0-0.2,0.1c-0.2,0-0.4,0-0.6,0c-0.4,0-0.8,0-1.2-0.1
		c-0.2,0-0.4,0-0.6-0.1c-0.2,0-0.4-0.1-0.6-0.1c-0.8-0.1-1.6-0.2-2.4-0.4c-1.6-0.3-3.4-0.5-5.1-0.8c-2.2-0.3-4.6-0.7-7-1
		c0.1,0,0.1,0,0.2,0c3.7,0.5,7.3,1,10.8,1.6c1.2,0.2,2.4,0.4,3.6,0.6c0.3,0,0.6,0.1,0.9,0.1c0.3,0,0.6,0.1,0.9,0.1c0.3,0,0.6,0,1,0
		c0.1,0,0.2,0,0.3,0c0.1,0,0.2-0.1,0.2-0.1c0-0.1-0.1-0.2-0.2-0.2C358.5,20,358,19.9,357.5,19.7z"/>
	<path class="st0" d="M355.8,19.2c-0.4-0.1-0.8-0.2-1.2-0.3C354.9,19,355.4,19.1,355.8,19.2z"/>
	<path class="st0" d="M322.2,16.1c-1.3-0.1-2.5-0.2-3.8-0.4c-1.3-0.1-2.5-0.2-3.8-0.3c-0.6-0.1-1.3-0.1-1.9-0.2
		c-0.6,0-1.3-0.1-1.9-0.1c0,0-0.1,0-0.1,0c0.2,0,0.4,0,0.6,0.1c1.6,0.2,3.1,0.4,4.4,0.6c1.3,0.2,2.3,0.4,2.9,0.5
		c-1.3-0.2-2.8-0.4-4.3-0.6c-0.8-0.1-1.6-0.2-2.4-0.3c-0.8-0.1-1.6-0.2-2.4-0.3c-0.7-0.1-1.4-0.2-2.2-0.3c-0.6,0-1.2-0.1-1.9-0.1
		c-0.7,0-1.5-0.1-2.3-0.1c-0.8-0.1-1.7-0.1-2.6-0.2c-0.9,0-1.8-0.1-2.8-0.2c-1-0.1-2-0.1-3.1-0.2c-1.1-0.1-2.3-0.1-3.5-0.2
		c0.6,0,1.5,0.1,2.5,0.1c1,0.1,2.1,0.1,3.3,0.2c1.2,0.1,2.4,0.2,3.5,0.2c1.1,0.1,2.2,0.2,3.1,0.2c1.1,0.1-2.6-0.1-3.5-0.1
		c-1.5-0.1-2.9-0.1-4.2-0.2c-0.1,0-0.3,0-0.4,0c0.6,0.1,1.1,0.1,1.7,0.2c1.6,0.1,1.4,0,3.4,0.2c1.8,0.2,3.4,0.5,4.3,0.5
		c-1.6-0.3,3.4,0.3,6.2,0.7c0.7,0-3.2-0.5-1.8-0.4c0.9,0.1,1.8,0.2,2.6,0.4c0.8,0.1,1.6,0.2,2.4,0.4c0.8,0.1,1.5,0.2,2.2,0.3
		c0.7,0.1,1.5,0.2,2.2,0.3c-1-0.1-1.5-0.2-1.7-0.3c-0.2,0-0.2-0.1-0.1-0.1c0.1,0,0.4-0.1-0.8-0.3c2.3,0.3,2.6,0.4,2.4,0.2
		c2,0.3,3.1,0.5,4.7,0.7c0.8,0.1,0.1-0.1,1,0c1,0.2,2.6,0.3,3.2,0.6c0.3,0.1-2.2-0.4-1.9-0.2c6.6,1.1,1.2,0.1-0.3-0.3
		c1.7,0.2,4.3,0.5,5.3,0.5c1.1,0.2,2.4,0.5,4.1,0.9c1.5,0.1,2.9,0.4,4.3,0.5c-2.2-0.4-1.3-0.5-2-0.8c2.1,0.2,5.3,1,7.3,1.3
		c-1.5-0.3-4.9-1-4.9-1.1c0.7,0.1,1.7,0.3,1.9,0.3c-2.5-0.4-0.4-0.1-1.3-0.4c1.2,0.2,3.1,0.6,4.9,0.9c1.6,0.3,3.1,0.6,3.7,0.7
		c-3-0.7-5.1-1.2-7.1-1.7c-1.3-0.2-2.7-0.4-4-0.5C332.4,17.2,327.3,16.6,322.2,16.1z M327.3,17.1l2.8,0.4
		C330.1,17.6,326.9,17.2,327.3,17.1z M340,18.4C339.7,18.4,339.4,18.4,340,18.4c-0.5,0-1.2-0.1-1.7-0.2c-0.5-0.1-1-0.3-1-0.3
		c0.9,0.1,1.2,0.2,1.5,0.3C339,18.3,339.3,18.3,340,18.4z"/>
	<path class="st0" d="M306.9,14.8c0.6,0,1.2,0.1,1.6,0.1c-0.2,0-2.6-0.2-1.5-0.2c1.2,0.1,2.4,0.2,3.7,0.3c-0.3,0-0.6-0.1-1-0.1
		c-1.5-0.1-3-0.2-4.4-0.3C305.9,14.7,306.4,14.8,306.9,14.8z"/>
	<path class="st0" d="M299.5,13.9c-1.1,0-2.7-0.1-5.3-0.3c1.1,0.1,2.6,0.2,4,0.3c0.7,0,1.4,0.1,1.9,0.1c-0.2,0-0.3,0-0.5-0.1
		C299.6,13.9,299.6,13.9,299.5,13.9z"/>
	<path class="st0" d="M300.2,13.9c-0.3,0-0.7-0.1-1.2-0.1c0.2,0,0.4,0,0.5,0.1C299.8,13.9,300,13.9,300.2,13.9z"/>
	<path class="st0" d="M302,14.3l-1.3-0.1l-1.4-0.1c-1.8-0.1-3.6-0.2-5.4-0.3c-1.8-0.1-3.6-0.2-5.4-0.3l-1.4-0.1l-1.4-0.1
		c-0.9,0-1.8-0.1-2.7-0.1c-0.3,0-0.6,0-1,0c0.3,0,0.6,0,0.9,0.1c1.6,0.1,3.2,0.1,4.7,0.2c0.9,0.1,2.4,0.1,4.1,0.2
		c0.9,0,1.8,0.1,2.9,0.2c1,0.1,2.1,0.1,3.3,0.2c2.3,0.1,4.8,0.3,7.4,0.5c-0.4,0-0.7-0.1-1.1-0.1C303.4,14.4,302.7,14.4,302,14.3z"/>
	<path class="st0" d="M300.1,14c1.1,0.1,2.1,0.3,3.2,0.4c0.3,0,0.6,0.1,0.9,0.1c0.2,0,0.3,0,0.5,0c0.9,0.1,1.8,0.1,2.7,0.2
		c0.4,0,0.7,0.1,1.1,0.1c-0.6-0.1-1.3-0.2-1.9-0.2c-0.8-0.1-1.5-0.2-2.2-0.3c-0.2,0-0.4,0-0.5-0.1c-0.9-0.1-1.6-0.1-2.1-0.2
		C301.3,14.1,300.8,14,300.1,14z"/>
</g>
</svg>
